<svg width="18" height="19" viewBox="0 0 18 19" fill="none" xmlns="http://www.w3.org/2000/svg">
<path fill-rule="evenodd" clip-rule="evenodd" d="M2.10573 16.8943C-0.530304 14.2583 -0.530305 9.98441 2.10573 7.34837L7.76259 1.69151C9.61758 -0.163477 12.6251 -0.163477 14.4801 1.69151C16.3351 3.5465 16.3351 6.55404 14.4801 8.40903L8.72223 14.1669C7.64829 15.2408 5.90709 15.2408 4.83315 14.1669C3.7592 13.093 3.7592 11.3518 4.83315 10.2778L10.389 4.72197C10.6819 4.42908 11.1568 4.42908 11.4496 4.72197C11.7425 5.01486 11.7425 5.48974 11.4496 5.78263L5.89381 11.3385C5.40565 11.8266 5.40565 12.6181 5.89381 13.1062C6.38196 13.5944 7.17342 13.5944 7.66157 13.1062L13.4194 7.34837C14.6886 6.07916 14.6886 4.02138 13.4194 2.75217C12.1502 1.48297 10.0925 1.48297 8.82325 2.75217L3.16639 8.40903C1.11614 10.4593 1.11614 13.7834 3.16639 15.8336C5.21665 17.8839 8.54076 17.8839 10.591 15.8336L16.0458 10.3788C16.3387 10.0859 16.8136 10.0859 17.1065 10.3788C17.3994 10.6717 17.3994 11.1466 17.1065 11.4395L11.6517 16.8943C9.01564 19.5303 4.74177 19.5303 2.10573 16.8943Z" fill="black"/>
</svg>
