<svg width="32" height="32" viewBox="0 0 32 32" fill="none" xmlns="http://www.w3.org/2000/svg">
<path d="M8 28C10.2091 28 12 26.2091 12 24C12 21.7909 10.2091 20 8 20C5.79086 20 4 21.7909 4 24C4 26.2091 5.79086 28 8 28Z" stroke="black" stroke-width="2" stroke-linecap="round" stroke-linejoin="round"/>
<path d="M12 24V6.66667L28 4V21.3333" stroke="black" stroke-width="2" stroke-linecap="round" stroke-linejoin="round"/>
<path d="M24 25.332C26.2091 25.332 28 23.5412 28 21.332C28 19.1229 26.2091 17.332 24 17.332C21.7909 17.332 20 19.1229 20 21.332C20 23.5412 21.7909 25.332 24 25.332Z" stroke="black" stroke-width="2" stroke-linecap="round" stroke-linejoin="round"/>
</svg>
