<svg width="34" height="30" viewBox="0 0 34 30" fill="none" xmlns="http://www.w3.org/2000/svg">
<path d="M18.6666 21.6667H15.3333C14.4166 21.6667 13.6666 20.9167 13.6666 20H2.01659V26.6667C2.01659 28.5 3.51659 30 5.34992 30H28.6666C30.4999 30 31.9999 28.5 31.9999 26.6667V20H20.3333C20.3333 20.9167 19.5833 21.6667 18.6666 21.6667ZM30.3333 6.66667H23.6666C23.6666 2.98333 20.6833 0 16.9999 0C13.3166 0 10.3333 2.98333 10.3333 6.66667H3.66659C1.83325 6.66667 0.333252 8.16667 0.333252 10V15C0.333252 16.85 1.81659 18.3333 3.66659 18.3333H13.6666V16.6667C13.6666 15.75 14.4166 15 15.3333 15H18.6666C19.5833 15 20.3333 15.75 20.3333 16.6667V18.3333H30.3333C32.1666 18.3333 33.6666 16.8333 33.6666 15V10C33.6666 8.16667 32.1666 6.66667 30.3333 6.66667ZM13.6666 6.66667C13.6666 4.83333 15.1666 3.33333 16.9999 3.33333C18.8333 3.33333 20.3333 4.83333 20.3333 6.66667H13.6499H13.6666Z" fill="#334155"/>
</svg>
