<svg width="24" height="25" viewBox="0 0 24 25" fill="none" xmlns="http://www.w3.org/2000/svg">
<g id="clarity:details-line" clip-path="url(#clip0_268_6041)">
<path id="Vector" d="M21.3335 4.5H2.66683C2.31321 4.5 1.97407 4.64048 1.72402 4.89052C1.47397 5.14057 1.3335 5.47971 1.3335 5.83333V19.1667C1.3335 19.5203 1.47397 19.8594 1.72402 20.1095C1.97407 20.3595 2.31321 20.5 2.66683 20.5H21.3335C21.6871 20.5 22.0263 20.3595 22.2763 20.1095C22.5264 19.8594 22.6668 19.5203 22.6668 19.1667V5.83333C22.6668 5.47971 22.5264 5.14057 22.2763 4.89052C22.0263 4.64048 21.6871 4.5 21.3335 4.5ZM21.3335 19.1667H2.66683V5.83333H21.3335V19.1667Z" fill="#475569"/>
<path id="Vector_2" d="M6.00016 9.83333H18.0002C18.177 9.83333 18.3465 9.7631 18.4716 9.63807C18.5966 9.51305 18.6668 9.34348 18.6668 9.16667C18.6668 8.98986 18.5966 8.82029 18.4716 8.69526C18.3465 8.57024 18.177 8.5 18.0002 8.5H6.00016C5.82335 8.5 5.65378 8.57024 5.52876 8.69526C5.40373 8.82029 5.3335 8.98986 5.3335 9.16667C5.3335 9.34348 5.40373 9.51305 5.52876 9.63807C5.65378 9.7631 5.82335 9.83333 6.00016 9.83333Z" fill="#475569"/>
<path id="Vector_3" d="M6.00016 12.5001H18.0002C18.177 12.5001 18.3465 12.4298 18.4716 12.3048C18.5966 12.1798 18.6668 12.0102 18.6668 11.8334C18.6668 11.6566 18.5966 11.487 18.4716 11.362C18.3465 11.237 18.177 11.1667 18.0002 11.1667H6.00016C5.82335 11.1667 5.65378 11.237 5.52876 11.362C5.40373 11.487 5.3335 11.6566 5.3335 11.8334C5.3335 12.0102 5.40373 12.1798 5.52876 12.3048C5.65378 12.4298 5.82335 12.5001 6.00016 12.5001Z" fill="#475569"/>
<path id="Vector_4" d="M6.00016 15.1666H12.6668C12.8436 15.1666 13.0132 15.0963 13.1382 14.9713C13.2633 14.8463 13.3335 14.6767 13.3335 14.4999C13.3335 14.3231 13.2633 14.1535 13.1382 14.0285C13.0132 13.9035 12.8436 13.8333 12.6668 13.8333H6.00016C5.82335 13.8333 5.65378 13.9035 5.52876 14.0285C5.40373 14.1535 5.3335 14.3231 5.3335 14.4999C5.3335 14.6767 5.40373 14.8463 5.52876 14.9713C5.65378 15.0963 5.82335 15.1666 6.00016 15.1666Z" fill="#475569"/>
</g>
<defs>
<clipPath id="clip0_268_6041">
<rect width="24" height="24" fill="white" transform="translate(0 0.5)"/>
</clipPath>
</defs>
</svg>
