<svg width="44" height="44" viewBox="0 0 44 44" fill="none" xmlns="http://www.w3.org/2000/svg">
<path d="M37.5812 7.16113C36.0632 7.16113 34.8312 8.3913 34.8312 9.91113V33.7445C34.8312 35.2625 36.0632 36.4945 37.5812 36.4945C39.0992 36.4945 40.3312 35.2643 40.3312 33.7445C40.3312 33.7445 40.3 11.2385 40.3312 9.91113C40.3624 8.5838 39.0992 7.16113 37.5812 7.16113ZM31.1645 10.8278C23.8312 14.4945 14.6645 14.4945 14.6645 14.4945V27.3278V29.1611V30.9945C14.6645 34.0323 17.1267 36.4945 20.1645 36.4945C23.2024 36.4945 25.6645 34.0323 25.6645 30.9945V30.7653C27.5015 31.275 29.3862 31.9386 31.1645 32.8278C31.1645 30.9945 31.1645 12.6611 31.1645 10.8278ZM9.45056 14.4945C6.21839 14.4945 3.66455 17.7688 3.66455 21.8278C3.66455 25.8776 6.26786 29.1611 9.5092 29.1611H10.9979V14.4945H9.45056ZM18.3459 29.394C19.51 29.5187 20.2305 29.5974 21.9942 29.9164L21.9979 30.9945C21.9979 32.0065 21.1765 32.8278 20.1645 32.8278C19.1525 32.8278 18.3312 32.0065 18.3312 30.9945L18.3459 29.394Z" fill="#2A343D"/>
</svg>
