<svg width="22" height="22" viewBox="0 0 22 22" fill="none" xmlns="http://www.w3.org/2000/svg">
<path d="M16.5 11.0046C16.5 11.5088 16.9125 11.9213 17.4166 11.9213H19.25C19.7541 11.9213 20.1666 11.5088 20.1666 11.0046C20.1666 10.5005 19.7541 10.088 19.25 10.088H17.4166C16.9125 10.088 16.5 10.5005 16.5 11.0046Z" fill="#DFE3E8"/>
<path d="M15.2075 15.423C14.905 15.8263 14.9875 16.3855 15.3908 16.6788C15.8766 17.0363 16.39 17.4213 16.8758 17.788C17.2791 18.0905 17.8475 18.008 18.1408 17.6046C18.1408 17.5955 18.15 17.5955 18.15 17.5863C18.4525 17.183 18.37 16.6146 17.9666 16.3213C17.4808 15.9546 16.9675 15.5696 16.4908 15.2121C16.0875 14.9096 15.5191 15.0013 15.2166 15.4046C15.2166 15.4138 15.2075 15.423 15.2075 15.423Z" fill="#DFE3E8"/>
<path d="M18.1591 4.41381C18.1591 4.40464 18.15 4.40464 18.15 4.39547C17.8475 3.99214 17.2791 3.90964 16.885 4.21214C16.3991 4.57881 15.8766 4.96381 15.4 5.33047C14.9966 5.63297 14.9233 6.20131 15.2258 6.59547C15.2258 6.60464 15.235 6.60464 15.235 6.61381C15.5375 7.01714 16.0966 7.09964 16.5 6.79714C16.9858 6.43964 17.4991 6.04547 17.985 5.67881C18.3791 5.38547 18.4525 4.81714 18.1591 4.41381Z" fill="#DFE3E8"/>
<path d="M7.33331 8.25464H3.66665C2.65831 8.25464 1.83331 9.07964 1.83331 10.088V11.9213C1.83331 12.9296 2.65831 13.7546 3.66665 13.7546H4.58331V16.5046C4.58331 17.0088 4.99581 17.4213 5.49998 17.4213C6.00415 17.4213 6.41665 17.0088 6.41665 16.5046V13.7546H7.33331L11.9166 16.5046V5.50464L7.33331 8.25464Z" fill="#DFE3E8"/>
<path d="M14.2083 11.0046C14.2083 9.78547 13.6766 8.68547 12.8333 7.93381V14.0663C13.6766 13.3238 14.2083 12.2238 14.2083 11.0046Z" fill="#DFE3E8"/>
</svg>
