<svg width="20" height="20" viewBox="0 0 20 20" fill="none" xmlns="http://www.w3.org/2000/svg">
<path d="M4.98857 19.0229C4.4781 19.0229 4.04267 18.843 3.68229 18.4834C3.32267 18.1238 3.14286 17.6884 3.14286 17.1771V3.02286H2V1.88H6.57143V1H13.4286V1.88H18V3.02286H16.8571V17.1771C16.8571 17.7029 16.6811 18.1417 16.3291 18.4937C15.9764 18.8465 15.5371 19.0229 15.0114 19.0229H4.98857ZM15.7143 3.02286H4.28571V17.1771C4.28571 17.3821 4.35162 17.5505 4.48343 17.6823C4.61524 17.8141 4.78362 17.88 4.98857 17.88H15.0114C15.1867 17.88 15.3478 17.8069 15.4949 17.6606C15.6411 17.5135 15.7143 17.3524 15.7143 17.1771V3.02286ZM7.49486 15.5943H8.63771V5.30857H7.49486V15.5943ZM11.3623 15.5943H12.5051V5.30857H11.3623V15.5943Z" fill="#637381"/>
</svg>
