<svg width="24" height="24" viewBox="0 0 24 24" fill="none" xmlns="http://www.w3.org/2000/svg">
    <path
        d="M16.9202 4.5C15.0692 4.5 13.6222 5.894 12.3122 7.665C10.5122 5.373 9.00721 4.5 7.20621 4.5C3.53421 4.5 0.720215 9.28 0.720215 14.338C0.720215 17.503 2.25121 19.5 4.81621 19.5C6.66221 19.5 7.99021 18.63 10.3512 14.503C10.3512 14.503 11.3352 12.766 12.0112 11.569C12.2492 11.952 12.4982 12.364 12.7612 12.807L13.8682 14.669C16.0242 18.277 17.2262 19.5 19.4022 19.5C21.9022 19.5 23.2922 17.476 23.2922 14.245C23.2922 8.948 20.4152 4.5 16.9202 4.5ZM8.55021 13.386C6.63721 16.386 5.97521 17.059 4.91021 17.059C3.81321 17.059 3.16121 16.096 3.16121 14.379C3.16121 10.707 4.99221 6.952 7.17521 6.952C8.35721 6.952 9.34521 7.634 10.8582 9.8C9.42121 12.004 8.55021 13.386 8.55021 13.386ZM15.7742 13.009L14.4502 10.8C14.1176 10.2568 13.7735 9.72066 13.4182 9.192C14.6112 7.351 15.5942 6.433 16.7652 6.433C19.1952 6.433 21.1402 10.013 21.1402 14.409C21.1402 16.085 20.5912 17.058 19.4542 17.058C18.3642 17.058 17.8442 16.339 15.7742 13.009Z"
        fill="#0064E0" />
</svg>