<svg width="452" height="255" viewBox="0 0 452 255" fill="none" xmlns="http://www.w3.org/2000/svg">
<g filter="url(#filter0_d_2275_5507)">
<rect x="72.6064" y="23" width="156.462" height="55.4464" rx="12.2715" fill="white"/>
<rect x="73.1178" y="23.5113" width="155.439" height="54.4238" rx="11.7602" stroke="#39B3EA" stroke-width="1.02262"/>
<path d="M91.3586 35.0737V45.4858H90.0978V35.0737H91.3586ZM93.724 45.4858V37.6767H94.8831V38.8969H94.9848C95.1475 38.48 95.4102 38.1563 95.7729 37.9258C96.1355 37.692 96.5711 37.575 97.0795 37.575C97.5946 37.575 98.0234 37.692 98.3657 37.9258C98.7115 38.1563 98.9809 38.48 99.1741 38.8969H99.2554C99.4554 38.4935 99.7554 38.1733 100.155 37.936C100.555 37.6953 101.035 37.575 101.594 37.575C102.292 37.575 102.863 37.7936 103.307 38.2309C103.751 38.6647 103.973 39.3409 103.973 40.2594V45.4858H102.774V40.2594C102.774 39.6832 102.616 39.2714 102.301 39.024C101.986 38.7766 101.614 38.6528 101.187 38.6528C100.638 38.6528 100.213 38.8189 99.9113 39.1511C99.6096 39.4799 99.4588 39.8968 99.4588 40.4018V45.4858H98.2386V40.1374C98.2386 39.6934 98.0946 39.3358 97.8065 39.0647C97.5184 38.7901 97.1473 38.6528 96.6931 38.6528C96.3813 38.6528 96.0898 38.7359 95.8186 38.902C95.5509 39.068 95.3339 39.2985 95.1679 39.5934C95.0052 39.8849 94.9238 40.2221 94.9238 40.6051V45.4858H93.724ZM108.465 45.6689C107.97 45.6689 107.521 45.5757 107.118 45.3892C106.715 45.1994 106.394 44.9266 106.157 44.5707C105.92 44.2114 105.801 43.7776 105.801 43.2692C105.801 42.8218 105.889 42.4591 106.066 42.1812C106.242 41.8999 106.477 41.6796 106.772 41.5203C107.067 41.361 107.393 41.2423 107.748 41.1644C108.108 41.083 108.469 41.0186 108.831 40.9712C109.306 40.9102 109.691 40.8644 109.985 40.8339C110.284 40.8 110.501 40.7441 110.636 40.6661C110.775 40.5882 110.845 40.4526 110.845 40.2594V40.2187C110.845 39.7171 110.707 39.3273 110.433 39.0494C110.162 38.7715 109.75 38.6325 109.197 38.6325C108.625 38.6325 108.175 38.7579 107.85 39.0087C107.525 39.2595 107.296 39.5273 107.164 39.812L106.025 39.4053C106.228 38.9308 106.499 38.5613 106.838 38.297C107.181 38.0292 107.553 37.8428 107.957 37.7377C108.364 37.6293 108.764 37.575 109.157 37.575C109.407 37.575 109.696 37.6055 110.021 37.6665C110.35 37.7242 110.667 37.8445 110.972 38.0275C111.28 38.2105 111.536 38.4868 111.739 38.8562C111.943 39.2257 112.044 39.7205 112.044 40.3408V45.4858H110.845V44.4284H110.784C110.702 44.5978 110.567 44.7792 110.377 44.9723C110.187 45.1655 109.935 45.3299 109.619 45.4655C109.304 45.6011 108.919 45.6689 108.465 45.6689ZM108.648 44.591C109.123 44.591 109.523 44.4978 109.848 44.3114C110.177 44.125 110.424 43.8844 110.59 43.5895C110.76 43.2946 110.845 42.9845 110.845 42.6591V41.5609C110.794 41.6219 110.682 41.6779 110.509 41.7287C110.34 41.7762 110.143 41.8185 109.919 41.8558C109.699 41.8897 109.484 41.9202 109.274 41.9473C109.067 41.9711 108.899 41.9914 108.77 42.0083C108.458 42.049 108.167 42.1151 107.896 42.2066C107.628 42.2947 107.411 42.4286 107.245 42.6083C107.082 42.7845 107.001 43.0251 107.001 43.3302C107.001 43.7471 107.155 44.0623 107.464 44.2758C107.776 44.486 108.17 44.591 108.648 44.591ZM117.387 48.577C116.807 48.577 116.309 48.5024 115.892 48.3533C115.475 48.2075 115.127 48.0143 114.85 47.7737C114.575 47.5364 114.356 47.2822 114.194 47.0111L115.15 46.34C115.258 46.4823 115.395 46.645 115.561 46.828C115.727 47.0145 115.955 47.1754 116.243 47.311C116.534 47.45 116.915 47.5195 117.387 47.5195C118.017 47.5195 118.537 47.3669 118.947 47.0619C119.357 46.7569 119.562 46.279 119.562 45.6282V44.042H119.461C119.373 44.1843 119.247 44.3606 119.085 44.5707C118.925 44.7775 118.695 44.9622 118.393 45.1249C118.095 45.2842 117.692 45.3638 117.183 45.3638C116.553 45.3638 115.987 45.2147 115.485 44.9164C114.987 44.6182 114.592 44.1843 114.3 43.6149C114.012 43.0455 113.868 42.3541 113.868 41.5406C113.868 40.7407 114.009 40.0442 114.29 39.451C114.572 38.8545 114.963 38.3936 115.465 38.0682C115.966 37.7394 116.546 37.575 117.203 37.575C117.712 37.575 118.115 37.6598 118.413 37.8292C118.715 37.9953 118.946 38.1851 119.105 38.3986C119.268 38.6088 119.393 38.7816 119.481 38.9172H119.603V37.6767H120.762V45.7095C120.762 46.3806 120.61 46.9263 120.305 47.3466C120.003 47.7703 119.596 48.0804 119.085 48.277C118.576 48.477 118.01 48.577 117.387 48.577ZM117.346 44.286C117.827 44.286 118.234 44.1758 118.566 43.9555C118.898 43.7352 119.151 43.4183 119.324 43.0048C119.496 42.5913 119.583 42.0965 119.583 41.5203C119.583 40.9576 119.498 40.4611 119.329 40.0306C119.159 39.6002 118.908 39.2629 118.576 39.0189C118.244 38.7749 117.834 38.6528 117.346 38.6528C116.837 38.6528 116.414 38.7816 116.075 39.0392C115.739 39.2968 115.487 39.6425 115.317 40.0764C115.151 40.5102 115.068 40.9915 115.068 41.5203C115.068 42.0626 115.153 42.5422 115.322 42.9591C115.495 43.3726 115.749 43.6979 116.085 43.9352C116.424 44.1691 116.844 44.286 117.346 44.286ZM126.233 45.6485C125.48 45.6485 124.831 45.4825 124.286 45.1503C123.743 44.8147 123.325 44.347 123.03 43.7471C122.738 43.1438 122.593 42.4422 122.593 41.6423C122.593 40.8424 122.738 40.1374 123.03 39.5273C123.325 38.9138 123.735 38.4359 124.26 38.0936C124.789 37.7479 125.406 37.575 126.111 37.575C126.518 37.575 126.919 37.6428 127.316 37.7784C127.712 37.914 128.073 38.1343 128.399 38.4393C128.724 38.741 128.983 39.1409 129.176 39.6392C129.37 40.1374 129.466 40.7509 129.466 41.4796V41.988H123.447V40.9508H128.246C128.246 40.5102 128.158 40.1171 127.982 39.7713C127.809 39.4256 127.561 39.1528 127.239 38.9528C126.921 38.7528 126.545 38.6528 126.111 38.6528C125.633 38.6528 125.219 38.7715 124.87 39.0087C124.525 39.2426 124.258 39.5476 124.072 39.9239C123.886 40.3001 123.792 40.7034 123.792 41.1339V41.8253C123.792 42.4151 123.894 42.915 124.097 43.3251C124.304 43.7318 124.591 44.042 124.957 44.2555C125.323 44.4656 125.748 44.5707 126.233 44.5707C126.548 44.5707 126.833 44.5266 127.087 44.4385C127.345 44.347 127.567 44.2114 127.753 44.0318C127.939 43.8488 128.083 43.6217 128.185 43.3505L129.344 43.6759C129.222 44.0691 129.017 44.4148 128.729 44.7131C128.441 45.0079 128.085 45.2384 127.661 45.4045C127.238 45.5672 126.762 45.6485 126.233 45.6485ZM137.067 31.7182V48.8413H136.05V31.7182H137.067ZM147.404 45.6282C146.638 45.6282 145.986 45.4197 145.447 45.0029C144.908 44.5826 144.496 43.9742 144.211 43.1777C143.927 42.3778 143.784 41.4118 143.784 40.2798C143.784 39.1545 143.927 38.1936 144.211 37.3971C144.499 36.5972 144.913 35.9871 145.452 35.5668C145.994 35.1431 146.645 34.9313 147.404 34.9313C148.163 34.9313 148.812 35.1431 149.351 35.5668C149.894 35.9871 150.307 36.5972 150.592 37.3971C150.88 38.1936 151.024 39.1545 151.024 40.2798C151.024 41.4118 150.882 42.3778 150.597 43.1777C150.312 43.9742 149.9 44.5826 149.362 45.0029C148.823 45.4197 148.17 45.6282 147.404 45.6282ZM147.404 44.5097C148.163 44.5097 148.753 44.1436 149.173 43.4115C149.594 42.6794 149.804 41.6355 149.804 40.2798C149.804 39.3782 149.707 38.6105 149.514 37.9767C149.324 37.3429 149.05 36.8599 148.69 36.5277C148.335 36.1955 147.906 36.0295 147.404 36.0295C146.652 36.0295 146.064 36.4006 145.64 37.1429C145.216 37.8818 145.004 38.9274 145.004 40.2798C145.004 41.1813 145.099 41.9473 145.289 42.5778C145.479 43.2082 145.752 43.6878 146.108 44.0165C146.467 44.3453 146.899 44.5097 147.404 44.5097ZM153.487 45.5672C153.236 45.5672 153.021 45.4774 152.842 45.2977C152.662 45.1181 152.572 44.9029 152.572 44.6521C152.572 44.4012 152.662 44.186 152.842 44.0064C153.021 43.8267 153.236 43.7369 153.487 43.7369C153.738 43.7369 153.953 43.8267 154.133 44.0064C154.313 44.186 154.402 44.4012 154.402 44.6521C154.402 44.8181 154.36 44.9707 154.275 45.1096C154.194 45.2486 154.084 45.3604 153.945 45.4452C153.809 45.5265 153.657 45.5672 153.487 45.5672ZM159.568 45.6282C158.802 45.6282 158.149 45.4197 157.61 45.0029C157.071 44.5826 156.66 43.9742 156.375 43.1777C156.09 42.3778 155.948 41.4118 155.948 40.2798C155.948 39.1545 156.09 38.1936 156.375 37.3971C156.663 36.5972 157.077 35.9871 157.615 35.5668C158.158 35.1431 158.809 34.9313 159.568 34.9313C160.327 34.9313 160.976 35.1431 161.515 35.5668C162.057 35.9871 162.471 36.5972 162.755 37.3971C163.044 38.1936 163.188 39.1545 163.188 40.2798C163.188 41.4118 163.045 42.3778 162.761 43.1777C162.476 43.9742 162.064 44.5826 161.525 45.0029C160.986 45.4197 160.334 45.6282 159.568 45.6282ZM159.568 44.5097C160.327 44.5097 160.917 44.1436 161.337 43.4115C161.757 42.6794 161.967 41.6355 161.967 40.2798C161.967 39.3782 161.871 38.6105 161.678 37.9767C161.488 37.3429 161.213 36.8599 160.854 36.5277C160.498 36.1955 160.069 36.0295 159.568 36.0295C158.815 36.0295 158.227 36.4006 157.804 37.1429C157.38 37.8818 157.168 38.9274 157.168 40.2798C157.168 41.1813 157.263 41.9473 157.453 42.5778C157.643 43.2082 157.915 43.6878 158.271 44.0165C158.631 44.3453 159.063 44.5097 159.568 44.5097ZM168.434 34.9313C168.861 34.9347 169.289 35.016 169.716 35.1753C170.143 35.3346 170.532 35.599 170.885 35.9685C171.237 36.3345 171.52 36.8344 171.734 37.4683C171.947 38.1021 172.054 38.8969 172.054 39.8527C172.054 40.778 171.966 41.5999 171.79 42.3185C171.617 43.0336 171.366 43.6369 171.037 44.1284C170.712 44.6199 170.315 44.9927 169.848 45.2469C169.383 45.5011 168.858 45.6282 168.272 45.6282C167.689 45.6282 167.168 45.513 166.711 45.2825C166.257 45.0486 165.884 44.7249 165.592 44.3114C165.304 43.8945 165.12 43.4115 165.038 42.8625H166.279C166.391 43.3404 166.613 43.7352 166.945 44.047C167.28 44.3555 167.723 44.5097 168.272 44.5097C169.075 44.5097 169.709 44.1589 170.173 43.4573C170.641 42.7557 170.875 41.7643 170.875 40.4831H170.793C170.604 40.7678 170.378 41.0136 170.117 41.2203C169.856 41.4271 169.566 41.5864 169.248 41.6982C168.929 41.8101 168.59 41.866 168.231 41.866C167.634 41.866 167.087 41.7185 166.589 41.4237C166.094 41.1254 165.697 40.717 165.399 40.1984C165.104 39.6764 164.957 39.0799 164.957 38.4088C164.957 37.7716 165.099 37.1886 165.384 36.6599C165.672 36.1278 166.075 35.7041 166.594 35.3889C167.116 35.0737 167.729 34.9211 168.434 34.9313ZM168.434 36.0498C168.007 36.0498 167.623 36.1566 167.28 36.3701C166.941 36.5802 166.672 36.865 166.472 37.2242C166.275 37.5801 166.177 37.975 166.177 38.4088C166.177 38.8427 166.272 39.2375 166.462 39.5934C166.655 39.9459 166.918 40.2272 167.25 40.4374C167.585 40.6441 167.967 40.7475 168.394 40.7475C168.716 40.7475 169.016 40.6848 169.294 40.5594C169.572 40.4306 169.814 40.256 170.021 40.0357C170.231 39.812 170.395 39.5595 170.514 39.2782C170.632 38.9935 170.692 38.6969 170.692 38.3885C170.692 37.9818 170.593 37.6004 170.397 37.2446C170.204 36.8887 169.936 36.6006 169.594 36.3803C169.255 36.16 168.868 36.0498 168.434 36.0498ZM183.632 39.4256L182.554 39.7307C182.486 39.551 182.386 39.3765 182.254 39.207C182.125 39.0342 181.949 38.8918 181.725 38.78C181.502 38.6681 181.215 38.6122 180.866 38.6122C180.388 38.6122 179.99 38.7223 179.671 38.9426C179.356 39.1596 179.199 39.4358 179.199 39.7713C179.199 40.0696 179.307 40.3052 179.524 40.478C179.741 40.6509 180.08 40.7949 180.541 40.9102L181.7 41.1949C182.398 41.3644 182.918 41.6236 183.261 41.9727C183.603 42.3185 183.774 42.7642 183.774 43.3099C183.774 43.7573 183.646 44.1572 183.388 44.5097C183.134 44.8622 182.778 45.1401 182.32 45.3435C181.863 45.5468 181.331 45.6485 180.724 45.6485C179.927 45.6485 179.268 45.4757 178.746 45.13C178.224 44.7842 177.894 44.2792 177.755 43.6149L178.894 43.3302C179.002 43.7505 179.207 44.0657 179.509 44.2758C179.814 44.486 180.212 44.591 180.704 44.591C181.263 44.591 181.707 44.4724 182.036 44.2352C182.368 43.9945 182.534 43.7064 182.534 43.3709C182.534 43.0997 182.439 42.8726 182.249 42.6896C182.059 42.5032 181.768 42.3642 181.375 42.2727L180.073 41.9677C179.358 41.7982 178.833 41.5355 178.497 41.1796C178.165 40.8204 177.999 40.3713 177.999 39.8324C177.999 39.3917 178.123 39.002 178.37 38.663C178.621 38.3241 178.961 38.058 179.392 37.8648C179.826 37.6716 180.317 37.575 180.866 37.575C181.639 37.575 182.246 37.7445 182.686 38.0834C183.13 38.4224 183.446 38.8698 183.632 39.4256ZM188.855 45.6485C188.102 45.6485 187.453 45.4825 186.907 45.1503C186.365 44.8147 185.946 44.347 185.652 43.7471C185.36 43.1438 185.214 42.4422 185.214 41.6423C185.214 40.8424 185.36 40.1374 185.652 39.5273C185.946 38.9138 186.357 38.4359 186.882 38.0936C187.411 37.7479 188.028 37.575 188.733 37.575C189.139 37.575 189.541 37.6428 189.937 37.7784C190.334 37.914 190.695 38.1343 191.02 38.4393C191.346 38.741 191.605 39.1409 191.798 39.6392C191.991 40.1374 192.088 40.7509 192.088 41.4796V41.988H186.068V40.9508H190.868C190.868 40.5102 190.78 40.1171 190.603 39.7713C190.431 39.4256 190.183 39.1528 189.861 38.9528C189.543 38.7528 189.166 38.6528 188.733 38.6528C188.255 38.6528 187.841 38.7715 187.492 39.0087C187.146 39.2426 186.88 39.5476 186.694 39.9239C186.507 40.3001 186.414 40.7034 186.414 41.1339V41.8253C186.414 42.4151 186.516 42.915 186.719 43.3251C186.926 43.7318 187.212 44.042 187.578 44.2555C187.945 44.4656 188.37 44.5707 188.855 44.5707C189.17 44.5707 189.454 44.5266 189.709 44.4385C189.966 44.347 190.188 44.2114 190.375 44.0318C190.561 43.8488 190.705 43.6217 190.807 43.3505L191.966 43.6759C191.844 44.0691 191.639 44.4148 191.351 44.7131C191.063 45.0079 190.707 45.2384 190.283 45.4045C189.86 45.5672 189.383 45.6485 188.855 45.6485ZM197.086 45.6485C196.354 45.6485 195.723 45.4757 195.194 45.13C194.666 44.7842 194.259 44.308 193.974 43.7013C193.69 43.0946 193.547 42.4015 193.547 41.6219C193.547 40.8288 193.693 40.1289 193.984 39.5222C194.279 38.9121 194.689 38.4359 195.215 38.0936C195.743 37.7479 196.36 37.575 197.065 37.575C197.614 37.575 198.109 37.6767 198.55 37.8801C198.991 38.0834 199.351 38.3681 199.633 38.7342C199.914 39.1002 200.089 39.5273 200.156 40.0154H198.957C198.865 39.6595 198.662 39.3443 198.347 39.0697C198.035 38.7918 197.614 38.6528 197.086 38.6528C196.618 38.6528 196.208 38.7749 195.855 39.0189C195.506 39.2595 195.233 39.6002 195.037 40.0408C194.844 40.478 194.747 40.9915 194.747 41.5813C194.747 42.1846 194.842 42.7099 195.032 43.1573C195.225 43.6047 195.496 43.9521 195.845 44.1996C196.198 44.447 196.611 44.5707 197.086 44.5707C197.397 44.5707 197.681 44.5165 197.935 44.408C198.189 44.2996 198.404 44.1436 198.58 43.9403C198.757 43.7369 198.882 43.4929 198.957 43.2082H200.156C200.089 43.6691 199.921 44.0843 199.653 44.4538C199.389 44.8198 199.038 45.1113 198.601 45.3282C198.167 45.5418 197.662 45.6485 197.086 45.6485ZM207.442 39.4256L206.364 39.7307C206.296 39.551 206.196 39.3765 206.064 39.207C205.935 39.0342 205.759 38.8918 205.535 38.78C205.312 38.6681 205.025 38.6122 204.676 38.6122C204.198 38.6122 203.8 38.7223 203.481 38.9426C203.166 39.1596 203.009 39.4358 203.009 39.7713C203.009 40.0696 203.117 40.3052 203.334 40.478C203.551 40.6509 203.89 40.7949 204.351 40.9102L205.51 41.1949C206.208 41.3644 206.728 41.6236 207.071 41.9727C207.413 42.3185 207.584 42.7642 207.584 43.3099C207.584 43.7573 207.455 44.1572 207.198 44.5097C206.944 44.8622 206.588 45.1401 206.13 45.3435C205.673 45.5468 205.141 45.6485 204.534 45.6485C203.737 45.6485 203.078 45.4757 202.556 45.13C202.034 44.7842 201.704 44.2792 201.565 43.6149L202.704 43.3302C202.812 43.7505 203.017 44.0657 203.319 44.2758C203.624 44.486 204.022 44.591 204.514 44.591C205.073 44.591 205.517 44.4724 205.846 44.2352C206.178 43.9945 206.344 43.7064 206.344 43.3709C206.344 43.0997 206.249 42.8726 206.059 42.6896C205.869 42.5032 205.578 42.3642 205.185 42.2727L203.883 41.9677C203.168 41.7982 202.643 41.5355 202.307 41.1796C201.975 40.8204 201.809 40.3713 201.809 39.8324C201.809 39.3917 201.932 39.002 202.18 38.663C202.431 38.3241 202.771 38.058 203.202 37.8648C203.636 37.6716 204.127 37.575 204.676 37.575C205.449 37.575 206.056 37.7445 206.496 38.0834C206.94 38.4224 207.256 38.8698 207.442 39.4256ZM210.265 45.5672C210.014 45.5672 209.799 45.4774 209.619 45.2977C209.44 45.1181 209.35 44.9029 209.35 44.6521C209.35 44.4012 209.44 44.186 209.619 44.0064C209.799 43.8267 210.014 43.7369 210.265 43.7369C210.516 43.7369 210.731 43.8267 210.911 44.0064C211.09 44.186 211.18 44.4012 211.18 44.6521C211.18 44.8181 211.138 44.9707 211.053 45.1096C210.972 45.2486 210.861 45.3604 210.722 45.4452C210.587 45.5265 210.434 45.5672 210.265 45.5672Z" fill="#475569"/>
<path d="M95.7919 59.1518C95.7309 58.6366 95.4835 58.2367 95.0496 57.952C94.6158 57.6673 94.0837 57.5249 93.4533 57.5249C92.9923 57.5249 92.589 57.5995 92.2432 57.7486C91.9009 57.8977 91.6332 58.1028 91.44 58.3638C91.2502 58.6248 91.1553 58.9213 91.1553 59.2535C91.1553 59.5314 91.2213 59.7704 91.3535 59.9703C91.4891 60.1669 91.662 60.3313 91.8721 60.4635C92.0822 60.5923 92.3026 60.6991 92.533 60.7838C92.7635 60.8651 92.9753 60.9312 93.1685 60.9821L94.226 61.2668C94.4972 61.338 94.7988 61.4362 95.131 61.5617C95.4665 61.6871 95.7868 61.8582 96.0919 62.0751C96.4003 62.2887 96.6545 62.5632 96.8545 62.8988C97.0545 63.2343 97.1545 63.6461 97.1545 64.1342C97.1545 64.6968 97.007 65.2052 96.7121 65.6594C96.4207 66.1136 95.9936 66.4746 95.431 66.7423C94.8717 67.0101 94.1921 67.144 93.3922 67.144C92.6466 67.144 92.0009 67.0236 91.4552 66.783C90.9129 66.5423 90.4858 66.2068 90.174 65.7763C89.8656 65.3459 89.691 64.846 89.6504 64.2765H90.9519C90.9858 64.6697 91.118 64.9951 91.3484 65.2527C91.5823 65.5069 91.8772 65.6967 92.2331 65.8221C92.5923 65.9441 92.9787 66.0051 93.3922 66.0051C93.8735 66.0051 94.3057 65.9272 94.6887 65.7713C95.0717 65.612 95.375 65.3917 95.5987 65.1103C95.8224 64.8256 95.9343 64.4935 95.9343 64.1139C95.9343 63.7681 95.8377 63.4868 95.6445 63.2699C95.4513 63.053 95.1971 62.8767 94.8819 62.7412C94.5667 62.6056 94.226 62.487 93.86 62.3853L92.5788 62.0192C91.7653 61.7854 91.1214 61.4515 90.6468 61.0177C90.1723 60.5838 89.9351 60.0161 89.9351 59.3145C89.9351 58.7315 90.0927 58.2231 90.4079 57.7893C90.7265 57.352 91.1536 57.0131 91.6891 56.7725C92.228 56.5284 92.8296 56.4064 93.4939 56.4064C94.165 56.4064 94.7616 56.5267 95.2835 56.7674C95.8055 57.0046 96.219 57.33 96.524 57.7435C96.8325 58.157 96.9952 58.6265 97.0121 59.1518H95.7919ZM102.237 67.1236C101.505 67.1236 100.875 66.9508 100.346 66.6051C99.8172 66.2593 99.4105 65.7831 99.1258 65.1764C98.8411 64.5697 98.6987 63.8766 98.6987 63.097C98.6987 62.3039 98.8445 61.604 99.136 60.9973C99.4308 60.3872 99.841 59.911 100.366 59.5687C100.895 59.223 101.512 59.0501 102.217 59.0501C102.766 59.0501 103.261 59.1518 103.701 59.3552C104.142 59.5585 104.503 59.8432 104.784 60.2093C105.066 60.5753 105.24 61.0024 105.308 61.4905H104.108C104.017 61.1346 103.813 60.8194 103.498 60.5448C103.186 60.2669 102.766 60.1279 102.237 60.1279C101.77 60.1279 101.359 60.25 101.007 60.494C100.658 60.7346 100.385 61.0753 100.188 61.5159C99.9952 61.9531 99.8986 62.4666 99.8986 63.0564C99.8986 63.6597 99.9935 64.185 100.183 64.6324C100.376 65.0798 100.648 65.4272 100.997 65.6747C101.349 65.9221 101.763 66.0458 102.237 66.0458C102.549 66.0458 102.832 65.9916 103.086 65.8831C103.34 65.7747 103.556 65.6187 103.732 65.4154C103.908 65.212 104.034 64.968 104.108 64.6833H105.308C105.24 65.1442 105.072 65.5594 104.805 65.9289C104.54 66.2949 104.19 66.5864 103.752 66.8033C103.318 67.0169 102.813 67.1236 102.237 67.1236ZM110.234 67.1236C109.53 67.1236 108.911 66.9559 108.379 66.6203C107.85 66.2848 107.437 65.8153 107.138 65.212C106.843 64.6087 106.696 63.9037 106.696 63.097C106.696 62.2836 106.843 61.5735 107.138 60.9668C107.437 60.3601 107.85 59.889 108.379 59.5534C108.911 59.2179 109.53 59.0501 110.234 59.0501C110.939 59.0501 111.556 59.2179 112.085 59.5534C112.617 59.889 113.031 60.3601 113.326 60.9668C113.624 61.5735 113.773 62.2836 113.773 63.097C113.773 63.9037 113.624 64.6087 113.326 65.212C113.031 65.8153 112.617 66.2848 112.085 66.6203C111.556 66.9559 110.939 67.1236 110.234 67.1236ZM110.234 66.0458C110.77 66.0458 111.211 65.9085 111.556 65.634C111.902 65.3595 112.158 64.9985 112.324 64.5511C112.49 64.1037 112.573 63.619 112.573 63.097C112.573 62.5751 112.49 62.0887 112.324 61.6379C112.158 61.1871 111.902 60.8228 111.556 60.5448C111.211 60.2669 110.77 60.1279 110.234 60.1279C109.699 60.1279 109.258 60.2669 108.913 60.5448C108.567 60.8228 108.311 61.1871 108.145 61.6379C107.979 62.0887 107.896 62.5751 107.896 63.097C107.896 63.619 107.979 64.1037 108.145 64.5511C108.311 64.9985 108.567 65.3595 108.913 65.634C109.258 65.9085 109.699 66.0458 110.234 66.0458ZM115.605 66.9609V59.1518H116.764V60.3313H116.845C116.987 59.9449 117.245 59.6314 117.618 59.3908C117.991 59.1501 118.411 59.0298 118.879 59.0298C118.967 59.0298 119.077 59.0315 119.209 59.0349C119.341 59.0383 119.441 59.0433 119.509 59.0501V60.2703C119.468 60.2601 119.375 60.2449 119.229 60.2245C119.087 60.2008 118.936 60.189 118.777 60.189C118.397 60.189 118.058 60.2686 117.76 60.4279C117.465 60.5838 117.231 60.8007 117.059 61.0787C116.889 61.3532 116.804 61.6667 116.804 62.0192V66.9609H115.605ZM123.968 67.1236C123.215 67.1236 122.566 66.9575 122.021 66.6254C121.478 66.2898 121.06 65.8221 120.765 65.2222C120.473 64.6189 120.328 63.9173 120.328 63.1174C120.328 62.3175 120.473 61.6125 120.765 61.0024C121.06 60.3889 121.47 59.911 121.995 59.5687C122.524 59.223 123.141 59.0501 123.846 59.0501C124.253 59.0501 124.654 59.1179 125.051 59.2535C125.447 59.3891 125.808 59.6094 126.134 59.9144C126.459 60.2161 126.718 60.616 126.912 61.1143C127.105 61.6125 127.201 62.226 127.201 62.9547V63.4631H121.182V62.4259H125.981C125.981 61.9853 125.893 61.5922 125.717 61.2464C125.544 60.9007 125.296 60.6279 124.974 60.4279C124.656 60.2279 124.28 60.1279 123.846 60.1279C123.368 60.1279 122.954 60.2466 122.605 60.4838C122.26 60.7177 121.994 61.0227 121.807 61.399C121.621 61.7752 121.527 62.1785 121.527 62.609V63.3004C121.527 63.8902 121.629 64.3901 121.833 64.8002C122.039 65.2069 122.326 65.5171 122.692 65.7306C123.058 65.9407 123.483 66.0458 123.968 66.0458C124.283 66.0458 124.568 66.0017 124.822 65.9136C125.08 65.8221 125.302 65.6865 125.488 65.5069C125.674 65.3239 125.818 65.0968 125.92 64.8256L127.079 65.151C126.957 65.5442 126.752 65.8899 126.464 66.1882C126.176 66.483 125.82 66.7135 125.396 66.8796C124.973 67.0423 124.497 67.1236 123.968 67.1236ZM133.928 65.6289C133.677 65.6289 133.461 65.5391 133.282 65.3595C133.102 65.1798 133.012 64.9646 133.012 64.7138C133.012 64.463 133.102 64.2477 133.282 64.0681C133.461 63.8885 133.677 63.7986 133.928 63.7986C134.178 63.7986 134.394 63.8885 134.573 64.0681C134.753 64.2477 134.843 64.463 134.843 64.7138C134.843 64.8799 134.8 65.0324 134.716 65.1713C134.634 65.3103 134.524 65.4222 134.385 65.5069C134.25 65.5882 134.097 65.6289 133.928 65.6289ZM133.928 60.3618C133.677 60.3618 133.461 60.272 133.282 60.0924C133.102 59.9127 133.012 59.6975 133.012 59.4467C133.012 59.1959 133.102 58.9806 133.282 58.801C133.461 58.6214 133.677 58.5315 133.928 58.5315C134.178 58.5315 134.394 58.6214 134.573 58.801C134.753 58.9806 134.843 59.1959 134.843 59.4467C134.843 59.6128 134.8 59.7653 134.716 59.9042C134.634 60.0432 134.524 60.1551 134.385 60.2398C134.25 60.3211 134.097 60.3618 133.928 60.3618ZM144.337 67.1033C143.639 67.1033 143.022 66.9796 142.487 66.7322C141.954 66.4813 141.539 66.1373 141.241 65.7001C140.943 65.2595 140.795 64.7578 140.799 64.1952C140.795 63.7546 140.882 63.3479 141.058 62.975C141.234 62.5988 141.475 62.2853 141.78 62.0345C142.088 61.7803 142.432 61.6193 142.812 61.5515V61.4905C142.314 61.3617 141.917 61.0821 141.622 60.6516C141.327 60.2178 141.182 59.7246 141.185 59.1721C141.182 58.6434 141.316 58.1706 141.587 57.7537C141.858 57.3368 142.231 57.008 142.705 56.7674C143.183 56.5267 143.727 56.4064 144.337 56.4064C144.94 56.4064 145.479 56.5267 145.954 56.7674C146.428 57.008 146.801 57.3368 147.072 57.7537C147.347 58.1706 147.486 58.6434 147.489 59.1721C147.486 59.7246 147.335 60.2178 147.037 60.6516C146.742 61.0821 146.35 61.3617 145.862 61.4905V61.5515C146.239 61.6193 146.578 61.7803 146.879 62.0345C147.181 62.2853 147.422 62.5988 147.601 62.975C147.781 63.3479 147.872 63.7546 147.876 64.1952C147.872 64.7578 147.72 65.2595 147.418 65.7001C147.12 66.1373 146.705 66.4813 146.173 66.7322C145.644 66.9796 145.032 67.1033 144.337 67.1033ZM144.337 65.9848C144.808 65.9848 145.215 65.9085 145.557 65.756C145.9 65.6035 146.164 65.3883 146.35 65.1103C146.537 64.8324 146.632 64.507 146.635 64.1342C146.632 63.741 146.53 63.3936 146.33 63.092C146.13 62.7903 145.857 62.553 145.512 62.3802C145.169 62.2073 144.778 62.1209 144.337 62.1209C143.893 62.1209 143.497 62.2073 143.147 62.3802C142.802 62.553 142.529 62.7903 142.329 63.092C142.132 63.3936 142.036 63.741 142.039 64.1342C142.036 64.507 142.126 64.8324 142.309 65.1103C142.495 65.3883 142.761 65.6035 143.107 65.756C143.453 65.9085 143.863 65.9848 144.337 65.9848ZM144.337 61.0431C144.71 61.0431 145.04 60.9685 145.329 60.8194C145.62 60.6702 145.849 60.4618 146.015 60.194C146.181 59.9263 146.266 59.6128 146.269 59.2535C146.266 58.901 146.183 58.5943 146.02 58.3333C145.857 58.0689 145.632 57.8655 145.344 57.7232C145.056 57.5774 144.72 57.5046 144.337 57.5046C143.947 57.5046 143.607 57.5774 143.315 57.7232C143.024 57.8655 142.798 58.0689 142.639 58.3333C142.48 58.5943 142.402 58.901 142.405 59.2535C142.402 59.6128 142.481 59.9263 142.644 60.194C142.81 60.4618 143.039 60.6702 143.331 60.8194C143.622 60.9685 143.958 61.0431 144.337 61.0431ZM150.15 66.9609L154.807 57.7486V57.6673H149.438V56.5488H156.108V57.7283L151.471 66.9609H150.15ZM157.108 67.0423C156.858 67.0423 156.642 66.9525 156.463 66.7728C156.283 66.5932 156.193 66.378 156.193 66.1271C156.193 65.8763 156.283 65.6611 156.463 65.4815C156.642 65.3018 156.858 65.212 157.108 65.212C157.359 65.212 157.574 65.3018 157.754 65.4815C157.934 65.6611 158.023 65.8763 158.023 66.1271C158.023 66.2932 157.981 66.4458 157.896 66.5847C157.815 66.7237 157.705 66.8355 157.566 66.9203C157.43 67.0016 157.278 67.0423 157.108 67.0423ZM163.25 67.1033C162.823 67.0965 162.396 67.0152 161.969 66.8593C161.542 66.7033 161.152 66.4407 160.799 66.0712C160.447 65.6984 160.164 65.1951 159.95 64.5613C159.737 63.9241 159.63 63.1242 159.63 62.1616C159.63 61.2397 159.716 60.4228 159.889 59.7111C160.062 58.9959 160.313 58.3943 160.642 57.9062C160.971 57.4147 161.367 57.0419 161.831 56.7877C162.299 56.5335 162.826 56.4064 163.413 56.4064C163.996 56.4064 164.514 56.5233 164.968 56.7572C165.426 56.9877 165.799 57.3097 166.087 57.7232C166.375 58.1367 166.561 58.6129 166.646 59.1518H165.406C165.29 58.6841 165.067 58.296 164.734 57.9876C164.402 57.6791 163.962 57.5249 163.413 57.5249C162.606 57.5249 161.97 57.8757 161.506 58.5773C161.045 59.2789 160.813 60.2635 160.81 61.5311H160.891C161.081 61.2431 161.306 60.9973 161.567 60.794C161.831 60.5872 162.123 60.4279 162.442 60.3161C162.76 60.2042 163.097 60.1483 163.453 60.1483C164.05 60.1483 164.595 60.2974 165.09 60.5957C165.585 60.8906 165.982 61.299 166.28 61.8209C166.578 62.3395 166.727 62.9344 166.727 63.6055C166.727 64.2494 166.583 64.8392 166.295 65.3747C166.007 65.9068 165.602 66.3305 165.08 66.6457C164.562 66.9575 163.952 67.1101 163.25 67.1033ZM163.25 65.9848C163.677 65.9848 164.06 65.878 164.399 65.6645C164.741 65.451 165.011 65.1646 165.207 64.8053C165.407 64.446 165.507 64.0461 165.507 63.6055C165.507 63.175 165.411 62.7835 165.217 62.431C165.028 62.0751 164.765 61.7921 164.429 61.582C164.097 61.3718 163.718 61.2668 163.291 61.2668C162.969 61.2668 162.669 61.3312 162.391 61.46C162.113 61.5854 161.869 61.7582 161.659 61.9785C161.452 62.1989 161.289 62.4514 161.171 62.7361C161.052 63.0174 160.993 63.314 160.993 63.6258C160.993 64.0393 161.089 64.4257 161.282 64.785C161.479 65.1442 161.747 65.434 162.086 65.6543C162.428 65.8746 162.816 65.9848 163.25 65.9848ZM172.184 67.1033C171.757 67.0965 171.33 67.0152 170.903 66.8593C170.476 66.7033 170.086 66.4407 169.733 66.0712C169.381 65.6984 169.098 65.1951 168.884 64.5613C168.671 63.9241 168.564 63.1242 168.564 62.1616C168.564 61.2397 168.65 60.4228 168.823 59.7111C168.996 58.9959 169.247 58.3943 169.576 57.9062C169.905 57.4147 170.301 57.0419 170.765 56.7877C171.233 56.5335 171.76 56.4064 172.347 56.4064C172.93 56.4064 173.448 56.5233 173.902 56.7572C174.36 56.9877 174.733 57.3097 175.021 57.7232C175.309 58.1367 175.495 58.6129 175.58 59.1518H174.34C174.224 58.6841 174.001 58.296 173.668 57.9876C173.336 57.6791 172.896 57.5249 172.347 57.5249C171.54 57.5249 170.904 57.8757 170.44 58.5773C169.979 59.2789 169.747 60.2635 169.744 61.5311H169.825C170.015 61.2431 170.24 60.9973 170.501 60.794C170.765 60.5872 171.057 60.4279 171.376 60.3161C171.694 60.2042 172.031 60.1483 172.387 60.1483C172.984 60.1483 173.529 60.2974 174.024 60.5957C174.519 60.8906 174.916 61.299 175.214 61.8209C175.512 62.3395 175.661 62.9344 175.661 63.6055C175.661 64.2494 175.517 64.8392 175.229 65.3747C174.941 65.9068 174.536 66.3305 174.014 66.6457C173.496 66.9575 172.885 67.1101 172.184 67.1033ZM172.184 65.9848C172.611 65.9848 172.994 65.878 173.333 65.6645C173.675 65.451 173.945 65.1646 174.141 64.8053C174.341 64.446 174.441 64.0461 174.441 63.6055C174.441 63.175 174.345 62.7835 174.151 62.431C173.962 62.0751 173.699 61.7921 173.363 61.582C173.031 61.3718 172.652 61.2668 172.225 61.2668C171.903 61.2668 171.603 61.3312 171.325 61.46C171.047 61.5854 170.803 61.7582 170.593 61.9785C170.386 62.1989 170.223 62.4514 170.105 62.7361C169.986 63.0174 169.927 63.314 169.927 63.6258C169.927 64.0393 170.023 64.4257 170.216 64.785C170.413 65.1442 170.681 65.434 171.02 65.6543C171.362 65.8746 171.75 65.9848 172.184 65.9848Z" fill="#475569"/>
</g>
<path d="M10 169.357H2.56273V166.844C2.56273 166.263 2.66199 165.786 2.86051 165.413C3.05661 165.041 3.32655 164.765 3.67033 164.585C4.01411 164.406 4.4051 164.317 4.8433 164.317C5.2815 164.317 5.67007 164.406 6.009 164.585C6.34794 164.765 6.61425 165.039 6.80793 165.41C6.99919 165.78 7.09482 166.254 7.09482 166.83V168.863H6.28137V166.859C6.28137 166.462 6.22326 166.142 6.10705 165.9C5.99085 165.656 5.82622 165.479 5.61317 165.37C5.39771 165.258 5.14108 165.203 4.8433 165.203C4.54552 165.203 4.28526 165.258 4.06253 165.37C3.8398 165.481 3.66791 165.659 3.54686 165.904C3.42339 166.148 3.36166 166.471 3.36166 166.873V168.457H10V169.357ZM6.65904 165.856L10 164.026V165.072L6.65904 166.873V165.856ZM10.1162 160.653C10.1162 161.191 9.99758 161.655 9.76032 162.044C9.52064 162.432 9.18655 162.731 8.75803 162.941C8.3271 163.149 7.82595 163.254 7.2546 163.254C6.68325 163.254 6.17968 163.149 5.74391 162.941C5.30571 162.731 4.96435 162.438 4.71983 162.062C4.47289 161.685 4.34942 161.244 4.34942 160.741C4.34942 160.45 4.39784 160.163 4.49468 159.88C4.59152 159.597 4.74888 159.339 4.96677 159.106C5.18224 158.874 5.46791 158.689 5.8238 158.551C6.17968 158.413 6.61788 158.344 7.13839 158.344H7.50154V162.644H6.76072V159.215C6.44599 159.215 6.16516 159.278 5.91822 159.404C5.67128 159.528 5.47639 159.704 5.33355 159.934C5.19071 160.162 5.11929 160.431 5.11929 160.741C5.11929 161.082 5.20403 161.377 5.3735 161.627C5.54054 161.874 5.75843 162.064 6.02716 162.197C6.29589 162.33 6.58399 162.397 6.89145 162.397H7.38534C7.80659 162.397 8.16368 162.324 8.45662 162.179C8.74714 162.031 8.96866 161.826 9.12118 161.565C9.27128 161.303 9.34633 161 9.34633 160.653C9.34633 160.428 9.31486 160.225 9.25192 160.043C9.18655 159.859 9.08971 159.701 8.9614 159.568C8.83066 159.434 8.66846 159.332 8.47478 159.259L8.70719 158.431C8.98803 158.518 9.23497 158.665 9.44802 158.87C9.65864 159.076 9.82327 159.33 9.9419 159.633C10.0581 159.936 10.1162 160.276 10.1162 160.653ZM10.1162 154.774C10.1162 155.297 9.99274 155.747 9.7458 156.125C9.49886 156.503 9.15871 156.793 8.72535 156.997C8.29199 157.2 7.7969 157.302 7.24008 157.302C6.67357 157.302 6.17363 157.198 5.74027 156.989C5.3045 156.779 4.96435 156.486 4.71983 156.11C4.47289 155.733 4.34942 155.292 4.34942 154.789C4.34942 154.396 4.42205 154.043 4.56731 153.728C4.71257 153.413 4.91593 153.156 5.1774 152.955C5.43886 152.754 5.74391 152.629 6.09253 152.581V153.438C5.83832 153.503 5.61317 153.648 5.41707 153.873C5.21855 154.096 5.11929 154.396 5.11929 154.774C5.11929 155.108 5.20645 155.401 5.38076 155.653C5.55265 155.902 5.79596 156.097 6.11069 156.238C6.42299 156.376 6.78977 156.445 7.21102 156.445C7.64196 156.445 8.01721 156.377 8.33678 156.241C8.65635 156.103 8.9045 155.91 9.08124 155.66C9.25797 155.408 9.34633 155.113 9.34633 154.774C9.34633 154.551 9.3076 154.349 9.23013 154.168C9.15265 153.986 9.04129 153.832 8.89603 153.706C8.75077 153.581 8.57646 153.491 8.3731 153.438V152.581C8.70235 152.629 8.99892 152.749 9.26281 152.94C9.52428 153.129 9.73248 153.38 9.88742 153.692C10.0399 154.002 10.1162 154.363 10.1162 154.774ZM10.1307 149.686C10.1307 150.04 10.0642 150.361 9.931 150.649C9.79543 150.937 9.60054 151.166 9.34633 151.335C9.08971 151.505 8.77982 151.589 8.41668 151.589C8.0971 151.589 7.83806 151.526 7.63954 151.4C7.4386 151.275 7.28123 151.106 7.16745 150.896C7.05366 150.685 6.96893 150.453 6.91324 150.198C6.85514 149.942 6.80914 149.684 6.77525 149.425C6.73167 149.086 6.69899 148.811 6.6772 148.601C6.65299 148.388 6.61304 148.233 6.55736 148.136C6.50168 148.036 6.40484 147.987 6.26684 147.987H6.23779C5.87948 147.987 5.60107 148.085 5.40255 148.281C5.20403 148.475 5.10477 148.769 5.10477 149.163C5.10477 149.573 5.19434 149.893 5.3735 150.126C5.55265 150.358 5.74391 150.522 5.94727 150.616L5.65675 151.43C5.31781 151.284 5.05393 151.091 4.86509 150.848C4.67383 150.604 4.54068 150.338 4.46563 150.05C4.38815 149.759 4.34942 149.473 4.34942 149.193C4.34942 149.013 4.37121 148.808 4.41478 148.575C4.45594 148.34 4.54189 148.114 4.67262 147.896C4.80335 147.676 5.00066 147.493 5.26455 147.348C5.52844 147.202 5.8819 147.13 6.32494 147.13H10V147.987H9.24465V148.03C9.3657 148.089 9.49522 148.185 9.63322 148.321C9.77122 148.457 9.88863 148.637 9.98547 148.862C10.0823 149.087 10.1307 149.362 10.1307 149.686ZM9.36086 149.556C9.36086 149.217 9.29428 148.931 9.16113 148.699C9.02797 148.464 8.85608 148.287 8.64546 148.168C8.43483 148.047 8.21331 147.987 7.9809 147.987H7.1965C7.24008 148.023 7.28002 148.103 7.31634 148.227C7.35023 148.348 7.38049 148.488 7.40712 148.648C7.43133 148.805 7.45312 148.959 7.47249 149.109C7.48944 149.257 7.50396 149.377 7.51607 149.469C7.54512 149.691 7.59233 149.899 7.6577 150.093C7.72064 150.284 7.81627 150.439 7.94458 150.558C8.07047 150.674 8.24236 150.732 8.46025 150.732C8.75803 150.732 8.98319 150.622 9.13571 150.402C9.28581 150.179 9.36086 149.897 9.36086 149.556ZM2.56273 144.709H10V145.566H2.56273L2.56273 144.709ZM2.56273 142.282H10V143.139H2.56273V142.282ZM4.42205 133.653C4.05406 133.696 3.76838 133.873 3.56502 134.183C3.36166 134.493 3.25997 134.873 3.25997 135.323C3.25997 135.652 3.31324 135.94 3.41976 136.187C3.52628 136.432 3.67275 136.623 3.85917 136.761C4.04558 136.897 4.25742 136.964 4.49468 136.964C4.6932 136.964 4.86388 136.917 5.00672 136.823C5.14713 136.726 5.26455 136.602 5.35897 136.452C5.45097 136.302 5.52723 136.145 5.58775 135.98C5.64586 135.816 5.69307 135.664 5.72938 135.526L5.93274 134.771C5.98358 134.577 6.05379 134.362 6.14337 134.125C6.23295 133.885 6.35521 133.656 6.51015 133.438C6.66267 133.218 6.85877 133.036 7.09845 132.894C7.33813 132.751 7.63228 132.679 7.9809 132.679C8.38278 132.679 8.74593 132.785 9.07034 132.995C9.39475 133.203 9.65259 133.508 9.84385 133.91C10.0351 134.31 10.1307 134.795 10.1307 135.367C10.1307 135.899 10.0448 136.36 9.8729 136.75C9.70101 137.138 9.46133 137.443 9.15387 137.665C8.8464 137.886 8.4893 138.01 8.08258 138.039V137.11C8.36341 137.085 8.59583 136.991 8.77982 136.826C8.9614 136.659 9.09697 136.449 9.18655 136.195C9.2737 135.938 9.31728 135.662 9.31728 135.367C9.31728 135.023 9.2616 134.714 9.15023 134.441C9.03645 134.167 8.87908 133.95 8.67814 133.79C8.47478 133.631 8.23752 133.551 7.96637 133.551C7.71943 133.551 7.51849 133.62 7.36355 133.758C7.2086 133.896 7.08271 134.077 6.98587 134.303C6.88903 134.528 6.8043 134.771 6.73167 135.032L6.4702 135.948C6.30315 136.529 6.06469 136.989 5.7548 137.328C5.44491 137.666 5.0394 137.836 4.53826 137.836C4.12185 137.836 3.7587 137.723 3.44881 137.498C3.1365 137.271 2.89441 136.966 2.72252 136.583C2.5482 136.198 2.46105 135.768 2.46105 135.294C2.46105 134.815 2.54699 134.388 2.71888 134.016C2.88835 133.643 3.12077 133.347 3.41613 133.13C3.71149 132.909 4.0468 132.793 4.42205 132.781V133.653ZM10.1162 129.049C10.1162 129.572 9.99274 130.022 9.7458 130.4C9.49886 130.777 9.15871 131.068 8.72535 131.271C8.29199 131.475 7.7969 131.576 7.24008 131.576C6.67357 131.576 6.17363 131.472 5.74027 131.264C5.3045 131.053 4.96435 130.76 4.71983 130.385C4.47289 130.007 4.34942 129.567 4.34942 129.063C4.34942 128.671 4.42205 128.318 4.56731 128.003C4.71257 127.688 4.91593 127.43 5.1774 127.229C5.43886 127.028 5.74391 126.904 6.09253 126.855V127.712C5.83832 127.778 5.61317 127.923 5.41707 128.148C5.21855 128.371 5.11929 128.671 5.11929 129.049C5.11929 129.383 5.20645 129.676 5.38076 129.928C5.55265 130.177 5.79596 130.372 6.11069 130.512C6.42299 130.65 6.78977 130.719 7.21102 130.719C7.64196 130.719 8.01721 130.651 8.33678 130.516C8.65635 130.378 8.9045 130.184 9.08124 129.935C9.25797 129.683 9.34633 129.388 9.34633 129.049C9.34633 128.826 9.3076 128.624 9.23013 128.442C9.15265 128.261 9.04129 128.107 8.89603 127.981C8.75077 127.855 8.57646 127.766 8.3731 127.712V126.855C8.70235 126.904 8.99892 127.024 9.26281 127.215C9.52428 127.404 9.73248 127.654 9.88742 127.967C10.0399 128.276 10.1162 128.637 10.1162 129.049ZM10.1162 123.336C10.1162 123.84 9.99637 124.282 9.75669 124.662C9.51701 125.04 9.18171 125.335 8.75077 125.548C8.31984 125.759 7.81627 125.864 7.24008 125.864C6.65904 125.864 6.15184 125.759 5.71849 125.548C5.28513 125.335 4.94861 125.04 4.70894 124.662C4.46926 124.282 4.34942 123.84 4.34942 123.336C4.34942 122.833 4.46926 122.392 4.70894 122.015C4.94861 121.634 5.28513 121.339 5.71849 121.128C6.15184 120.915 6.65904 120.809 7.24008 120.809C7.81627 120.809 8.31984 120.915 8.75077 121.128C9.18171 121.339 9.51701 121.634 9.75669 122.015C9.99637 122.392 10.1162 122.833 10.1162 123.336ZM9.34633 123.336C9.34633 122.954 9.24828 122.639 9.05218 122.392C8.85608 122.145 8.59825 121.962 8.27868 121.844C7.95911 121.725 7.61291 121.666 7.24008 121.666C6.86724 121.666 6.51983 121.725 6.19784 121.844C5.87585 121.962 5.61559 122.145 5.41707 122.392C5.21855 122.639 5.11929 122.954 5.11929 123.336C5.11929 123.719 5.21855 124.034 5.41707 124.281C5.61559 124.528 5.87585 124.71 6.19784 124.829C6.51983 124.948 6.86724 125.007 7.24008 125.007C7.61291 125.007 7.95911 124.948 8.27868 124.829C8.59825 124.71 8.85608 124.528 9.05218 124.281C9.24828 124.034 9.34633 123.719 9.34633 123.336ZM10 119.501H4.42205L4.42205 118.673H5.26455V118.615C4.98856 118.513 4.76462 118.329 4.59273 118.063C4.42084 117.796 4.33489 117.496 4.33489 117.162C4.33489 117.099 4.3361 117.02 4.33852 116.926C4.34094 116.831 4.34458 116.76 4.34942 116.712H5.22097C5.21371 116.741 5.20282 116.807 5.18829 116.911C5.17134 117.013 5.16287 117.121 5.16287 117.235C5.16287 117.506 5.21976 117.748 5.33355 117.961C5.44491 118.172 5.59986 118.339 5.79838 118.462C5.99448 118.583 6.21842 118.644 6.4702 118.644H10V119.501ZM10.1162 113.527C10.1162 114.064 9.99758 114.528 9.76032 114.918C9.52064 115.305 9.18655 115.604 8.75803 115.815C8.3271 116.023 7.82595 116.127 7.2546 116.127C6.68325 116.127 6.17968 116.023 5.74391 115.815C5.30571 115.604 4.96435 115.311 4.71983 114.936C4.47289 114.558 4.34942 114.118 4.34942 113.614C4.34942 113.323 4.39784 113.037 4.49468 112.753C4.59152 112.47 4.74888 112.212 4.96677 111.98C5.18224 111.747 5.46791 111.562 5.8238 111.424C6.17968 111.286 6.61788 111.217 7.13839 111.217H7.50154V115.517H6.76072V112.089C6.44599 112.089 6.16516 112.152 5.91822 112.278C5.67128 112.401 5.47639 112.578 5.33355 112.808C5.19071 113.035 5.11929 113.304 5.11929 113.614C5.11929 113.955 5.20403 114.251 5.3735 114.5C5.54054 114.747 5.75843 114.937 6.02716 115.07C6.29589 115.203 6.58399 115.27 6.89145 115.27H7.38534C7.80659 115.27 8.16368 115.197 8.45662 115.052C8.74714 114.904 8.96866 114.7 9.12118 114.438C9.27128 114.177 9.34633 113.873 9.34633 113.527C9.34633 113.302 9.31486 113.098 9.25192 112.917C9.18655 112.733 9.08971 112.574 8.9614 112.441C8.83066 112.308 8.66846 112.205 8.47478 112.132L8.70719 111.304C8.98803 111.392 9.23497 111.538 9.44802 111.744C9.65864 111.95 9.82327 112.204 9.9419 112.506C10.0581 112.809 10.1162 113.149 10.1162 113.527Z" fill="#1E293B"/>
<path d="M214.606 248.309C214.562 247.941 214.385 247.655 214.075 247.452C213.765 247.248 213.385 247.147 212.935 247.147C212.606 247.147 212.318 247.2 212.071 247.306C211.826 247.413 211.635 247.559 211.497 247.746C211.361 247.932 211.294 248.144 211.294 248.381C211.294 248.58 211.341 248.751 211.435 248.893C211.532 249.034 211.656 249.151 211.806 249.246C211.956 249.338 212.113 249.414 212.278 249.474C212.442 249.533 212.594 249.58 212.732 249.616L213.487 249.819C213.681 249.87 213.896 249.941 214.133 250.03C214.373 250.12 214.602 250.242 214.82 250.397C215.04 250.549 215.222 250.745 215.365 250.985C215.507 251.225 215.579 251.519 215.579 251.868C215.579 252.27 215.473 252.633 215.263 252.957C215.055 253.281 214.75 253.539 214.348 253.731C213.948 253.922 213.463 254.017 212.892 254.017C212.359 254.017 211.898 253.932 211.508 253.76C211.121 253.588 210.816 253.348 210.593 253.041C210.372 252.733 210.248 252.376 210.219 251.969H211.148C211.173 252.25 211.267 252.483 211.432 252.667C211.599 252.848 211.809 252.984 212.064 253.073C212.32 253.16 212.596 253.204 212.892 253.204C213.235 253.204 213.544 253.148 213.818 253.037C214.091 252.923 214.308 252.766 214.468 252.565C214.627 252.361 214.707 252.124 214.707 251.853C214.707 251.606 214.638 251.405 214.5 251.25C214.362 251.095 214.181 250.969 213.956 250.873C213.73 250.776 213.487 250.691 213.226 250.618L212.31 250.357C211.729 250.19 211.269 249.951 210.931 249.642C210.592 249.332 210.422 248.926 210.422 248.425C210.422 248.009 210.535 247.645 210.76 247.336C210.987 247.023 211.292 246.781 211.675 246.609C212.06 246.435 212.49 246.348 212.964 246.348C213.443 246.348 213.87 246.434 214.242 246.606C214.615 246.775 214.911 247.007 215.128 247.303C215.349 247.598 215.465 247.934 215.477 248.309H214.606ZM219.282 254.003C218.745 254.003 218.281 253.884 217.891 253.647C217.504 253.407 217.205 253.073 216.994 252.645C216.786 252.214 216.682 251.713 216.682 251.141C216.682 250.57 216.786 250.066 216.994 249.631C217.205 249.192 217.498 248.851 217.873 248.607C218.251 248.36 218.691 248.236 219.195 248.236C219.485 248.236 219.772 248.285 220.056 248.381C220.339 248.478 220.597 248.636 220.829 248.853C221.061 249.069 221.247 249.355 221.385 249.711C221.523 250.066 221.592 250.505 221.592 251.025V251.388H217.292V250.647H220.72C220.72 250.333 220.657 250.052 220.531 249.805C220.408 249.558 220.231 249.363 220.001 249.22C219.773 249.077 219.505 249.006 219.195 249.006C218.853 249.006 218.558 249.091 218.309 249.26C218.062 249.427 217.872 249.645 217.739 249.914C217.605 250.183 217.539 250.471 217.539 250.778V251.272C217.539 251.693 217.612 252.05 217.757 252.343C217.904 252.634 218.109 252.855 218.37 253.008C218.632 253.158 218.936 253.233 219.282 253.233C219.507 253.233 219.711 253.202 219.892 253.139C220.076 253.073 220.235 252.976 220.368 252.848C220.501 252.717 220.604 252.555 220.676 252.361L221.504 252.594C221.417 252.875 221.271 253.122 221.065 253.335C220.859 253.545 220.605 253.71 220.302 253.829C220 253.945 219.66 254.003 219.282 254.003ZM225.161 254.003C224.638 254.003 224.188 253.879 223.81 253.633C223.433 253.386 223.142 253.045 222.939 252.612C222.736 252.179 222.634 251.684 222.634 251.127C222.634 250.56 222.738 250.06 222.946 249.627C223.157 249.191 223.45 248.851 223.825 248.607C224.203 248.36 224.643 248.236 225.147 248.236C225.539 248.236 225.892 248.309 226.207 248.454C226.522 248.599 226.78 248.803 226.981 249.064C227.182 249.326 227.306 249.631 227.355 249.979H226.498C226.432 249.725 226.287 249.5 226.062 249.304C225.839 249.105 225.539 249.006 225.161 249.006C224.827 249.006 224.534 249.093 224.283 249.267C224.033 249.439 223.838 249.683 223.698 249.997C223.56 250.31 223.491 250.676 223.491 251.098C223.491 251.529 223.559 251.904 223.694 252.224C223.832 252.543 224.026 252.791 224.275 252.968C224.527 253.145 224.822 253.233 225.161 253.233C225.384 253.233 225.586 253.194 225.768 253.117C225.949 253.039 226.103 252.928 226.229 252.783C226.355 252.637 226.444 252.463 226.498 252.26H227.355C227.306 252.589 227.187 252.886 226.995 253.15C226.806 253.411 226.556 253.619 226.244 253.774C225.934 253.927 225.573 254.003 225.161 254.003ZM230.874 254.003C230.37 254.003 229.928 253.883 229.548 253.643C229.171 253.404 228.875 253.068 228.662 252.637C228.451 252.207 228.346 251.703 228.346 251.127C228.346 250.546 228.451 250.039 228.662 249.605C228.875 249.172 229.171 248.835 229.548 248.596C229.928 248.356 230.37 248.236 230.874 248.236C231.377 248.236 231.818 248.356 232.196 248.596C232.576 248.835 232.871 249.172 233.082 249.605C233.295 250.039 233.401 250.546 233.401 251.127C233.401 251.703 233.295 252.207 233.082 252.637C232.871 253.068 232.576 253.404 232.196 253.643C231.818 253.883 231.377 254.003 230.874 254.003ZM230.874 253.233C231.256 253.233 231.571 253.135 231.818 252.939C232.065 252.743 232.248 252.485 232.366 252.165C232.485 251.846 232.544 251.5 232.544 251.127C232.544 250.754 232.485 250.407 232.366 250.085C232.248 249.763 232.065 249.502 231.818 249.304C231.571 249.105 231.256 249.006 230.874 249.006C230.491 249.006 230.176 249.105 229.929 249.304C229.683 249.502 229.5 249.763 229.381 250.085C229.263 250.407 229.203 250.754 229.203 251.127C229.203 251.5 229.263 251.846 229.381 252.165C229.5 252.485 229.683 252.743 229.929 252.939C230.176 253.135 230.491 253.233 230.874 253.233ZM235.566 250.531V253.887H234.709V248.309H235.537V249.18H235.61C235.741 248.897 235.939 248.669 236.206 248.498C236.472 248.323 236.816 248.236 237.237 248.236C237.615 248.236 237.945 248.314 238.228 248.469C238.512 248.621 238.732 248.853 238.889 249.166C239.047 249.476 239.125 249.868 239.125 250.342V253.887H238.268V250.4C238.268 249.962 238.154 249.621 237.927 249.376C237.699 249.129 237.387 249.006 236.99 249.006C236.716 249.006 236.472 249.065 236.256 249.184C236.043 249.303 235.875 249.476 235.752 249.703C235.628 249.931 235.566 250.207 235.566 250.531ZM242.798 254.003C242.333 254.003 241.922 253.886 241.567 253.651C241.211 253.413 240.932 253.079 240.731 252.648C240.53 252.215 240.43 251.703 240.43 251.112C240.43 250.526 240.53 250.018 240.731 249.587C240.932 249.156 241.212 248.823 241.57 248.588C241.929 248.354 242.342 248.236 242.812 248.236C243.175 248.236 243.462 248.297 243.673 248.418C243.886 248.536 244.048 248.672 244.159 248.824C244.273 248.975 244.362 249.098 244.425 249.195H244.497V246.449H245.354V253.887H244.526V253.03H244.425C244.362 253.131 244.272 253.26 244.156 253.415C244.04 253.567 243.874 253.704 243.658 253.825C243.443 253.944 243.156 254.003 242.798 254.003ZM242.914 253.233C243.258 253.233 243.548 253.143 243.785 252.964C244.023 252.783 244.203 252.532 244.326 252.213C244.45 251.891 244.512 251.519 244.512 251.098C244.512 250.681 244.451 250.317 244.33 250.005C244.209 249.69 244.03 249.445 243.793 249.271C243.555 249.094 243.262 249.006 242.914 249.006C242.551 249.006 242.248 249.099 242.006 249.286C241.766 249.47 241.586 249.72 241.465 250.037C241.346 250.352 241.287 250.706 241.287 251.098C241.287 251.495 241.347 251.856 241.469 252.18C241.592 252.502 241.774 252.759 242.013 252.95C242.255 253.139 242.556 253.233 242.914 253.233ZM250.994 249.558L250.224 249.776C250.176 249.648 250.104 249.523 250.01 249.402C249.918 249.278 249.792 249.177 249.632 249.097C249.472 249.017 249.268 248.977 249.018 248.977C248.677 248.977 248.393 249.056 248.165 249.213C247.94 249.368 247.827 249.565 247.827 249.805C247.827 250.018 247.905 250.186 248.06 250.31C248.215 250.433 248.457 250.536 248.786 250.618L249.614 250.822C250.113 250.943 250.484 251.128 250.729 251.377C250.973 251.624 251.096 251.943 251.096 252.332C251.096 252.652 251.004 252.938 250.82 253.189C250.638 253.441 250.384 253.64 250.057 253.785C249.73 253.93 249.35 254.003 248.917 254.003C248.348 254.003 247.877 253.879 247.504 253.633C247.131 253.386 246.895 253.025 246.796 252.55L247.609 252.347C247.687 252.647 247.833 252.872 248.049 253.022C248.267 253.173 248.551 253.248 248.902 253.248C249.302 253.248 249.619 253.163 249.854 252.993C250.091 252.821 250.209 252.616 250.209 252.376C250.209 252.182 250.142 252.02 250.006 251.889C249.871 251.756 249.662 251.657 249.382 251.592L248.452 251.374C247.941 251.253 247.566 251.065 247.326 250.811C247.089 250.554 246.97 250.233 246.97 249.849C246.97 249.534 247.059 249.255 247.235 249.013C247.414 248.771 247.658 248.581 247.965 248.443C248.275 248.305 248.626 248.236 249.018 248.236C249.57 248.236 250.004 248.357 250.318 248.599C250.636 248.841 250.861 249.161 250.994 249.558Z" fill="#1E293B"/>
<g clip-path="url(#clip0_2275_5507)">
<path d="M56.4678 205.027H548.921" stroke="black" stroke-width="1.02262"/>
<path d="M57.2666 211.262V205.026" stroke="black" stroke-width="1.02262"/>
<path d="M57.2663 232.24C56.6097 232.24 56.0505 232.062 55.5885 231.704C55.1266 231.344 54.7736 230.822 54.5296 230.14C54.2856 229.454 54.1635 228.626 54.1635 227.656C54.1635 226.691 54.2856 225.868 54.5296 225.185C54.7765 224.499 55.131 223.976 55.5929 223.616C56.0577 223.253 56.6155 223.071 57.2663 223.071C57.917 223.071 58.4734 223.253 58.9353 223.616C59.4001 223.976 59.7546 224.499 59.9986 225.185C60.2455 225.868 60.369 226.691 60.369 227.656C60.369 228.626 60.247 229.454 60.003 230.14C59.7589 230.822 59.4059 231.344 58.944 231.704C58.4821 232.062 57.9229 232.24 57.2663 232.24ZM57.2663 231.281C57.917 231.281 58.4225 230.968 58.7828 230.34C59.143 229.713 59.3231 228.818 59.3231 227.656C59.3231 226.883 59.2404 226.225 59.0748 225.682C58.9121 225.138 58.6767 224.724 58.3688 224.44C58.0638 224.155 57.6962 224.013 57.2663 224.013C56.6213 224.013 56.1173 224.331 55.7541 224.967C55.391 225.6 55.2094 226.497 55.2094 227.656C55.2094 228.429 55.2908 229.085 55.4534 229.626C55.6161 230.166 55.85 230.577 56.155 230.859C56.463 231.141 56.8334 231.281 57.2663 231.281Z" fill="black"/>
<path d="M88.9688 211.262V205.026" stroke="black" stroke-width="1.02262"/>
<path d="M86.1771 232.118V231.333L89.123 228.109C89.4687 227.731 89.7534 227.403 89.9771 227.124C90.2008 226.842 90.3664 226.577 90.4739 226.331C90.5843 226.081 90.6395 225.819 90.6395 225.546C90.6395 225.232 90.5639 224.961 90.4129 224.731C90.2647 224.502 90.0613 224.325 89.8028 224.2C89.5442 224.075 89.2537 224.012 88.9312 224.012C88.5884 224.012 88.2892 224.083 88.0335 224.226C87.7808 224.365 87.5847 224.561 87.4452 224.814C87.3087 225.067 87.2404 225.363 87.2404 225.703H86.212C86.212 225.18 86.3325 224.721 86.5737 224.326C86.8148 223.931 87.1431 223.623 87.5585 223.402C87.9769 223.181 88.4461 223.071 88.9661 223.071C89.489 223.071 89.9524 223.181 90.3562 223.402C90.76 223.623 91.0767 223.921 91.3062 224.295C91.5357 224.67 91.6505 225.087 91.6505 225.546C91.6505 225.874 91.5909 226.195 91.4718 226.509C91.3556 226.82 91.1522 227.167 90.8617 227.551C90.5741 227.931 90.1746 228.396 89.6633 228.945L87.6588 231.089V231.159H91.8074V232.118H86.1771Z" fill="black"/>
<path d="M119.647 211.262V205.026" stroke="black" stroke-width="1.02262"/>
<path d="M116.425 230.287V229.398L120.347 223.193H120.992V224.57H120.556L117.593 229.259V229.329H122.874V230.287H116.425ZM120.626 232.118V230.017V229.603V223.193H121.654V232.118H120.626Z" fill="black"/>
<path d="M150.326 211.262V205.026" stroke="black" stroke-width="1.02262"/>
<path d="M150.384 232.24C150.018 232.234 149.652 232.164 149.286 232.031C148.92 231.897 148.586 231.672 148.284 231.355C147.981 231.035 147.739 230.604 147.556 230.061C147.373 229.515 147.281 228.829 147.281 228.004C147.281 227.214 147.355 226.514 147.503 225.903C147.652 225.29 147.867 224.775 148.148 224.356C148.43 223.935 148.77 223.616 149.168 223.398C149.569 223.18 150.021 223.071 150.523 223.071C151.023 223.071 151.468 223.171 151.857 223.372C152.249 223.569 152.569 223.845 152.816 224.2C153.063 224.554 153.222 224.962 153.295 225.424H152.232C152.133 225.023 151.941 224.691 151.656 224.426C151.372 224.162 150.994 224.03 150.523 224.03C149.832 224.03 149.287 224.33 148.889 224.932C148.494 225.533 148.295 226.377 148.292 227.464H148.362C148.525 227.217 148.718 227.006 148.942 226.832C149.168 226.654 149.418 226.518 149.691 226.422C149.964 226.326 150.253 226.278 150.558 226.278C151.07 226.278 151.537 226.406 151.961 226.662C152.386 226.914 152.726 227.265 152.981 227.712C153.237 228.156 153.365 228.666 153.365 229.242C153.365 229.794 153.241 230.299 152.994 230.758C152.747 231.214 152.4 231.577 151.953 231.847C151.508 232.115 150.985 232.246 150.384 232.24ZM150.384 231.281C150.75 231.281 151.078 231.189 151.369 231.006C151.662 230.823 151.893 230.578 152.062 230.27C152.233 229.962 152.319 229.619 152.319 229.242C152.319 228.873 152.236 228.537 152.07 228.235C151.908 227.93 151.683 227.687 151.395 227.507C151.11 227.327 150.785 227.237 150.419 227.237C150.143 227.237 149.886 227.292 149.648 227.403C149.409 227.51 149.2 227.658 149.02 227.847C148.843 228.036 148.703 228.252 148.602 228.496C148.5 228.737 148.449 228.992 148.449 229.259C148.449 229.613 148.532 229.945 148.698 230.253C148.866 230.56 149.096 230.809 149.386 230.998C149.679 231.187 150.012 231.281 150.384 231.281Z" fill="black"/>
<path d="M181.005 211.262V205.026" stroke="black" stroke-width="1.02262"/>
<path d="M181.006 232.24C180.408 232.24 179.879 232.134 179.42 231.922C178.964 231.707 178.608 231.412 178.352 231.037C178.096 230.659 177.97 230.229 177.973 229.747C177.97 229.369 178.044 229.021 178.195 228.701C178.346 228.379 178.553 228.11 178.814 227.895C179.078 227.677 179.373 227.539 179.699 227.481V227.429C179.272 227.318 178.932 227.079 178.679 226.71C178.426 226.338 178.301 225.915 178.304 225.442C178.301 224.988 178.416 224.583 178.648 224.226C178.881 223.868 179.2 223.587 179.607 223.38C180.017 223.174 180.483 223.071 181.006 223.071C181.523 223.071 181.985 223.174 182.392 223.38C182.799 223.587 183.118 223.868 183.351 224.226C183.586 224.583 183.705 224.988 183.708 225.442C183.705 225.915 183.576 226.338 183.32 226.71C183.067 227.079 182.732 227.318 182.313 227.429V227.481C182.636 227.539 182.926 227.677 183.185 227.895C183.443 228.11 183.65 228.379 183.804 228.701C183.958 229.021 184.036 229.369 184.039 229.747C184.036 230.229 183.905 230.659 183.647 231.037C183.391 231.412 183.035 231.707 182.579 231.922C182.126 232.134 181.602 232.24 181.006 232.24ZM181.006 231.281C181.41 231.281 181.758 231.216 182.052 231.085C182.345 230.954 182.572 230.77 182.732 230.531C182.891 230.293 182.973 230.014 182.976 229.695C182.973 229.358 182.886 229.06 182.714 228.801C182.543 228.543 182.309 228.339 182.013 228.191C181.719 228.043 181.384 227.969 181.006 227.969C180.625 227.969 180.286 228.043 179.986 228.191C179.69 228.339 179.456 228.543 179.285 228.801C179.116 229.06 179.033 229.358 179.036 229.695C179.033 230.014 179.11 230.293 179.267 230.531C179.427 230.77 179.655 230.954 179.951 231.085C180.248 231.216 180.599 231.281 181.006 231.281ZM181.006 227.045C181.326 227.045 181.609 226.981 181.856 226.853C182.106 226.726 182.302 226.547 182.444 226.317C182.586 226.088 182.659 225.819 182.662 225.511C182.659 225.209 182.588 224.946 182.448 224.723C182.309 224.496 182.116 224.322 181.869 224.2C181.622 224.075 181.334 224.012 181.006 224.012C180.672 224.012 180.38 224.075 180.13 224.2C179.88 224.322 179.687 224.496 179.551 224.723C179.414 224.946 179.347 225.209 179.35 225.511C179.347 225.819 179.415 226.088 179.555 226.317C179.697 226.547 179.893 226.726 180.143 226.853C180.393 226.981 180.681 227.045 181.006 227.045Z" fill="black"/>
<path d="M211.683 211.262V205.026" stroke="black" stroke-width="1.02262"/>
<path d="M211.103 223.441V232.366H210.022V224.574H209.97L207.791 226.021V224.923L210.022 223.441H211.103ZM216.58 232.488C215.924 232.488 215.365 232.309 214.903 231.952C214.441 231.591 214.088 231.07 213.844 230.387C213.6 229.702 213.478 228.874 213.478 227.903C213.478 226.939 213.6 226.115 213.844 225.433C214.091 224.747 214.445 224.224 214.907 223.864C215.372 223.501 215.93 223.319 216.58 223.319C217.231 223.319 217.787 223.501 218.249 223.864C218.714 224.224 219.069 224.747 219.313 225.433C219.56 226.115 219.683 226.939 219.683 227.903C219.683 228.874 219.561 229.702 219.317 230.387C219.073 231.07 218.72 231.591 218.258 231.952C217.796 232.309 217.237 232.488 216.58 232.488ZM216.58 231.529C217.231 231.529 217.737 231.215 218.097 230.588C218.457 229.96 218.637 229.065 218.637 227.903C218.637 227.131 218.554 226.473 218.389 225.929C218.226 225.386 217.991 224.972 217.683 224.687C217.378 224.403 217.01 224.26 216.58 224.26C215.935 224.26 215.431 224.578 215.068 225.215C214.705 225.848 214.523 226.744 214.523 227.903C214.523 228.676 214.605 229.333 214.768 229.873C214.93 230.413 215.164 230.825 215.469 231.106C215.777 231.388 216.147 231.529 216.58 231.529Z" fill="black"/>
<path d="M242.362 211.262V205.026" stroke="black" stroke-width="1.02262"/>
<path d="M242.413 223.441V232.366H241.333V224.574H241.28L239.101 226.021V224.923L241.333 223.441H242.413ZM244.98 232.366V231.581L247.926 228.357C248.272 227.979 248.556 227.651 248.78 227.372C249.004 227.09 249.169 226.826 249.277 226.579C249.387 226.329 249.442 226.067 249.442 225.794C249.442 225.48 249.367 225.209 249.216 224.979C249.068 224.75 248.864 224.573 248.606 224.448C248.347 224.323 248.057 224.26 247.734 224.26C247.391 224.26 247.092 224.331 246.836 224.474C246.584 224.613 246.388 224.809 246.248 225.062C246.112 225.315 246.043 225.611 246.043 225.951H245.015C245.015 225.428 245.135 224.969 245.377 224.574C245.618 224.179 245.946 223.871 246.361 223.65C246.78 223.429 247.249 223.319 247.769 223.319C248.292 223.319 248.755 223.429 249.159 223.65C249.563 223.871 249.88 224.169 250.109 224.544C250.339 224.918 250.453 225.335 250.453 225.794C250.453 226.122 250.394 226.444 250.275 226.757C250.159 227.068 249.955 227.415 249.665 227.799C249.377 228.179 248.978 228.644 248.466 229.193L246.462 231.337V231.407H250.61V232.366H244.98Z" fill="black"/>
<path d="M273.04 211.262V205.026" stroke="black" stroke-width="1.02262"/>
<path d="M273.38 223.441V232.366H272.3V224.574H272.247L270.068 226.021V224.923L272.3 223.441H273.38ZM275.738 230.535V229.646L279.66 223.441H280.305V224.818H279.869L276.906 229.507V229.577H282.187V230.535H275.738ZM279.939 232.366V230.265V229.851V223.441H280.967V232.366H279.939Z" fill="black"/>
<path d="M303.719 211.262V205.026" stroke="black" stroke-width="1.02262"/>
<path d="M303.656 223.441V232.366H302.575V224.574H302.523L300.344 226.021V224.923L302.575 223.441H303.656ZM309.186 232.488C308.82 232.482 308.454 232.412 308.088 232.279C307.722 232.145 307.387 231.92 307.085 231.603C306.783 231.284 306.541 230.852 306.358 230.309C306.175 229.763 306.083 229.077 306.083 228.252C306.083 227.462 306.157 226.762 306.305 226.152C306.453 225.539 306.668 225.023 306.95 224.605C307.232 224.183 307.572 223.864 307.97 223.646C308.371 223.428 308.823 223.319 309.325 223.319C309.825 223.319 310.269 223.419 310.659 223.62C311.051 223.817 311.37 224.093 311.617 224.448C311.864 224.802 312.024 225.21 312.097 225.672H311.033C310.935 225.271 310.743 224.939 310.458 224.674C310.174 224.41 309.796 224.278 309.325 224.278C308.634 224.278 308.089 224.578 307.691 225.18C307.296 225.781 307.097 226.625 307.094 227.712H307.164C307.326 227.465 307.52 227.254 307.743 227.08C307.97 226.903 308.22 226.766 308.493 226.67C308.766 226.574 309.055 226.526 309.36 226.526C309.871 226.526 310.339 226.654 310.763 226.91C311.187 227.163 311.527 227.513 311.783 227.96C312.039 228.405 312.166 228.914 312.166 229.49C312.166 230.042 312.043 230.547 311.796 231.006C311.549 231.462 311.202 231.825 310.755 232.096C310.31 232.363 309.787 232.494 309.186 232.488ZM309.186 231.529C309.552 231.529 309.88 231.438 310.171 231.254C310.464 231.071 310.695 230.826 310.864 230.518C311.035 230.21 311.121 229.867 311.121 229.49C311.121 229.121 311.038 228.785 310.872 228.483C310.71 228.178 310.484 227.935 310.197 227.755C309.912 227.575 309.587 227.485 309.221 227.485C308.945 227.485 308.688 227.54 308.449 227.651C308.211 227.758 308.002 227.906 307.822 228.095C307.645 228.284 307.505 228.5 307.403 228.744C307.302 228.986 307.251 229.24 307.251 229.507C307.251 229.861 307.334 230.193 307.499 230.501C307.668 230.809 307.897 231.057 308.188 231.246C308.481 231.435 308.814 231.529 309.186 231.529Z" fill="black"/>
<path d="M334.397 211.262V205.026" stroke="black" stroke-width="1.02262"/>
<path d="M334.382 223.441V232.366H333.302V224.574H333.249L331.07 226.021V224.923L333.302 223.441H334.382ZM339.808 232.488C339.209 232.488 338.681 232.382 338.222 232.17C337.765 231.955 337.41 231.66 337.154 231.285C336.898 230.907 336.772 230.477 336.775 229.995C336.772 229.617 336.846 229.269 336.997 228.949C337.148 228.627 337.354 228.358 337.616 228.143C337.88 227.925 338.175 227.787 338.5 227.729V227.677C338.073 227.566 337.734 227.327 337.481 226.958C337.228 226.586 337.103 226.163 337.106 225.69C337.103 225.236 337.218 224.831 337.45 224.474C337.683 224.116 338.002 223.835 338.409 223.628C338.819 223.422 339.285 223.319 339.808 223.319C340.325 223.319 340.787 223.422 341.194 223.628C341.6 223.835 341.92 224.116 342.152 224.474C342.388 224.831 342.507 225.236 342.51 225.69C342.507 226.163 342.377 226.586 342.122 226.958C341.869 227.327 341.534 227.566 341.115 227.677V227.729C341.438 227.787 341.728 227.925 341.987 228.143C342.245 228.358 342.452 228.627 342.606 228.949C342.759 229.269 342.838 229.617 342.841 229.995C342.838 230.477 342.707 230.907 342.449 231.285C342.193 231.66 341.837 231.955 341.381 232.17C340.928 232.382 340.403 232.488 339.808 232.488ZM339.808 231.529C340.212 231.529 340.56 231.464 340.854 231.333C341.147 231.202 341.374 231.018 341.534 230.779C341.693 230.541 341.775 230.262 341.778 229.943C341.775 229.606 341.687 229.308 341.516 229.049C341.345 228.791 341.111 228.588 340.814 228.439C340.521 228.291 340.185 228.217 339.808 228.217C339.427 228.217 339.087 228.291 338.788 228.439C338.492 228.588 338.258 228.791 338.087 229.049C337.918 229.308 337.835 229.606 337.838 229.943C337.835 230.262 337.912 230.541 338.069 230.779C338.229 231.018 338.457 231.202 338.753 231.333C339.05 231.464 339.401 231.529 339.808 231.529ZM339.808 227.293C340.127 227.293 340.411 227.229 340.658 227.102C340.907 226.974 341.104 226.795 341.246 226.566C341.388 226.336 341.461 226.067 341.464 225.759C341.461 225.457 341.39 225.194 341.25 224.971C341.111 224.744 340.918 224.57 340.671 224.448C340.424 224.323 340.136 224.26 339.808 224.26C339.474 224.26 339.182 224.323 338.932 224.448C338.682 224.57 338.489 224.744 338.352 224.971C338.216 225.194 338.149 225.457 338.152 225.759C338.149 226.067 338.217 226.336 338.357 226.566C338.499 226.795 338.695 226.974 338.945 227.102C339.195 227.229 339.482 227.293 339.808 227.293Z" fill="black"/>
<path d="M365.076 211.262V205.026" stroke="black" stroke-width="1.02262"/>
<path d="M361.007 232.366V231.581L363.953 228.357C364.298 227.979 364.583 227.651 364.807 227.372C365.031 227.09 365.196 226.826 365.304 226.579C365.414 226.329 365.469 226.067 365.469 225.794C365.469 225.48 365.394 225.209 365.243 224.979C365.094 224.75 364.891 224.573 364.633 224.448C364.374 224.323 364.083 224.26 363.761 224.26C363.418 224.26 363.119 224.331 362.863 224.474C362.611 224.613 362.414 224.809 362.275 225.062C362.138 225.315 362.07 225.611 362.07 225.951H361.042C361.042 225.428 361.162 224.969 361.403 224.574C361.645 224.179 361.973 223.871 362.388 223.65C362.807 223.429 363.276 223.319 363.796 223.319C364.319 223.319 364.782 223.429 365.186 223.65C365.59 223.871 365.906 224.169 366.136 224.544C366.366 224.918 366.48 225.335 366.48 225.794C366.48 226.122 366.421 226.444 366.302 226.757C366.185 227.068 365.982 227.415 365.692 227.799C365.404 228.179 365.004 228.644 364.493 229.193L362.489 231.337V231.407H366.637V232.366H361.007ZM371.348 232.488C370.691 232.488 370.132 232.309 369.67 231.952C369.208 231.591 368.855 231.07 368.611 230.387C368.367 229.702 368.245 228.874 368.245 227.903C368.245 226.939 368.367 226.115 368.611 225.433C368.858 224.747 369.213 224.224 369.675 223.864C370.139 223.501 370.697 223.319 371.348 223.319C371.999 223.319 372.555 223.501 373.017 223.864C373.482 224.224 373.836 224.747 374.08 225.433C374.327 226.115 374.451 226.939 374.451 227.903C374.451 228.874 374.329 229.702 374.085 230.387C373.841 231.07 373.488 231.591 373.026 231.952C372.564 232.309 372.004 232.488 371.348 232.488ZM371.348 231.529C371.999 231.529 372.504 231.215 372.864 230.588C373.225 229.96 373.405 229.065 373.405 227.903C373.405 227.131 373.322 226.473 373.156 225.929C372.994 225.386 372.758 224.972 372.45 224.687C372.145 224.403 371.778 224.26 371.348 224.26C370.703 224.26 370.199 224.578 369.836 225.215C369.473 225.848 369.291 226.744 369.291 227.903C369.291 228.676 369.372 229.333 369.535 229.873C369.698 230.413 369.932 230.825 370.237 231.106C370.545 231.388 370.915 231.529 371.348 231.529Z" fill="black"/>
<path d="M395.756 211.262V205.026" stroke="black" stroke-width="1.02262"/>
<path d="M390.272 232.366V231.581L393.218 228.357C393.563 227.979 393.848 227.651 394.072 227.372C394.296 227.09 394.461 226.826 394.569 226.579C394.679 226.329 394.734 226.067 394.734 225.794C394.734 225.48 394.659 225.209 394.508 224.979C394.359 224.75 394.156 224.573 393.898 224.448C393.639 224.323 393.348 224.26 393.026 224.26C392.683 224.26 392.384 224.331 392.128 224.474C391.876 224.613 391.679 224.809 391.54 225.062C391.403 225.315 391.335 225.611 391.335 225.951H390.307C390.307 225.428 390.427 224.969 390.668 224.574C390.91 224.179 391.238 223.871 391.653 223.65C392.072 223.429 392.541 223.319 393.061 223.319C393.584 223.319 394.047 223.429 394.451 223.65C394.855 223.871 395.171 224.169 395.401 224.544C395.63 224.918 395.745 225.335 395.745 225.794C395.745 226.122 395.686 226.444 395.567 226.757C395.45 227.068 395.247 227.415 394.956 227.799C394.669 228.179 394.269 228.644 393.758 229.193L391.753 231.337V231.407H395.902V232.366H390.272ZM397.702 232.366V231.581L400.648 228.357C400.993 227.979 401.278 227.651 401.502 227.372C401.726 227.09 401.891 226.826 401.999 226.579C402.109 226.329 402.164 226.067 402.164 225.794C402.164 225.48 402.089 225.209 401.938 224.979C401.789 224.75 401.586 224.573 401.328 224.448C401.069 224.323 400.778 224.26 400.456 224.26C400.113 224.26 399.814 224.331 399.558 224.474C399.306 224.613 399.109 224.809 398.97 225.062C398.833 225.315 398.765 225.611 398.765 225.951H397.737C397.737 225.428 397.857 224.969 398.098 224.574C398.34 224.179 398.668 223.871 399.083 223.65C399.502 223.429 399.971 223.319 400.491 223.319C401.014 223.319 401.477 223.429 401.881 223.65C402.285 223.871 402.601 224.169 402.831 224.544C403.06 224.918 403.175 225.335 403.175 225.794C403.175 226.122 403.116 226.444 402.997 226.757C402.88 227.068 402.677 227.415 402.386 227.799C402.099 228.179 401.699 228.644 401.188 229.193L399.183 231.337V231.407H403.332V232.366H397.702Z" fill="black"/>
<path d="M426.435 211.262V205.026" stroke="black" stroke-width="1.02262"/>
<path d="M421.337 232.366V231.581L424.283 228.357C424.628 227.979 424.913 227.651 425.137 227.372C425.361 227.09 425.526 226.826 425.634 226.579C425.744 226.329 425.799 226.067 425.799 225.794C425.799 225.48 425.724 225.209 425.573 224.979C425.424 224.75 425.221 224.573 424.963 224.448C424.704 224.323 424.413 224.26 424.091 224.26C423.748 224.26 423.449 224.331 423.193 224.474C422.941 224.613 422.744 224.809 422.605 225.062C422.468 225.315 422.4 225.611 422.4 225.951H421.372C421.372 225.428 421.492 224.969 421.733 224.574C421.975 224.179 422.303 223.871 422.718 223.65C423.137 223.429 423.606 223.319 424.126 223.319C424.649 223.319 425.112 223.429 425.516 223.65C425.92 223.871 426.236 224.169 426.466 224.544C426.695 224.918 426.81 225.335 426.81 225.794C426.81 226.122 426.751 226.444 426.632 226.757C426.515 227.068 426.312 227.415 426.021 227.799C425.734 228.179 425.334 228.644 424.823 229.193L422.818 231.337V231.407H426.967V232.366H421.337ZM428.366 230.535V229.646L432.288 223.441H432.933V224.818H432.497L429.534 229.507V229.577H434.815V230.535H428.366ZM432.567 232.366V230.265V229.851V223.441H433.595V232.366H432.567Z" fill="black"/>
<path d="M57.2666 41.4072V205.027" stroke="black" stroke-width="1.02262"/>
<path d="M51.1309 205.027H57.2666" stroke="black" stroke-width="1.02262"/>
<path d="M42.0021 209.236C41.3455 209.236 40.7863 209.057 40.3243 208.7C39.8624 208.34 39.5094 207.818 39.2654 207.135C39.0214 206.45 38.8993 205.622 38.8993 204.651C38.8993 203.687 39.0214 202.863 39.2654 202.181C39.5123 201.495 39.8668 200.972 40.3287 200.612C40.7935 200.249 41.3513 200.067 42.0021 200.067C42.6528 200.067 43.2092 200.249 43.6711 200.612C44.1359 200.972 44.4904 201.495 44.7344 202.181C44.9813 202.863 45.1048 203.687 45.1048 204.651C45.1048 205.622 44.9828 206.45 44.7388 207.135C44.4947 207.818 44.1417 208.34 43.6798 208.7C43.2179 209.057 42.6586 209.236 42.0021 209.236ZM42.0021 208.277C42.6528 208.277 43.1583 207.963 43.5186 207.336C43.8788 206.708 44.0589 205.813 44.0589 204.651C44.0589 203.879 43.9761 203.221 43.8105 202.677C43.6479 202.134 43.4125 201.72 43.1046 201.435C42.7995 201.151 42.432 201.008 42.0021 201.008C41.3571 201.008 40.8531 201.326 40.4899 201.963C40.1268 202.596 39.9452 203.492 39.9452 204.651C39.9452 205.424 40.0265 206.081 40.1892 206.621C40.3519 207.161 40.5858 207.573 40.8908 207.854C41.1988 208.136 41.5692 208.277 42.0021 208.277Z" fill="black"/>
<path d="M51.1309 164.122H57.2666" stroke="black" stroke-width="1.02262"/>
<path d="M31.7066 168.209V167.425L34.6525 164.2C34.9982 163.822 35.2829 163.494 35.5066 163.215C35.7303 162.933 35.8959 162.669 36.0034 162.422C36.1138 162.172 36.169 161.911 36.169 161.637C36.169 161.324 36.0934 161.052 35.9424 160.823C35.7942 160.593 35.5908 160.416 35.3323 160.291C35.0737 160.166 34.7832 160.104 34.4607 160.104C34.1179 160.104 33.8187 160.175 33.563 160.317C33.3103 160.457 33.1142 160.653 32.9747 160.905C32.8382 161.158 32.7699 161.454 32.7699 161.794H31.7415C31.7415 161.271 31.862 160.812 32.1032 160.417C32.3443 160.022 32.6726 159.714 33.088 159.493C33.5064 159.273 33.9755 159.162 34.4956 159.162C35.0185 159.162 35.4819 159.273 35.8857 159.493C36.2895 159.714 36.6062 160.012 36.8357 160.387C37.0652 160.762 37.18 161.178 37.18 161.637C37.18 161.966 37.1204 162.287 37.0013 162.601C36.8851 162.911 36.6817 163.259 36.3912 163.642C36.1036 164.023 35.7041 164.487 35.1928 165.037L33.1882 167.181V167.25H37.3368V168.209H31.7066ZM41.9256 168.331C41.4143 168.331 40.9538 168.229 40.5442 168.026C40.1345 167.823 39.8062 167.544 39.5593 167.189C39.3124 166.835 39.1773 166.431 39.154 165.978H40.1999C40.2406 166.382 40.4236 166.716 40.749 166.98C41.0773 167.242 41.4695 167.372 41.9256 167.372C42.2916 167.372 42.617 167.287 42.9017 167.115C43.1893 166.944 43.4145 166.708 43.5772 166.409C43.7428 166.107 43.8256 165.766 43.8256 165.385C43.8256 164.996 43.7399 164.649 43.5685 164.344C43.4 164.036 43.1675 163.793 42.8712 163.616C42.5749 163.439 42.2364 163.349 41.8559 163.346C41.5828 163.343 41.3024 163.385 41.0148 163.472C40.7272 163.556 40.4904 163.665 40.3045 163.799L39.2935 163.677L39.8338 159.284H44.4705V160.243H40.7403L40.4265 162.875H40.4788C40.6618 162.73 40.8913 162.609 41.1673 162.513C41.4433 162.418 41.7309 162.37 42.0302 162.37C42.5763 162.37 43.063 162.5 43.49 162.762C43.92 163.02 44.257 163.375 44.501 163.825C44.748 164.275 44.8714 164.79 44.8714 165.368C44.8714 165.937 44.7436 166.446 44.4879 166.893C44.2352 167.337 43.8866 167.689 43.4421 167.948C42.9976 168.203 42.4921 168.331 41.9256 168.331Z" fill="black"/>
<path d="M51.1309 123.217H57.2666" stroke="black" stroke-width="1.02262"/>
<path d="M35.2559 127.426C34.7446 127.426 34.2841 127.324 33.8745 127.121C33.4648 126.917 33.1366 126.638 32.8896 126.284C32.6427 125.93 32.5076 125.526 32.4843 125.073H33.5302C33.5709 125.476 33.7539 125.81 34.0793 126.075C34.4076 126.336 34.7998 126.467 35.2559 126.467C35.6219 126.467 35.9473 126.381 36.232 126.21C36.5196 126.039 36.7448 125.803 36.9075 125.504C37.0731 125.202 37.1559 124.86 37.1559 124.48C37.1559 124.091 37.0702 123.743 36.8988 123.438C36.7303 123.13 36.4979 122.888 36.2015 122.711C35.9052 122.533 35.5667 122.443 35.1862 122.44C34.9131 122.438 34.6327 122.48 34.3451 122.567C34.0575 122.651 33.8207 122.76 33.6348 122.894L32.6238 122.772L33.1642 118.379H37.8008V119.338H34.0706L33.7568 121.97H33.8091C33.9921 121.825 34.2216 121.704 34.4976 121.608C34.7736 121.512 35.0612 121.464 35.3605 121.464C35.9067 121.464 36.3933 121.595 36.8203 121.856C37.2503 122.115 37.5873 122.469 37.8313 122.92C38.0783 123.37 38.2017 123.884 38.2017 124.462C38.2017 125.032 38.0739 125.54 37.8183 125.988C37.5655 126.432 37.2169 126.784 36.7724 127.042C36.3279 127.298 35.8224 127.426 35.2559 127.426ZM42.8439 127.426C42.1873 127.426 41.6281 127.247 41.1661 126.89C40.7042 126.529 40.3512 126.008 40.1072 125.325C39.8632 124.64 39.7411 123.812 39.7411 122.841C39.7411 121.877 39.8632 121.053 40.1072 120.37C40.3541 119.685 40.7086 119.162 41.1705 118.802C41.6353 118.439 42.1931 118.257 42.8439 118.257C43.4946 118.257 44.051 118.439 44.5129 118.802C44.9777 119.162 45.3322 119.685 45.5762 120.37C45.8231 121.053 45.9466 121.877 45.9466 122.841C45.9466 123.812 45.8246 124.64 45.5806 125.325C45.3365 126.008 44.9835 126.529 44.5216 126.89C44.0597 127.247 43.5004 127.426 42.8439 127.426ZM42.8439 126.467C43.4946 126.467 44.0001 126.153 44.3604 125.526C44.7206 124.898 44.9007 124.003 44.9007 122.841C44.9007 122.069 44.8179 121.411 44.6523 120.867C44.4897 120.324 44.2543 119.91 43.9464 119.625C43.6413 119.341 43.2738 119.198 42.8439 119.198C42.1989 119.198 41.6949 119.516 41.3317 120.153C40.9686 120.786 40.787 121.682 40.787 122.841C40.787 123.614 40.8683 124.271 41.031 124.811C41.1937 125.351 41.4276 125.763 41.7326 126.044C42.0406 126.326 42.411 126.467 42.8439 126.467Z" fill="black"/>
<path d="M51.1309 82.312H57.2666" stroke="black" stroke-width="1.02262"/>
<path d="M32.5248 86.3989L36.5165 78.5026V78.4329H31.9147V77.4742H37.6321V78.4852L33.6578 86.3989H32.5248ZM41.9256 86.5209C41.4143 86.5209 40.9538 86.4193 40.5442 86.2159C40.1345 86.0125 39.8062 85.7336 39.5593 85.3792C39.3124 85.0248 39.1773 84.621 39.154 84.1677H40.1999C40.2406 84.5716 40.4236 84.9057 40.749 85.17C41.0773 85.4315 41.4695 85.5622 41.9256 85.5622C42.2916 85.5622 42.617 85.4765 42.9017 85.3051C43.1893 85.1337 43.4145 84.8984 43.5772 84.5992C43.7428 84.297 43.8256 83.9557 43.8256 83.5751C43.8256 83.1858 43.7399 82.8386 43.5685 82.5336C43.4 82.2256 43.1675 81.983 42.8712 81.8058C42.5749 81.6286 42.2364 81.5386 41.8559 81.5356C41.5828 81.5327 41.3024 81.5749 41.0148 81.662C40.7272 81.7463 40.4904 81.8552 40.3045 81.9889L39.2935 81.8668L39.8338 77.4742H44.4705V78.4329H40.7403L40.4265 81.065H40.4788C40.6618 80.9198 40.8913 80.7992 41.1673 80.7033C41.4433 80.6074 41.7309 80.5595 42.0302 80.5595C42.5763 80.5595 43.063 80.6902 43.49 80.9517C43.92 81.2103 44.257 81.5647 44.501 82.015C44.748 82.4653 44.8714 82.9795 44.8714 83.5577C44.8714 84.1271 44.7436 84.6355 44.4879 85.0829C44.2352 85.5274 43.8866 85.8789 43.4421 86.1375C42.9976 86.3931 42.4921 86.5209 41.9256 86.5209Z" fill="black"/>
<path d="M51.1309 41.4072H57.2666" stroke="black" stroke-width="1.02262"/>
<path d="M29.5607 40.8634V49.7881H28.48V41.9964H28.4277L26.2488 43.4432V42.345L28.48 40.8634H29.5607ZM35.0384 49.9101C34.3819 49.9101 33.8226 49.7314 33.3607 49.3741C32.8988 49.0139 32.5458 48.4924 32.3018 47.8097C32.0577 47.124 31.9357 46.2961 31.9357 45.3257C31.9357 44.3612 32.0577 43.5376 32.3018 42.8549C32.5487 42.1692 32.9031 41.6463 33.3651 41.2861C33.8299 40.9229 34.3877 40.7413 35.0384 40.7413C35.6892 40.7413 36.2455 40.9229 36.7075 41.2861C37.1723 41.6463 37.5267 42.1692 37.7708 42.8549C38.0177 43.5376 38.1412 44.3612 38.1412 45.3257C38.1412 46.2961 38.0192 47.124 37.7751 47.8097C37.5311 48.4924 37.1781 49.0139 36.7162 49.3741C36.2543 49.7314 35.695 49.9101 35.0384 49.9101ZM35.0384 48.9514C35.6892 48.9514 36.1947 48.6376 36.555 48.0101C36.9152 47.3826 37.0953 46.4878 37.0953 45.3257C37.0953 44.5529 37.0125 43.8949 36.8469 43.3517C36.6842 42.8084 36.4489 42.3944 36.141 42.1097C35.8359 41.825 35.4684 41.6826 35.0384 41.6826C34.3935 41.6826 33.8894 42.0007 33.5263 42.637C33.1631 43.2703 32.9816 44.1666 32.9816 45.3257C32.9816 46.0985 33.0629 46.7551 33.2256 47.2954C33.3883 47.8358 33.6222 48.2469 33.9272 48.5287C34.2352 48.8105 34.6056 48.9514 35.0384 48.9514ZM42.7081 49.9101C42.0516 49.9101 41.4923 49.7314 41.0304 49.3741C40.5685 49.0139 40.2155 48.4924 39.9714 47.8097C39.7274 47.124 39.6054 46.2961 39.6054 45.3257C39.6054 44.3612 39.7274 43.5376 39.9714 42.8549C40.2184 42.1692 40.5728 41.6463 41.0347 41.2861C41.4996 40.9229 42.0574 40.7413 42.7081 40.7413C43.3589 40.7413 43.9152 40.9229 44.3772 41.2861C44.842 41.6463 45.1964 42.1692 45.4405 42.8549C45.6874 43.5376 45.8109 44.3612 45.8109 45.3257C45.8109 46.2961 45.6888 47.124 45.4448 47.8097C45.2008 48.4924 44.8478 49.0139 44.3859 49.3741C43.9239 49.7314 43.3647 49.9101 42.7081 49.9101ZM42.7081 48.9514C43.3589 48.9514 43.8644 48.6376 44.2246 48.0101C44.5849 47.3826 44.765 46.4878 44.765 45.3257C44.765 44.5529 44.6822 43.8949 44.5166 43.3517C44.3539 42.8084 44.1186 42.3944 43.8106 42.1097C43.5056 41.825 43.1381 41.6826 42.7081 41.6826C42.0632 41.6826 41.5591 42.0007 41.196 42.637C40.8328 43.2703 40.6513 44.1666 40.6513 45.3257C40.6513 46.0985 40.7326 46.7551 40.8953 47.2954C41.058 47.8358 41.2919 48.2469 41.5969 48.5287C41.9048 48.8105 42.2753 48.9514 42.7081 48.9514Z" fill="black"/>
<path opacity="0.6" d="M55.2217 82.1902L104.435 173.551L153.649 90.9843L202.863 188.208L252.077 114.11L301.291 95.707L350.504 74.0475L399.718 112.481L448.932 64.9277V204.005H399.718H350.504H301.291H252.077H202.863H153.649H104.435H55.2217V82.1902Z" fill="#39B3EA"/>
<path d="M56.1852 85.7075C57.282 85.7075 58.1712 84.334 58.1712 82.6397C58.1712 80.9453 57.282 79.5718 56.1852 79.5718C55.0884 79.5718 54.1992 80.9453 54.1992 82.6397C54.1992 84.334 55.0884 85.7075 56.1852 85.7075Z" fill="#39B3EA"/>
<path d="M105.671 177.496C106.767 177.496 107.657 176.123 107.657 174.428C107.657 172.734 106.767 171.36 105.671 171.36C104.574 171.36 103.685 172.734 103.685 174.428C103.685 176.123 104.574 177.496 105.671 177.496Z" fill="#39B3EA"/>
<path d="M204.641 192.22C205.738 192.22 206.627 190.847 206.627 189.152C206.627 187.458 205.738 186.084 204.641 186.084C203.544 186.084 202.655 187.458 202.655 189.152C202.655 190.847 203.544 192.22 204.641 192.22Z" fill="#39B3EA"/>
<path d="M254.119 117.776C255.216 117.776 256.105 116.403 256.105 114.708C256.105 113.014 255.216 111.641 254.119 111.641C253.022 111.641 252.133 113.014 252.133 114.708C252.133 116.403 253.022 117.776 254.119 117.776Z" fill="#39B3EA"/>
<path d="M303.604 99.2896C304.701 99.2896 305.59 97.916 305.59 96.2217C305.59 94.5273 304.701 93.1538 303.604 93.1538C302.507 93.1538 301.618 94.5273 301.618 96.2217C301.618 97.916 302.507 99.2896 303.604 99.2896Z" fill="#39B3EA"/>
<path d="M353.09 77.5269C354.186 77.5269 355.075 76.1533 355.075 74.459C355.075 72.7646 354.186 71.3911 353.09 71.3911C351.993 71.3911 351.104 72.7646 351.104 74.459C351.104 76.1533 351.993 77.5269 353.09 77.5269Z" fill="#39B3EA"/>
<path d="M402.575 116.139C403.672 116.139 404.561 114.765 404.561 113.071C404.561 111.376 403.672 110.003 402.575 110.003C401.478 110.003 400.589 111.376 400.589 113.071C400.589 114.765 401.478 116.139 402.575 116.139Z" fill="#39B3EA"/>
<path d="M452.06 68.3628C453.157 68.3628 454.046 66.9893 454.046 65.2949C454.046 63.6006 453.157 62.2271 452.06 62.2271C450.963 62.2271 450.074 63.6006 450.074 65.2949C450.074 66.9893 450.963 68.3628 452.06 68.3628Z" fill="#39B3EA"/>
<path d="M153.394 103.787C160.171 103.787 165.665 98.293 165.665 91.5156C165.665 84.7383 160.171 79.2441 153.394 79.2441C146.616 79.2441 141.122 84.7383 141.122 91.5156C141.122 98.293 146.616 103.787 153.394 103.787Z" fill="#39B3EA"/>
<path d="M153.394 100.719C158.477 100.719 162.598 96.5986 162.598 91.5156C162.598 86.4326 158.477 82.312 153.394 82.312C148.311 82.312 144.19 86.4326 144.19 91.5156C144.19 96.5986 148.311 100.719 153.394 100.719Z" fill="#86D9FF"/>
<path d="M153.394 94.5835C155.088 94.5835 156.462 93.21 156.462 91.5156C156.462 89.8213 155.088 88.4478 153.394 88.4478C151.7 88.4478 150.326 89.8213 150.326 91.5156C150.326 93.21 151.7 94.5835 153.394 94.5835Z" fill="white"/>
<g style="mix-blend-mode:overlay" filter="url(#filter1_d_2275_5507)">
<rect x="202.479" y="71.0635" width="246.452" height="132.941" fill="#D9D9D9"/>
</g>
</g>
<defs>
<filter id="filter0_d_2275_5507" x="64.4254" y="18.9095" width="172.824" height="71.8083" filterUnits="userSpaceOnUse" color-interpolation-filters="sRGB">
<feFlood flood-opacity="0" result="BackgroundImageFix"/>
<feColorMatrix in="SourceAlpha" type="matrix" values="0 0 0 0 0 0 0 0 0 0 0 0 0 0 0 0 0 0 127 0" result="hardAlpha"/>
<feOffset dy="4.0905"/>
<feGaussianBlur stdDeviation="4.0905"/>
<feColorMatrix type="matrix" values="0 0 0 0 0 0 0 0 0 0 0 0 0 0 0 0 0 0 0.1 0"/>
<feBlend mode="normal" in2="BackgroundImageFix" result="effect1_dropShadow_2275_5507"/>
<feBlend mode="normal" in="SourceGraphic" in2="effect1_dropShadow_2275_5507" result="shape"/>
</filter>
<filter id="filter1_d_2275_5507" x="198.389" y="71.0635" width="254.633" height="141.122" filterUnits="userSpaceOnUse" color-interpolation-filters="sRGB">
<feFlood flood-opacity="0" result="BackgroundImageFix"/>
<feColorMatrix in="SourceAlpha" type="matrix" values="0 0 0 0 0 0 0 0 0 0 0 0 0 0 0 0 0 0 127 0" result="hardAlpha"/>
<feOffset dy="4.0905"/>
<feGaussianBlur stdDeviation="2.04525"/>
<feComposite in2="hardAlpha" operator="out"/>
<feColorMatrix type="matrix" values="0 0 0 0 0 0 0 0 0 0 0 0 0 0 0 0 0 0 0.25 0"/>
<feBlend mode="normal" in2="BackgroundImageFix" result="effect1_dropShadow_2275_5507"/>
<feBlend mode="normal" in="SourceGraphic" in2="effect1_dropShadow_2275_5507" result="shape"/>
</filter>
<clipPath id="clip0_2275_5507">
<rect width="435.638" height="199.412" fill="white" transform="translate(16.3623 36.2939)"/>
</clipPath>
</defs>
</svg>
