<svg width="20" height="20" viewBox="0 0 20 20" fill="none" xmlns="http://www.w3.org/2000/svg">
<path d="M10 1.66663C5.40002 1.66663 1.66669 5.39996 1.66669 9.99996C1.66669 14.6 5.40002 18.3333 10 18.3333C14.6 18.3333 18.3334 14.6 18.3334 9.99996C18.3334 5.39996 14.6 1.66663 10 1.66663ZM10.8334 15.8333H9.16669V14.1666H10.8334V15.8333ZM12.5584 9.37496L11.8084 10.1416C11.3917 10.5666 11.0917 10.95 10.9417 11.55C10.875 11.8166 10.8334 12.1166 10.8334 12.5H9.16669V12.0833C9.16669 11.7 9.23335 11.3333 9.35002 10.9916C9.51669 10.5083 9.79169 10.075 10.1417 9.72496L11.175 8.67496C11.5584 8.30829 11.7417 7.75829 11.6334 7.17496C11.525 6.57496 11.0584 6.06663 10.475 5.89996C9.55002 5.64163 8.69169 6.16663 8.41669 6.95829C8.31669 7.26663 8.05835 7.49996 7.73335 7.49996H7.48335C7.00002 7.49996 6.66669 7.03329 6.80002 6.56663C7.15835 5.34163 8.20002 4.40829 9.49169 4.20829C10.7584 4.00829 11.9667 4.66663 12.7167 5.70829C13.7 7.06663 13.4084 8.52496 12.5584 9.37496Z" fill="#637381"/>
</svg>
