<svg width="39" height="41" viewBox="0 0 39 41" fill="none" xmlns="http://www.w3.org/2000/svg">
<path d="M19.509 0.344482C14.4348 0.344482 9.56847 2.46914 5.98043 6.25099C2.39261 10.0331 0.376953 15.1626 0.376953 20.5112C0.376953 25.8597 2.39261 30.9893 5.98043 34.7713C9.56847 38.5532 14.4349 40.6779 19.509 40.6779C24.5831 40.6779 29.4495 38.5532 33.0376 34.7713C36.6254 30.9893 38.6411 25.8597 38.6411 20.5112C38.6411 16.9712 37.7571 13.4937 36.0779 10.4279C34.3987 7.36218 31.9836 4.81644 29.0751 3.04648C26.1667 1.27652 22.8675 0.344713 19.5092 0.344713L19.509 0.344482ZM19.509 37.9885C15.1115 37.9885 10.8942 36.1471 7.78429 32.8695C4.6748 29.5918 2.92786 25.1463 2.92786 20.5107C2.92786 15.8751 4.6748 11.43 7.78429 8.15194C10.8938 4.87429 15.1112 3.03288 19.509 3.03288C23.9068 3.03288 28.1238 4.87429 31.2337 8.15194C34.3432 11.4296 36.0901 15.8751 36.0901 20.5107C36.0901 25.1463 34.3432 29.5914 31.2337 32.8695C28.1242 36.1471 23.9068 37.9885 19.509 37.9885Z" fill="black"/>
<path d="M27.9909 26.4801C26.0974 29.4649 22.9156 31.2568 19.5088 31.2568C16.102 31.2568 12.9205 29.4649 11.0266 26.4801C10.8481 26.162 10.5535 25.9355 10.2118 25.8536C9.86989 25.7716 9.51117 25.8415 9.21966 26.0468C8.92841 26.2521 8.72997 26.575 8.67133 26.9393C8.61268 27.3036 8.69866 27.6772 8.90933 27.9725C10.4698 30.4297 12.7554 32.2762 15.4119 33.226C18.0687 34.1755 20.9482 34.1755 23.6047 33.226C26.2612 32.2762 28.5468 30.4297 30.1073 27.9725C30.3179 27.6772 30.4039 27.3036 30.3453 26.9393C30.2866 26.575 30.0882 26.2521 29.7969 26.0468C29.5054 25.8415 29.1467 25.7716 28.8048 25.8536C28.4631 25.9355 28.1685 26.162 27.9899 26.4801H27.9909Z" fill="black"/>
<path d="M15.6828 15.8055C15.6828 16.9191 14.8261 17.8221 13.7696 17.8221C12.7131 17.8221 11.8564 16.9191 11.8564 15.8055C11.8564 14.6918 12.7131 13.7888 13.7696 13.7888C14.8261 13.7888 15.6828 14.6918 15.6828 15.8055Z" fill="black"/>
<path d="M27.1618 15.8055C27.1618 16.9191 26.3051 17.8221 25.2486 17.8221C24.1921 17.8221 23.3354 16.9191 23.3354 15.8055C23.3354 14.6918 24.1921 13.7888 25.2486 13.7888C26.3051 13.7888 27.1618 14.6918 27.1618 15.8055Z" fill="black"/>
</svg>
