<svg width="934" height="934" viewBox="0 0 934 934" fill="none" xmlns="http://www.w3.org/2000/svg">
<path fill-rule="evenodd" clip-rule="evenodd" d="M466.628 49.2451C287.868 49.2451 142.574 194.538 142.574 373.378C142.574 552.218 287.868 697.432 466.628 697.432C645.454 697.432 790.761 552.218 790.761 373.378C790.761 194.538 645.468 49.2451 466.628 49.2451ZM466.628 79.1091C629.321 79.1091 760.894 210.677 760.894 373.376C760.894 536.069 629.332 667.562 466.628 667.562C304.014 667.562 172.441 536.068 172.441 373.376C172.441 210.682 304.014 79.1091 466.628 79.1091V79.1091Z" fill="black"/>
<path fill-rule="evenodd" clip-rule="evenodd" d="M339.735 222.333C333.386 222.437 327.797 226.547 325.803 232.573C323.803 238.604 325.839 245.234 330.871 249.103L399.412 303.385L399.417 303.39C402.511 305.932 406.5 307.13 410.49 306.703C414.474 306.275 418.12 304.265 420.61 301.124C423.099 297.984 424.219 293.968 423.719 289.994C423.219 286.015 421.146 282.406 417.954 279.973L349.412 225.692C346.683 223.468 343.256 222.281 339.735 222.333L339.735 222.333Z" fill="black"/>
<path fill-rule="evenodd" clip-rule="evenodd" d="M363.815 288.854C348.008 288.854 334.846 301.942 334.846 317.75C334.846 333.556 348.007 346.719 363.815 346.719C379.623 346.719 392.711 333.552 392.711 317.75C392.711 301.938 379.622 288.854 363.815 288.854ZM363.815 316.854C364.091 316.854 364.711 317.473 364.711 317.749C364.711 318.176 364.091 318.718 363.815 318.718C363.388 318.718 362.846 318.176 362.846 317.749C362.846 317.473 363.388 316.854 363.815 316.854Z" fill="black"/>
<path fill-rule="evenodd" clip-rule="evenodd" d="M593.148 222.333C589.783 222.385 586.533 223.567 583.924 225.692L515.382 279.974C512.19 282.406 510.117 286.015 509.617 289.994C509.117 293.968 510.236 297.984 512.726 301.125C515.216 304.265 518.862 306.276 522.846 306.703C526.835 307.13 530.825 305.932 533.919 303.39L602.46 249.109L602.465 249.104C607.564 245.182 609.575 238.437 607.46 232.358C605.351 226.286 599.58 222.244 593.148 222.332L593.148 222.333Z" fill="black"/>
<path fill-rule="evenodd" clip-rule="evenodd" d="M569.521 288.854C553.709 288.854 540.625 301.942 540.625 317.75C540.625 333.556 553.714 346.719 569.521 346.719C585.329 346.719 598.49 333.552 598.49 317.75C598.49 301.938 585.324 288.854 569.521 288.854ZM569.521 316.854C569.948 316.854 570.49 317.473 570.49 317.749C570.49 318.176 569.948 318.718 569.521 318.718C569.245 318.718 568.625 318.176 568.625 317.749C568.625 317.473 569.245 316.854 569.521 316.854Z" fill="black"/>
<path fill-rule="evenodd" clip-rule="evenodd" d="M361.733 392.16C338.067 392.16 318.332 411.613 318.332 435.327V499.728C318.332 523.411 338.02 542.895 361.733 542.895H571.733C595.447 542.895 614.9 523.359 614.9 499.728V435.327C614.9 411.66 595.4 392.16 571.733 392.16H361.733ZM361.733 422.024H405.369V452.592H348.203V435.327C348.203 427.978 354.343 422.025 361.739 422.025L361.733 422.024ZM435.233 422.024H497.999V452.592H435.233V422.024ZM527.869 422.024H571.733C579.129 422.024 585.036 427.93 585.036 435.326V452.592H527.869L527.869 422.024ZM348.203 482.456H405.369V513.024H361.733C354.384 513.024 348.197 506.956 348.197 499.722V482.457L348.203 482.456ZM435.233 482.456H497.999V513.024H435.233V482.456ZM527.869 482.456H585.036V499.721C585.036 507.003 579.083 513.024 571.734 513.024H527.87L527.869 482.456Z" fill="black"/>
</svg>
