<svg width="934" height="934" viewBox="0 0 934 934" fill="none" xmlns="http://www.w3.org/2000/svg">
<path d="M466.666 112C535.978 112 602.453 139.531 651.453 188.542C700.453 237.552 727.994 304.02 727.994 373.328C727.994 442.636 700.463 509.115 651.453 558.115C602.442 607.115 535.974 634.656 466.666 634.656C397.358 634.656 330.879 607.126 281.879 558.115C232.879 509.104 205.338 442.636 205.338 373.328C205.338 327.454 217.411 282.391 240.349 242.662C263.286 202.932 296.275 169.943 336.005 147.005C375.734 124.068 420.797 111.995 466.671 111.995M466.671 74.6615C387.458 74.6615 311.498 106.131 255.485 162.14C199.471 218.149 168.006 294.113 168.006 373.327C168.006 452.54 199.475 528.5 255.485 584.514C311.494 640.527 387.458 671.992 466.671 671.992C545.885 671.992 621.845 640.523 677.858 584.514C733.871 528.504 765.337 452.54 765.337 373.327C765.337 320.9 751.534 269.395 725.321 223.993C699.107 178.592 661.403 140.889 616.003 114.676C570.602 88.4628 519.097 74.6602 466.67 74.6602L466.671 74.6615Z" fill="black"/>
<path d="M332.267 347.2C323.584 347.237 316.021 341.279 314.027 332.831C312.032 324.378 316.126 315.664 323.907 311.81L350.262 298.669L323.902 285.528H323.907C314.777 280.862 311.115 269.706 315.709 260.544C320.303 251.378 331.428 247.628 340.63 252.154L400.365 282.018C406.677 285.184 410.667 291.643 410.667 298.706C410.667 305.769 406.677 312.232 400.365 315.394L340.63 345.258V345.263C338.031 346.549 335.167 347.216 332.266 347.2H332.267Z" fill="black"/>
<path d="M601.065 347.2C598.164 347.216 595.3 346.549 592.701 345.263L532.966 315.399V315.394C526.654 312.232 522.664 305.769 522.664 298.706C522.664 291.643 526.654 285.184 532.966 282.018L592.701 252.154C597.133 249.888 602.284 249.487 607.013 251.039C611.742 252.591 615.654 255.966 617.883 260.414C620.112 264.862 620.471 270.013 618.883 274.731C617.299 279.445 613.893 283.33 609.424 285.528L583.07 298.669L609.43 311.81H609.424C617.206 315.664 621.299 324.377 619.305 332.831C617.31 341.279 609.747 347.238 601.065 347.2L601.065 347.2Z" fill="black"/>
<path d="M567.092 511.467C562.196 511.462 557.504 509.529 554.025 506.086C530.718 483.154 499.327 470.305 466.628 470.305C433.931 470.305 402.54 483.154 379.232 506.086C375.722 509.654 370.936 511.67 365.93 511.675C360.93 511.675 356.133 509.675 352.623 506.112C349.113 502.55 347.175 497.727 347.248 492.727C347.326 487.722 349.404 482.962 353.024 479.508C383.316 449.711 424.103 433.014 466.592 433.014C509.081 433.014 549.868 449.711 580.16 479.508C585.546 484.821 587.191 492.858 584.332 499.863C581.467 506.868 574.66 511.446 567.092 511.467L567.092 511.467Z" fill="black"/>
</svg>
