<svg width="934" height="934" viewBox="0 0 934 934" fill="none" xmlns="http://www.w3.org/2000/svg">
<path d="M464.906 416.24C449.89 416.672 435.636 422.938 425.166 433.713C414.703 444.484 408.844 458.911 408.844 473.932V582.115C408.844 602.74 419.849 621.792 437.704 632.104C455.564 642.411 477.568 642.411 495.428 632.104C513.288 621.792 524.288 602.74 524.288 582.115V473.932C524.288 458.339 517.975 443.405 506.788 432.536C495.605 421.672 480.496 415.791 464.908 416.239L464.906 416.24ZM465.057 430.819V430.824C476.781 430.407 488.172 434.761 496.636 442.881C505.095 451.001 509.912 462.204 509.98 473.933V582.116C509.735 597.455 501.412 611.523 488.089 619.121C474.761 626.72 458.417 626.72 445.089 619.121C431.767 611.522 423.444 597.455 423.199 582.116V473.933C423.261 462.735 427.657 451.996 435.459 443.96C443.261 435.929 453.866 431.22 465.058 430.824L465.057 430.819Z" fill="black"/>
<path d="M321.599 244.987C299.917 245.58 279.329 254.617 264.219 270.18C249.11 285.737 240.678 306.581 240.725 328.268C240.72 350.325 249.475 371.476 265.069 387.075C280.662 402.673 301.814 411.435 323.871 411.435C345.923 411.435 367.074 402.674 382.669 387.075C398.262 371.476 407.023 350.325 407.013 328.268C407.06 305.795 398.008 284.257 381.914 268.571C365.826 252.883 344.065 244.377 321.602 244.987H321.599ZM322.058 259.268H322.053C340.657 258.773 358.667 265.825 371.979 278.825C385.291 291.825 392.777 309.659 392.725 328.268C392.725 352.861 379.605 375.585 358.309 387.877C337.011 400.174 310.773 400.174 289.475 387.877C268.178 375.586 255.059 352.861 255.059 328.268C255.007 310.299 261.986 293.017 274.507 280.128C287.028 267.232 304.091 259.748 322.054 259.268H322.058Z" fill="black"/>
<path d="M607.039 244.987C585.356 245.58 564.768 254.617 549.659 270.18C534.55 285.737 526.118 306.581 526.164 328.268C526.159 350.325 534.914 371.476 550.508 387.075C566.102 402.673 587.254 411.435 609.311 411.435C631.363 411.435 652.514 402.674 668.108 387.075C683.702 371.476 692.463 350.325 692.452 328.268C692.499 305.795 683.447 284.257 667.354 268.571C651.266 252.883 629.504 244.377 607.042 244.987H607.039ZM607.497 259.268H607.492C626.096 258.773 644.107 265.825 657.419 278.825C670.731 291.825 678.216 309.659 678.164 328.268C678.456 346.705 671.331 364.492 658.393 377.637C645.461 390.778 627.789 398.179 609.347 398.179C590.904 398.179 573.232 390.778 560.295 377.637C547.357 364.491 540.237 346.705 540.529 328.268C540.477 310.304 547.451 293.028 559.967 280.137C572.477 267.241 589.535 259.757 607.493 259.268H607.497Z" fill="black"/>
<path d="M478.799 31.3284C403.211 28.6357 328.852 51.0577 267.359 95.0991C205.864 139.14 160.692 202.312 138.9 274.739C117.114 347.176 119.936 424.792 146.932 495.446C134.541 514.618 133.14 538.888 143.244 559.358C166.551 606.612 182.255 657.254 189.771 709.411L203.937 707.39C196.198 653.734 180.041 601.641 156.057 553.03C149.24 539.186 149.115 522.989 155.724 509.046C162.339 495.104 174.953 484.948 189.984 481.462C205.015 477.983 220.812 481.556 232.88 491.171C265.801 517.4 292.708 550.4 311.771 587.925C330.839 625.456 341.62 666.639 343.385 708.696L357.677 708.102C357.532 704.581 357.329 701.061 357.068 697.54C428.147 721.566 505.148 721.566 576.241 697.54C575.976 701.06 575.773 704.581 575.632 708.102L589.935 708.696C591.706 666.639 602.487 625.456 621.549 587.925C640.617 550.399 667.519 517.399 700.44 491.171C712.508 481.577 728.3 478.019 743.315 481.509C758.331 484.999 770.935 495.149 777.544 509.077C784.148 523.009 784.034 539.192 777.232 553.03C753.253 601.64 737.092 653.733 729.357 707.39L743.524 709.411C751.044 657.261 766.748 606.619 790.06 559.358C800.174 538.894 798.784 514.623 786.403 495.446C812.409 427.383 816.007 352.806 796.679 282.553C777.357 212.302 736.111 150.053 678.955 104.873C621.799 59.6845 551.71 33.9192 478.902 31.3312L478.799 31.3284ZM462.851 45.4644C533.502 44.6571 602.531 66.6991 659.638 108.298C716.752 149.902 758.898 208.834 779.799 276.324C800.706 343.819 799.247 416.258 775.643 482.858C764.252 472.41 749.503 466.374 734.055 465.842C718.607 465.305 703.471 470.305 691.388 479.94C628.7 529.899 587.945 602.31 577.757 681.82C505.893 707.727 427.238 707.727 355.371 681.82C345.183 602.315 304.428 529.9 241.745 479.94C229.657 470.315 214.532 465.315 199.089 465.852C183.652 466.389 168.907 472.42 157.516 482.858C134.199 417.06 132.485 345.538 152.631 278.698C172.776 211.864 213.724 153.198 269.521 111.244C325.313 69.2911 393.043 46.2391 462.841 45.4471L462.851 45.4644Z" fill="black"/>
</svg>
