<svg width="934" height="934" viewBox="0 0 934 934" fill="none" xmlns="http://www.w3.org/2000/svg">
<path d="M292.654 367.653C287.128 367.653 281.753 364.518 279.217 359.216C275.633 351.747 278.769 342.861 286.159 339.278L351.268 307.918L285.638 273.2C278.32 269.319 275.56 260.283 279.44 253.038C283.32 245.721 292.357 242.96 299.601 246.84L391.367 295.371C396.372 297.986 399.429 303.21 399.283 308.887C399.21 314.486 395.924 319.637 390.846 322.028L299.08 366.23C297.06 367.204 294.82 367.652 292.653 367.652L292.654 367.653Z" fill="black"/>
<path d="M466.707 67.197C635.534 67.197 772.841 204.504 772.841 373.33C772.841 542.157 635.534 679.464 466.707 679.464C297.881 679.464 160.494 542.157 160.494 373.33C160.494 204.504 297.881 67.197 466.707 67.197M466.707 37.333C281.094 37.333 130.641 187.786 130.641 373.333C130.641 558.88 281.094 709.333 466.641 709.333C652.187 709.333 802.641 558.88 802.641 373.333C802.641 187.786 652.254 37.333 466.707 37.333V37.333Z" fill="black"/>
<path d="M640.681 367.653C638.515 367.653 636.275 367.205 634.186 366.159L542.421 321.956C537.343 319.492 534.057 314.414 533.984 308.815C533.911 303.216 536.968 297.987 541.9 295.299L633.666 246.769C640.983 242.888 650.02 245.722 653.827 252.966C657.707 260.284 654.874 269.321 647.629 273.128L581.999 307.846L647.108 339.206C654.577 342.79 657.634 351.675 654.051 359.144C651.582 364.597 646.207 367.654 640.681 367.654L640.681 367.653Z" fill="black"/>
<path d="M654.267 472.639H279.067C270.853 472.639 264.135 465.921 264.135 457.707C264.135 449.494 270.854 442.775 279.067 442.775H654.187C662.4 442.775 669.119 449.494 669.119 457.707C669.119 465.921 662.473 472.639 654.259 472.639H654.267Z" fill="black"/>
</svg>
