<svg width="934" height="934" viewBox="0 0 934 934" fill="none" xmlns="http://www.w3.org/2000/svg">
<path d="M466.666 112C535.978 112 602.453 139.531 651.453 188.542C700.453 237.552 727.994 304.02 727.994 373.328C727.994 442.636 700.463 509.115 651.453 558.115C602.442 607.115 535.974 634.656 466.666 634.656C397.358 634.656 330.879 607.126 281.879 558.115C232.879 509.104 205.338 442.636 205.338 373.328C205.338 327.454 217.411 282.391 240.349 242.662C263.286 202.932 296.275 169.943 336.005 147.005C375.734 124.068 420.797 111.995 466.671 111.995M466.671 74.6615C387.458 74.6615 311.498 106.131 255.485 162.14C199.471 218.149 168.006 294.113 168.006 373.327C168.006 452.54 199.475 528.5 255.485 584.514C311.494 640.527 387.458 671.992 466.671 671.992C545.885 671.992 621.845 640.523 677.858 584.514C733.871 528.504 765.337 452.54 765.337 373.327C765.337 320.9 751.534 269.395 725.321 223.993C699.107 178.592 661.403 140.889 616.003 114.676C570.602 88.4628 519.097 74.6602 466.67 74.6602L466.671 74.6615Z" fill="black"/>
<path d="M466.666 472.04C417.24 472.243 370.453 449.759 339.734 411.04C335.265 405.384 334.448 397.66 337.641 391.196C340.833 384.732 347.458 380.686 354.667 380.8H578.667C585.902 380.665 592.563 384.722 595.761 391.212C598.958 397.706 598.115 405.462 593.599 411.113C562.864 449.806 516.078 472.258 466.667 472.04L466.666 472.04ZM404.396 418.133C442.953 440.284 490.38 440.284 528.937 418.133H404.396Z" fill="black"/>
<path d="M610.319 317.334C604.043 317.35 598.178 314.204 594.715 308.969C591.757 302.813 585.533 298.902 578.699 298.902C571.871 298.902 565.642 302.813 562.683 308.969C560.069 313.344 555.782 316.459 550.819 317.589C545.85 318.725 540.636 317.777 536.387 314.975C532.137 312.172 529.215 307.751 528.298 302.74C527.387 297.73 528.558 292.563 531.548 288.438C541.465 271.823 559.387 261.646 578.736 261.646C598.085 261.646 616.012 271.823 625.929 288.438C629.726 294.177 630.06 301.536 626.799 307.594C623.534 313.651 617.205 317.422 610.32 317.406L610.319 317.334Z" fill="black"/>
<path d="M386.253 317.334C379.977 317.35 374.112 314.204 370.649 308.969C367.69 302.813 361.461 298.902 354.633 298.902C347.799 298.902 341.575 302.813 338.617 308.969C336.002 313.344 331.716 316.459 326.747 317.589C321.783 318.725 316.57 317.777 312.32 314.975C308.065 312.172 305.143 307.751 304.232 302.74C303.315 297.73 304.492 292.563 307.482 288.438C317.398 271.823 335.32 261.646 354.67 261.646C374.019 261.646 391.94 271.823 401.858 288.438C405.66 294.177 405.993 301.536 402.728 307.594C399.467 313.651 393.134 317.422 386.254 317.406L386.253 317.334Z" fill="black"/>
</svg>
