<svg width="39" height="39" viewBox="0 0 934 934" fill="none" xmlns="http://www.w3.org/2000/svg">
<path d="M466.666 50.5576C288.693 50.5576 143.893 195.358 143.893 373.331C143.893 551.304 288.693 696.104 466.666 696.104C644.639 696.104 789.439 551.304 789.439 373.331C789.439 195.358 644.639 50.5576 466.666 50.5576V50.5576ZM466.666 672.771C301.546 672.771 167.226 538.438 167.226 373.331C167.226 208.224 301.559 73.891 466.666 73.891C631.773 73.891 766.106 208.224 766.106 373.331C766.106 538.438 631.773 672.771 466.666 672.771V672.771Z" fill="black"/>
<path d="M395.613 308.907C395.613 276.481 369.233 250.101 336.807 250.101C304.38 250.101 278 276.481 278 308.907C278 341.334 304.38 367.714 336.807 367.714C369.233 367.714 395.613 341.329 395.613 308.907V308.907ZM301.332 308.897C301.332 289.334 317.244 273.424 336.805 273.424C356.367 273.424 372.279 289.335 372.279 308.897C372.279 328.458 356.367 344.37 336.805 344.37C317.248 344.37 301.332 328.458 301.332 308.897V308.897Z" fill="black"/>
<path d="M596.519 250.107C564.087 250.107 537.701 276.487 537.701 308.914C537.701 341.341 564.081 367.721 596.519 367.721C628.945 367.721 655.325 341.341 655.325 308.914C655.325 276.487 628.945 250.107 596.519 250.107V250.107ZM596.519 344.378C576.951 344.378 561.035 328.466 561.035 308.905C561.035 289.343 576.947 273.431 596.519 273.431C616.081 273.431 631.992 289.343 631.992 308.905C631.992 328.466 616.08 344.378 596.519 344.378Z" fill="black"/>
<path d="M466.667 499.12C393.849 499.12 334.609 541.453 334.609 593.505V601.281H357.943V593.505C357.943 554.328 406.719 522.453 466.667 522.453C526.62 522.453 575.385 554.328 575.385 593.505V601.281H598.719V593.505C598.724 541.453 539.484 499.12 466.667 499.12Z" fill="black"/>
</svg>
