<svg width="41" height="41" viewBox="0 0 41 41" fill="none" xmlns="http://www.w3.org/2000/svg">
<path d="M20.3333 0C9.1218 0 0 9.1218 0 20.3333C0 31.5447 9.1218 40.6665 20.3333 40.6665C31.5447 40.6665 40.6665 31.5447 40.6665 20.3333C40.6665 9.1218 31.5447 0 20.3333 0ZM20.3333 38.6948C10.2089 38.6948 1.97171 30.4578 1.97171 20.3333C1.97171 10.2087 10.2087 1.97171 20.3333 1.97171C30.4578 1.97171 38.6948 10.2087 38.6948 20.3333C38.6948 30.4578 30.4578 38.6948 20.3333 38.6948Z" fill="black"/>
<path d="M29.9356 15.0836C30.1353 16.3152 29.2991 17.4757 28.0675 17.6754C26.8359 17.8755 25.6754 17.039 25.4753 15.8073C25.2755 14.5757 26.1121 13.4152 27.3437 13.2155C28.5754 13.0154 29.7358 13.8519 29.9356 15.0836Z" fill="black"/>
<path d="M13.8249 13.3574C14.9778 13.835 15.5252 15.1564 15.0476 16.3093C14.5704 17.4622 13.2486 18.0095 12.0958 17.532C10.9432 17.0544 10.3959 15.733 10.8731 14.5801C11.3507 13.4272 12.6724 12.8799 13.8249 13.3574Z" fill="black"/>
<path d="M29.4946 27.4393H11.1718C10.6275 27.4393 10.186 27.8808 10.186 28.4251C10.186 28.9694 10.6275 29.4109 11.1718 29.4109H29.4946C30.0389 29.4109 30.4804 28.9694 30.4804 28.4251C30.4804 27.8808 30.0389 27.4393 29.4946 27.4393Z" fill="black"/>
</svg>
