<svg width="32" height="32" viewBox="0 0 32 32" fill="none" xmlns="http://www.w3.org/2000/svg">
<path d="M15.9993 27.9948C23.3631 27.9948 29.3327 22.0253 29.3327 14.6615C29.3327 7.29766 23.3631 1.32812 15.9993 1.32812C8.63555 1.32812 2.66602 7.29766 2.66602 14.6615C2.66602 22.0253 8.63555 27.9948 15.9993 27.9948Z" fill="#FFF59D"/>
<path d="M24.6673 14.6667C24.6673 9.53333 20.2673 5.46666 15.0006 6.06666C11.0006 6.53333 7.8006 9.73333 7.4006 13.7333C7.06727 16.8 8.33393 19.5333 10.4673 21.2667C11.4006 22.0667 12.0006 23.2 12.0006 24.4667V24.6667H20.0006V24.6C20.0006 23.4 20.5339 22.2 21.4673 21.4C23.4006 19.8 24.6673 17.4 24.6673 14.6667Z" fill="#FBC02D"/>
<path d="M20.4004 13.4646L18.4004 12.1313C18.2004 11.9979 17.8671 11.9979 17.6671 12.1313L16.0004 13.1979L14.4004 12.1313C14.2004 11.9979 13.8671 11.9979 13.6671 12.1313L11.6671 13.4646C11.5337 13.5979 11.4004 13.7312 11.4004 13.9312C11.4004 14.1312 11.4004 14.3312 11.5337 14.4646L14.0671 17.5979V24.6646H15.4004V17.3312C15.4004 17.1979 15.3337 17.0646 15.2671 16.9312L13.0671 14.1979L14.0671 13.5312L15.6671 14.5979C15.8671 14.7312 16.2004 14.7312 16.4004 14.5979L18.0004 13.5312L19.0004 14.1979L16.8004 16.9312C16.7337 17.0646 16.6671 17.1979 16.6671 17.3312V24.6646H18.0004V17.5979L20.5337 14.4646C20.6671 14.3312 20.7337 14.1312 20.6671 13.9312C20.6004 13.7312 20.5337 13.5312 20.4004 13.4646Z" fill="#FFF59D"/>
<path d="M16 31.3281C17.1046 31.3281 18 30.4327 18 29.3281C18 28.2236 17.1046 27.3281 16 27.3281C14.8954 27.3281 14 28.2236 14 29.3281C14 30.4327 14.8954 31.3281 16 31.3281Z" fill="#5C6BC0"/>
<path d="M17.3333 30H14.6667C13.2 30 12 28.8 12 27.3333V24H20V27.3333C20 28.8 18.8 30 17.3333 30Z" fill="#9FA8DA"/>
<path d="M20 27.3385L12.2667 28.4052C12.4667 28.8719 12.8667 29.3385 13.3333 29.6052L19.6 28.7385C19.8667 28.3385 20 27.8719 20 27.3385ZM12 25.8052V27.1385L20 26.0052V24.6719L12 25.8052Z" fill="#5C6BC0"/>
</svg>
