<svg width="24" height="24" viewBox="0 0 24 24" fill="none" xmlns="http://www.w3.org/2000/svg">
<g id="airplane-side-view-in-flight-svgrepo-com 2" clip-path="url(#clip0_435_1932)">
<g id="Group">
<g id="Group_2">
<path id="Vector" d="M19.1565 1.47985C18.2004 2.43498 16.7939 3.98041 15.3955 5.55532L9.9068 7.047C9.85971 7.05984 9.81785 7.08648 9.78694 7.12406L8.28051 8.92872C8.22106 8.99959 8.20869 9.09805 8.24769 9.18177C8.2867 9.26549 8.37089 9.31876 8.46317 9.31876H11.4755C11.6068 9.31876 11.7134 9.21174 11.7134 9.08093C11.7134 8.94965 11.6068 8.8431 11.4755 8.8431H8.97117L10.1037 7.48556L14.8199 6.20413C12.855 8.42927 11.0313 10.5583 10.6531 11.0021H5.76807C5.70052 11.0021 5.63583 11.0311 5.59064 11.0816L4.24309 12.5875C4.18792 12.6503 4.16889 12.7359 4.19267 12.8154C4.21646 12.8948 4.2802 12.9557 4.36011 12.9776L8.69244 14.1082L10.3891 17.6852C10.4219 17.7546 10.4871 17.8041 10.5637 17.8169C10.577 17.8198 10.5908 17.8207 10.6041 17.8207C10.6664 17.8207 10.7273 17.7955 10.7725 17.7513L12.8335 15.6903C12.8773 15.6465 12.902 15.5889 12.903 15.5276L12.9791 12.4714L16.3601 9.91667L17.104 16.3424C17.114 16.4285 17.1711 16.5027 17.252 16.5355C17.3319 16.5664 17.4237 16.5541 17.4917 16.4994L19.3154 15.0139C19.3653 14.972 19.3972 14.9116 19.4024 14.846L20.0298 6.11375L23.9307 2.21285C24.0078 2.13532 24.0216 2.01497 23.965 1.92174C23.9269 1.85705 22.9913 0.343022 21.4521 0.343022C20.6839 0.341595 19.9109 0.724502 19.1565 1.47985ZM23.4556 2.0164L19.6317 5.84025C19.5918 5.88068 19.5656 5.93443 19.5623 5.99151L18.9363 14.7085L17.5288 15.8558L16.7863 9.44862C16.7763 9.36395 16.7211 9.2907 16.6422 9.25788C16.5651 9.22363 16.4738 9.23457 16.4062 9.28689L12.601 12.1613C12.5434 12.2051 12.5082 12.2726 12.5063 12.3454L12.4302 15.4215L10.674 17.1767L9.07439 13.8052C9.04443 13.7415 8.98782 13.6953 8.9198 13.6763L4.8567 12.6161L5.87414 11.4792H10.762C10.8315 11.4792 10.8976 11.4488 10.9428 11.395C11.0018 11.3256 16.9124 4.39614 19.4923 1.81662C20.1554 1.15403 20.8142 0.818208 21.4535 0.818208C22.4633 0.817257 23.1944 1.66298 23.4556 2.0164Z" fill="white" stroke="white" stroke-width="0.8"/>
<path id="Vector_2" d="M9.48345 18.6827L5.51976 22.6464C5.42701 22.7387 5.42701 22.8899 5.51976 22.9827C5.56638 23.0293 5.62726 23.0521 5.68815 23.0521C5.74903 23.0521 5.80991 23.0288 5.85653 22.9827L9.82022 19.019C9.91298 18.9267 9.91298 18.7755 9.82022 18.6827C9.72794 18.5895 9.57621 18.5895 9.48345 18.6827Z" fill="white" stroke="white" stroke-width="0.8"/>
<path id="Vector_3" d="M6.70888 16.8001L0.73314 22.7758C0.640386 22.8681 0.640386 23.0199 0.73314 23.1117C0.779755 23.1592 0.840639 23.1811 0.901524 23.1811C0.962409 23.1811 1.02329 23.1578 1.06991 23.1117L7.04517 17.1359C7.13793 17.0436 7.13793 16.8919 7.04517 16.7996C6.9529 16.7073 6.80164 16.7073 6.70888 16.8001Z" fill="white" stroke="white" stroke-width="0.8"/>
<path id="Vector_4" d="M0.405859 20.1886L4.90467 15.6898C4.99742 15.597 4.99742 15.4458 4.90467 15.3535C4.81191 15.2607 4.66113 15.2607 4.56838 15.3535L0.0695656 19.8523C-0.0231885 19.9451 -0.0231885 20.0963 0.0695656 20.1886C0.11618 20.2357 0.177065 20.2581 0.23795 20.2581C0.298835 20.2581 0.359244 20.2347 0.405859 20.1886Z" fill="white" stroke="white" stroke-width="0.8"/>
<path id="Vector_5" d="M10.4249 23.5871L16.8758 17.1357C16.9681 17.0434 16.9681 16.8917 16.8758 16.7994C16.784 16.7072 16.6318 16.7072 16.5395 16.7994L10.0881 23.2513C9.99537 23.3436 9.99537 23.4953 10.0881 23.5871C10.1347 23.6347 10.1956 23.6566 10.2565 23.6566C10.3174 23.6566 10.3783 23.6337 10.4249 23.5871Z" fill="white" stroke="white" stroke-width="0.8"/>
</g>
</g>
</g>
<defs>
<clipPath id="clip0_435_1932">
<rect width="24" height="24" fill="white"/>
</clipPath>
</defs>
</svg>
