<svg width="125" height="40" viewBox="0 0 125 40" fill="none" xmlns="http://www.w3.org/2000/svg">
<rect x="0.681946" y="0.310303" width="40.6349" height="39.6899" rx="19.845" fill="#D3DAF5"/>
<path d="M19.4936 15.2305C19.4936 15.2305 16.4194 22.7604 24.3253 24.2447C24.3253 24.2447 30.5651 25.1413 31.0828 17.1846C31.0828 17.1846 24.4278 12.9643 19.4936 15.2305" fill="#38B3E4"/>
<path d="M32.2468 29.8714C30.6649 31.3562 28.4615 32.069 25.6811 32.0035C25.7498 31.9637 25.8195 31.9253 25.8882 31.8847C27.9376 30.6709 31.6462 28.1753 33.6358 25.0197C34.1054 24.6573 34.5558 24.2697 34.9852 23.8587C34.77 25.5816 34.1269 28.1075 32.2468 29.8714M17.607 32.3661C15.0735 32.0107 12.8281 30.6005 11.1118 28.2882C10.2525 27.1296 9.93884 25.803 10.1802 24.3449C10.3426 23.3628 10.76 22.3596 11.3712 21.416C13.0703 26.265 15.4142 29.707 18.362 31.6706C18.7861 31.9539 19.2292 32.2068 19.6879 32.4272C18.9838 32.48 18.2875 32.462 17.6069 32.3662M13.2712 11.236C15.1978 8.85868 18.3664 7.38563 21.1545 7.57177C22.8442 7.68419 24.4705 8.23847 25.89 9.16581C22.8624 8.52078 20.4838 8.93414 18.7785 9.59446C15.5478 10.8453 13.9863 13.1869 13.9153 13.2957C12.84 14.9936 12.2611 16.6479 12.1817 18.2373C12.1085 18.3038 12.0376 18.3724 11.9661 18.4406C11.8832 18.142 11.8038 17.8485 11.7301 17.5612C11.1734 15.3943 11.7209 13.1485 13.2712 11.236ZM32.6732 13.7746C32.9052 13.9539 35.9713 16.3917 35.6976 19.6683C34.389 18.6168 33.0911 17.7153 31.8041 16.964C31.7737 15.4667 31.4314 13.9931 30.7998 12.6407C31.4177 12.9818 32.0422 13.3597 32.6732 13.7746M30.3965 25.2238C28.1063 26.1182 25.0675 27.0672 21.8713 26.4611C19.0872 25.933 16.6301 24.32 14.413 21.5533C14.1814 21.1437 13.988 20.7009 13.8514 20.2258C13.7555 19.8919 13.6901 19.5497 13.6562 19.2036C14.5225 18.3864 16.0108 17.2143 18.0528 16.4405L18.0434 16.4698C18.0266 16.5344 17.6366 18.0703 17.9986 19.8545C18.3397 21.5398 19.424 23.7649 22.6468 24.7911L22.708 24.8079C22.7776 24.8236 23.534 24.9862 24.5866 24.9862C25.956 24.9862 27.8263 24.7107 29.3385 23.4766C30.6778 22.3835 31.4767 20.7588 31.7246 18.6371C32.9051 19.3729 34.099 20.2429 35.3063 21.247C35.2717 21.3306 35.2345 21.4141 35.195 21.4987C34.8557 21.9074 32.8169 24.2784 30.3965 25.2238M21.4304 14.1951C21.8318 13.873 22.2662 13.6052 22.7181 13.4092C23.5127 13.064 24.7436 12.7727 26.0945 13.3427C27.3281 13.8716 27.7917 14.5552 27.9971 15.1658C26.1229 14.4946 24.2822 14.158 22.4751 14.1562C22.1255 14.1562 21.7773 14.1692 21.4304 14.1951M19.44 16.885C19.5766 16.5396 19.7435 16.2075 19.9385 15.8926C20.3156 15.8144 20.7051 15.7516 21.1097 15.7087C23.3796 15.4671 25.7374 15.8375 28.1665 16.8105C28.152 16.8863 28.1335 16.9612 28.1111 17.035C27.8178 17.7916 27.2332 18.4795 26.5451 18.8765C26.0372 19.1697 25.248 19.4411 24.371 19.0708C24.0825 18.9485 23.8243 18.7624 23.6151 18.526C23.4066 18.2903 23.2598 18.0161 23.1906 17.7328C23.1227 17.4551 23.1312 17.1447 23.215 16.8593C23.2426 16.766 23.2518 16.6681 23.2422 16.5712C23.2325 16.4743 23.2042 16.3803 23.1588 16.2946C23.1134 16.2089 23.0518 16.1331 22.9776 16.0717C22.9034 16.0102 22.8181 15.9643 22.7264 15.9365C22.6347 15.9087 22.5386 15.8996 22.4434 15.9097C22.3483 15.9199 22.2561 15.949 22.172 15.9955C22.088 16.042 22.0138 16.1049 21.9537 16.1806C21.8935 16.2564 21.8487 16.3435 21.8217 16.4369C21.6628 16.9798 21.6482 17.5521 21.7804 18.091C21.9069 18.6082 22.1681 19.101 22.5345 19.5161C22.8888 19.9163 23.3259 20.2313 23.8143 20.4385C24.9211 20.9056 26.1459 20.8085 27.2621 20.1643C28.2495 19.5947 29.0542 18.6457 29.4739 17.5499C29.4813 17.5304 29.4982 17.4816 29.5186 17.4111C29.7896 17.5435 30.0617 17.683 30.3349 17.8295C30.2195 19.8676 29.583 21.3762 28.4353 22.3162C26.4116 23.9748 23.3614 23.4292 23.046 23.3673C18.4126 21.8681 19.3255 17.3746 19.44 16.8849M28.3999 11.4907C29.4526 12.8644 30.1051 14.4652 30.2954 16.1487C30.0767 16.0403 29.8588 15.9364 29.6416 15.8371C29.6172 15.6327 29.5765 15.4308 29.52 15.2331C29.2055 13.7334 28.269 12.6688 26.6552 11.9767C25.2135 11.3688 23.6551 11.3932 22.1477 12.0476C20.9407 12.5717 19.8632 13.4669 19.0584 14.5758C16.8519 15.1283 15.1153 16.1392 13.8772 17.0811C13.8568 17.0815 13.8363 17.0842 13.816 17.0865C14.0453 16.1252 14.4836 15.1322 15.1308 14.1074C15.1437 14.0871 16.4944 12.0626 19.2953 10.9781C21.9561 9.9482 25.0497 10.1325 28.3999 11.4907ZM22.6495 31.7876C21.8701 31.6968 20.5495 31.3847 19.0567 30.3633C16.5508 28.65 14.7652 25.8053 13.505 22.8629C15.1424 25.2979 17.7246 26.5235 17.8617 26.5876L17.8865 26.5321C19.0709 27.2086 20.3105 27.6701 21.6052 27.9165C22.2192 28.0325 22.9742 28.1355 23.9075 28.1355C25.4504 28.1355 27.4812 27.8528 30.1597 26.8888C28.3262 28.632 26.2205 29.9753 25.1576 30.6055C24.3276 31.0965 23.4888 31.4899 22.6495 31.7876M35.9642 15.2914C34.9213 13.6237 33.5736 12.6114 33.5169 12.5689L33.4836 12.5459C31.9966 11.5652 30.5993 10.8182 29.2929 10.2607C29.0848 10.0083 28.8661 9.7625 28.6337 9.52584C26.645 7.49773 24.0224 6.27943 21.2495 6.09469C17.9689 5.87517 14.3948 7.52429 12.1498 10.2937C10.2942 12.5825 9.64562 15.2963 10.3235 17.9356C10.4791 18.5409 10.6428 19.1285 10.8145 19.6986C9.73526 21.0582 8.99533 22.5949 8.74642 24.0987C8.44033 25.9475 8.85735 27.7051 9.95171 29.1804C11.9058 31.8138 14.484 33.4223 17.4082 33.8329C17.9135 33.9036 18.4229 33.9389 18.9329 33.9386C20.2135 33.9386 21.5209 33.72 22.8252 33.2904C23.1099 33.3089 23.3202 33.3039 23.4368 33.2967C24.3458 33.4254 25.2119 33.4897 26.0351 33.4896C29.0298 33.4896 31.4462 32.6399 33.2409 30.952C36.5085 27.8767 36.5702 23.0837 36.5432 22.0507C37.5497 19.8459 37.3536 17.5133 35.9642 15.2914" fill="#231F20"/>
<path d="M52.9055 13.9091V27H50.1378V13.9091H52.9055ZM66.1323 13.9091V27H63.7417L58.0463 18.7607H57.9505V27H55.1827V13.9091H57.6117L63.2623 22.142H63.3773V13.9091H66.1323ZM79.9695 18.4922H77.1697C77.1186 18.13 77.0142 17.8082 76.8565 17.527C76.6989 17.2415 76.4964 16.9986 76.2493 16.7983C76.0021 16.598 75.7166 16.4446 75.3928 16.3381C75.0732 16.2315 74.7259 16.1783 74.3509 16.1783C73.6733 16.1783 73.0831 16.3466 72.5803 16.6832C72.0774 17.0156 71.6875 17.5014 71.4105 18.1406C71.1335 18.7756 70.995 19.5469 70.995 20.4545C70.995 21.3878 71.1335 22.1719 71.4105 22.8068C71.6918 23.4418 72.0838 23.9212 72.5866 24.245C73.0895 24.5689 73.6712 24.7308 74.3317 24.7308C74.7024 24.7308 75.0455 24.6818 75.3608 24.5838C75.6804 24.4858 75.9638 24.343 76.2109 24.1555C76.4581 23.9638 76.6626 23.7315 76.8246 23.4588C76.9908 23.1861 77.1058 22.875 77.1697 22.5256L79.9695 22.5384C79.897 23.1392 79.7159 23.7188 79.4261 24.277C79.1406 24.831 78.755 25.3274 78.2692 25.7663C77.7876 26.201 77.2124 26.5462 76.5433 26.8018C75.8786 27.0533 75.1264 27.179 74.2869 27.179C73.1193 27.179 72.0753 26.9148 71.1548 26.3864C70.2386 25.858 69.5142 25.093 68.9815 24.0916C68.4531 23.0902 68.1889 21.8778 68.1889 20.4545C68.1889 19.027 68.4574 17.8125 68.9943 16.8111C69.5313 15.8097 70.2599 15.0469 71.1804 14.5227C72.1009 13.9943 73.1364 13.7301 74.2869 13.7301C75.0455 13.7301 75.7486 13.8366 76.3963 14.0497C77.0483 14.2628 77.6257 14.5739 78.1286 14.983C78.6314 15.3878 79.0405 15.8842 79.3558 16.4723C79.6754 17.0604 79.88 17.7337 79.9695 18.4922ZM84.7219 13.9091V27H81.9542V13.9091H84.7219ZM89.3642 13.9091L92.5282 23.8551H92.6497L95.8201 13.9091H98.8883L94.3755 27H90.8088L86.2896 13.9091H89.3642ZM108.55 13.9091H111.318V22.4105C111.318 23.3651 111.09 24.2003 110.634 24.9162C110.182 25.6321 109.549 26.1903 108.735 26.5909C107.921 26.9872 106.973 27.1854 105.891 27.1854C104.804 27.1854 103.854 26.9872 103.04 26.5909C102.226 26.1903 101.593 25.6321 101.142 24.9162C100.69 24.2003 100.464 23.3651 100.464 22.4105V13.9091H103.232V22.174C103.232 22.6726 103.34 23.1158 103.558 23.5036C103.779 23.8913 104.09 24.196 104.491 24.4176C104.892 24.6392 105.358 24.75 105.891 24.75C106.428 24.75 106.894 24.6392 107.291 24.4176C107.691 24.196 108 23.8913 108.218 23.5036C108.439 23.1158 108.55 22.6726 108.55 22.174V13.9091ZM120.696 17.674C120.645 17.1584 120.426 16.7578 120.038 16.4723C119.65 16.1868 119.124 16.044 118.459 16.044C118.007 16.044 117.626 16.108 117.315 16.2358C117.004 16.3594 116.765 16.532 116.599 16.7536C116.437 16.9751 116.356 17.2266 116.356 17.5078C116.348 17.7422 116.397 17.9467 116.503 18.1214C116.614 18.2962 116.765 18.4474 116.957 18.5753C117.149 18.6989 117.37 18.8075 117.622 18.9013C117.873 18.9908 118.142 19.0675 118.427 19.1314L119.603 19.4126C120.174 19.5405 120.699 19.7109 121.176 19.924C121.653 20.1371 122.066 20.3991 122.416 20.7102C122.765 21.0213 123.036 21.3878 123.228 21.8097C123.424 22.2315 123.524 22.7152 123.528 23.2607C123.524 24.0618 123.319 24.7564 122.914 25.3445C122.514 25.9283 121.934 26.3821 121.176 26.706C120.422 27.0256 119.512 27.1854 118.446 27.1854C117.39 27.1854 116.469 27.0234 115.685 26.6996C114.905 26.3757 114.296 25.8963 113.857 25.2614C113.422 24.6222 113.194 23.8317 113.173 22.8899H115.851C115.881 23.3288 116.007 23.6953 116.228 23.9893C116.454 24.2791 116.755 24.4986 117.13 24.6477C117.509 24.7926 117.937 24.8651 118.414 24.8651C118.883 24.8651 119.29 24.7969 119.635 24.6605C119.985 24.5241 120.255 24.3345 120.447 24.0916C120.639 23.8487 120.735 23.5696 120.735 23.2543C120.735 22.9602 120.647 22.7131 120.473 22.5128C120.302 22.3125 120.051 22.142 119.718 22.0014C119.39 21.8608 118.988 21.733 118.51 21.6179L117.085 21.2599C115.981 20.9915 115.11 20.5717 114.471 20.0007C113.831 19.4297 113.514 18.6605 113.518 17.6932C113.514 16.9006 113.725 16.2081 114.151 15.6158C114.581 15.0234 115.172 14.5611 115.922 14.2287C116.672 13.8963 117.524 13.7301 118.478 13.7301C119.45 13.7301 120.298 13.8963 121.022 14.2287C121.751 14.5611 122.318 15.0234 122.723 15.6158C123.127 16.2081 123.336 16.8942 123.349 17.674H120.696Z" fill="white"/>
</svg>
