<svg width="24" height="16" viewBox="0 0 24 16" fill="none" xmlns="http://www.w3.org/2000/svg">
<path d="M16.9202 0.5C15.0692 0.5 13.6222 1.894 12.3122 3.665C10.5122 1.373 9.00721 0.5 7.20621 0.5C3.53421 0.5 0.720215 5.28 0.720215 10.338C0.720215 13.503 2.25121 15.5 4.81621 15.5C6.66221 15.5 7.99021 14.63 10.3512 10.503C10.3512 10.503 11.3352 8.766 12.0112 7.569C12.2492 7.952 12.4982 8.364 12.7612 8.807L13.8682 10.669C16.0242 14.277 17.2262 15.5 19.4022 15.5C21.9022 15.5 23.2922 13.476 23.2922 10.245C23.2922 4.948 20.4152 0.5 16.9202 0.5ZM8.55021 9.386C6.63721 12.386 5.97521 13.059 4.91021 13.059C3.81321 13.059 3.16121 12.096 3.16121 10.379C3.16121 6.707 4.99221 2.952 7.17521 2.952C8.35721 2.952 9.34521 3.634 10.8582 5.8C9.42121 8.004 8.55021 9.386 8.55021 9.386ZM15.7742 9.009L14.4502 6.8C14.1176 6.25678 13.7735 5.72066 13.4182 5.192C14.6112 3.351 15.5942 2.433 16.7652 2.433C19.1952 2.433 21.1402 6.013 21.1402 10.409C21.1402 12.085 20.5912 13.058 19.4542 13.058C18.3642 13.058 17.8442 12.339 15.7742 9.009Z" fill="#0064E0"/>
</svg>
