<svg width="180" height="180" viewBox="0 0 180 180" fill="none" xmlns="http://www.w3.org/2000/svg">
<circle opacity="0.17" cx="90" cy="90" r="90" fill="#39B3EA"/>
<circle cx="90.0001" cy="90" r="48.8028" fill="white"/>
<path d="M99.7651 71.5231V70.0374H98.2794V71.5231H82.1352V70.0374H80.6495V71.5231H75.6973V108.764H104.767V71.5231H99.7651ZM103.232 107.229H77.1829V73.0087H80.6495V74.1973H82.1352V73.0087H98.329V74.1973H99.8146V73.0087H103.281V107.229H103.232Z" fill="#00549A"/>
<path d="M86.394 87.8651L89.811 89.846C90.0091 89.945 90.3558 89.945 90.6034 89.846L94.0204 87.8651C94.2185 87.766 94.4166 87.4194 94.4166 87.1718V83.21C94.4166 82.9624 94.2185 82.6652 94.0204 82.5167L90.6034 80.5358C90.4053 80.4367 90.0586 80.4367 89.811 80.5358L86.394 82.5167C86.1959 82.6157 85.9978 82.9624 85.9978 83.21V87.1718C85.9978 87.4194 86.1959 87.7165 86.394 87.8651Z" fill="#00549A"/>
<rect x="84.3145" y="93.5603" width="11.7863" height="2.22851" fill="#00549A"/>
<rect x="84.3145" y="97.6707" width="11.7863" height="2.22851" fill="#00549A"/>
<path d="M89.9999 27.8879L97.6844 39.7717H82.3155L89.9999 27.8879Z" fill="white"/>
</svg>
