<svg width="24" height="24" viewBox="0 0 24 24" fill="none" xmlns="http://www.w3.org/2000/svg">
<g id="airplane-landing-svgrepo-com (1) 2">
<g id="Group">
<g id="Group_2">
<path id="Vector" d="M1.71274 11.0193L7.45483 13.009L4.6057 14.6136C4.46324 14.6934 4.40062 14.8656 4.45698 15.0206C4.49925 15.1317 4.59787 15.21 4.70745 15.2304C4.74972 15.2366 4.79355 15.2366 4.83739 15.2288L10.0488 14.1533C10.0159 14.4946 10.2445 14.8108 10.5873 14.875C10.7078 14.8985 10.8253 14.8844 10.9333 14.8453C11.0209 14.9204 11.1243 14.9752 11.2432 14.9987C11.6049 15.0676 11.9555 14.8296 12.0228 14.4664C12.0275 14.4429 12.0275 14.421 12.0291 14.3975C12.2451 14.3396 12.4189 14.1753 12.4893 13.9561L19.8454 15.3446C19.6169 15.4167 19.4353 15.6045 19.3883 15.855C19.3194 16.2166 19.5574 16.5673 19.9206 16.6346C20.2822 16.7035 20.6313 16.4655 20.7001 16.1023C20.7471 15.8519 20.6454 15.6092 20.4591 15.4605L21.7318 15.7C22.7118 15.8847 23.4694 16.2244 23.6557 15.2445C23.3818 13.6962 21.1119 12.3609 20.1319 12.1762L14.6872 11.1508L7.07129 6.20239C7.03372 6.17891 6.99458 6.16325 6.95232 6.15386C6.84117 6.13351 6.72219 6.16951 6.64236 6.25874C6.53277 6.38085 6.52808 6.56401 6.63296 6.69081L9.47427 10.1646L4.27226 9.18302C3.9122 8.21243 3.49579 7.07435 3.06842 5.86112C1.84423 2.38737 0.836081 4.12659 0.749981 4.58371L0.0126513 10.2945C-0.0734488 10.7516 0.310088 10.7547 0.767201 10.8424L1.71274 11.0193Z" fill="#CACDD1"/>
<path id="Vector_2" d="M23.9999 19.3679H1.44482V20.2571H23.9999V19.3679Z" fill="#CACDD1"/>
</g>
</g>
</g>
</svg>
