<svg width="22" height="22" viewBox="0 0 22 22" fill="none" xmlns="http://www.w3.org/2000/svg">
<path d="M14.2908 3.29083C13.9425 2.9425 13.475 2.75 12.9892 2.75H4.58333C3.575 2.75 2.75917 3.575 2.75917 4.58333L2.75 17.4167C2.75 18.425 3.56583 19.25 4.57417 19.25H17.4167C18.425 19.25 19.25 18.425 19.25 17.4167V9.01083C19.25 8.525 19.0575 8.0575 18.7092 7.71833L14.2908 3.29083ZM7.33333 15.5833C6.82917 15.5833 6.41667 15.1708 6.41667 14.6667C6.41667 14.1625 6.82917 13.75 7.33333 13.75C7.8375 13.75 8.25 14.1625 8.25 14.6667C8.25 15.1708 7.8375 15.5833 7.33333 15.5833ZM7.33333 11.9167C6.82917 11.9167 6.41667 11.5042 6.41667 11C6.41667 10.4958 6.82917 10.0833 7.33333 10.0833C7.8375 10.0833 8.25 10.4958 8.25 11C8.25 11.5042 7.8375 11.9167 7.33333 11.9167ZM7.33333 8.25C6.82917 8.25 6.41667 7.8375 6.41667 7.33333C6.41667 6.82917 6.82917 6.41667 7.33333 6.41667C7.8375 6.41667 8.25 6.82917 8.25 7.33333C8.25 7.8375 7.8375 8.25 7.33333 8.25ZM12.8333 8.25V4.125L17.875 9.16667H13.75C13.2458 9.16667 12.8333 8.75417 12.8333 8.25Z" fill="white"/>
</svg>
