<svg width="24" height="24" viewBox="0 0 24 24" fill="none" xmlns="http://www.w3.org/2000/svg">
<path d="M10.9989 1.95313C9.342 1.95313 7.999 3.29313 7.9989 4.95312V6.01562H6.9989C6.0844 5.97883 4.6808 6.57623 4.1551 8.04693L2.9989 8.01562C2.4466 8.01562 1.9988 8.46233 1.9989 9.01562C1.9989 9.56892 2.4466 10.0161 2.9989 10.0161H3.9989V11.0161H2.9989C2.4466 11.0161 1.9988 11.4621 1.9989 12.0161C1.9989 12.5691 2.4466 13.0151 2.9989 13.0161H3.9989V14.0161H2.9989C2.4466 14.0161 1.9988 14.4621 1.9989 15.0161C1.9989 15.5691 2.4466 16.0161 2.9989 16.0161H3.9989V17.0161H2.9989C2.4466 17.0161 1.9988 17.4621 1.9989 18.0161C1.9989 18.5691 2.4466 19.0161 2.9989 19.0161H3.9989C3.9989 20.6721 5.342 22.0161 6.9989 22.0161H13.9989C15.6558 22.0161 16.9989 20.6721 16.9989 19.0161V18.0161L17.9989 17.9841C19.6558 17.9841 20.9988 16.6441 20.9989 14.9841V4.95312C20.9989 3.29323 19.6557 1.95293 17.9989 1.95313H10.9989ZM17.9989 3.95312C18.5512 3.95312 18.999 4.39983 18.9989 4.95312V14.9531C18.9989 15.5061 18.5512 15.9531 17.9989 15.9531L16.9989 15.9841V9.01562C16.9989 7.35873 15.6558 6.01562 13.9989 6.01562H9.9989V4.98443C9.9989 4.43113 10.4466 3.98433 10.9989 3.98443L17.9989 3.95312Z" fill="white"/>
</svg>
