<svg width="22" height="22" viewBox="0 0 22 22" fill="none" xmlns="http://www.w3.org/2000/svg">
<path d="M17.875 10.9999C17.875 10.7891 17.8658 10.5874 17.8475 10.3766L19.5525 9.08408C19.9192 8.80908 20.02 8.29575 19.7908 7.89242L18.0767 4.93159C17.8475 4.52825 17.3525 4.36325 16.9308 4.54659L14.96 5.38075C14.6208 5.14242 14.2633 4.93159 13.8875 4.75742L13.6217 2.63992C13.5667 2.18159 13.1725 1.83325 12.7142 1.83325H9.295C8.8275 1.83325 8.43333 2.18159 8.37833 2.63992L8.1125 4.75742C7.73667 4.93159 7.37917 5.14242 7.04 5.38075L5.06917 4.54659C4.6475 4.36325 4.1525 4.52825 3.92333 4.93159L2.20916 7.90159C1.98 8.30492 2.08083 8.80908 2.4475 9.09325L4.1525 10.3858C4.13417 10.5874 4.125 10.7891 4.125 10.9999C4.125 11.2108 4.13417 11.4124 4.1525 11.6233L2.4475 12.9158C2.08083 13.1908 1.98 13.7041 2.20916 14.1074L3.92333 17.0683C4.1525 17.4716 4.6475 17.6366 5.06917 17.4533L7.04 16.6191C7.37917 16.8574 7.73667 17.0683 8.1125 17.2424L8.37833 19.3599C8.43333 19.8183 8.8275 20.1666 9.28583 20.1666H12.705C13.1633 20.1666 13.5575 19.8183 13.6125 19.3599L13.8783 17.2424C14.2542 17.0683 14.6117 16.8574 14.9508 16.6191L16.9217 17.4533C17.3433 17.6366 17.8383 17.4716 18.0675 17.0683L19.7817 14.1074C20.0108 13.7041 19.91 13.1999 19.5433 12.9158L17.8383 11.6233C17.8658 11.4124 17.875 11.2108 17.875 10.9999ZM11.0367 14.2083C9.2675 14.2083 7.82833 12.7691 7.82833 10.9999C7.82833 9.23075 9.2675 7.79158 11.0367 7.79158C12.8058 7.79158 14.245 9.23075 14.245 10.9999C14.245 12.7691 12.8058 14.2083 11.0367 14.2083Z" fill="#DFE3E8"/>
</svg>
