<svg width="32" height="32" viewBox="0 0 32 32" fill="none" xmlns="http://www.w3.org/2000/svg">
<path d="M28.9383 1.26953L19.7258 4.72891L23.032 6.81328C17.1258 14.2508 8.58203 18.832 1.36328 20.5758L3.40828 24.3008C11.5195 21.657 20.107 16.8883 25.6383 8.46328L28.157 10.0508L28.9383 1.26953ZM29.4195 8.56328L29.1195 11.9883L25.9133 9.96328C25.8008 10.132 25.682 10.2945 25.5633 10.4633V30.4383H30.4383V8.56328H29.4195ZM20.007 16.5633C19.2133 17.2508 18.3945 17.9008 17.5633 18.5133V30.4383H22.4383V16.5633H20.007ZM12.2758 21.8133C11.3758 22.2883 10.4758 22.7258 9.56328 23.1383V30.4383H14.4383V21.8133H12.2758ZM1.56328 24.5633V30.4383H6.43828V24.5633H6.08328C5.15703 24.907 4.23141 25.2258 3.31141 25.5195L2.87016 25.657L2.27016 24.5633H1.56328Z" fill="#F8FAFC"/>
</svg>
