<svg width="24" height="22" viewBox="0 0 24 22" fill="none" xmlns="http://www.w3.org/2000/svg">
<g clip-path="url(#clip0_441_16469)">
<path d="M1.81444 18.6437L2.87287 20.4718C3.09281 20.8567 3.40894 21.1592 3.78009 21.3791C4.84322 20.0297 5.58309 18.9941 6.00009 18.2725C6.42319 17.5402 6.94322 16.3947 7.56019 14.8361C5.89744 14.6172 4.63744 14.5078 3.78019 14.5078C2.95734 14.5078 1.69734 14.6172 0 14.8361C0 15.2622 0.109969 15.6883 0.329906 16.0732L1.81444 18.6437Z" fill="#0066DA"/>
<path d="M20.2201 21.3791C20.5914 21.1592 20.9075 20.8568 21.1273 20.4719L21.5672 19.7159L23.6704 16.0732C23.8863 15.6967 24 15.2702 24.0002 14.8361C22.293 14.6172 21.0354 14.5078 20.227 14.5078C19.3584 14.5078 18.1006 14.6172 16.4538 14.8361C17.0635 16.4032 17.5766 17.5488 17.9934 18.2725C18.4136 19.0027 19.1559 20.0382 20.2201 21.3791Z" fill="#EA4335"/>
<path d="M12.0001 7.13853C13.2301 5.65306 14.0778 4.50753 14.5431 3.70212C14.9178 3.05356 15.3302 2.018 15.7802 0.595531C15.409 0.375594 14.9829 0.265625 14.5431 0.265625H9.45713C9.01725 0.265625 8.59125 0.389375 8.22 0.595531C8.79244 2.22697 9.27825 3.38806 9.67725 4.07872C10.1183 4.84203 10.8925 5.86194 12.0001 7.13853Z" fill="#00832D"/>
<path d="M16.44 14.8364H7.56018L3.78018 21.3794C4.15124 21.5994 4.57734 21.7093 5.01721 21.7093H18.983C19.4228 21.7093 19.849 21.5856 20.2201 21.3793L16.4401 14.8364H16.44Z" fill="#2684FC"/>
<path d="M12.0001 7.13861L8.22009 0.595703C7.84884 0.815641 7.53272 1.11798 7.31278 1.50292L0.329906 13.5992C0.114012 13.9758 0.000285232 14.4022 0 14.8363H7.56019L12.0001 7.13861Z" fill="#00AC47"/>
<path d="M20.1789 7.55111L16.6874 1.50292C16.4676 1.11798 16.1513 0.815641 15.7802 0.595703L12.0002 7.1387L16.44 14.8364H23.9865C23.9865 14.4102 23.8765 13.9842 23.6566 13.5993L20.1789 7.55111Z" fill="#FFBA00"/>
</g>
<defs>
<clipPath id="clip0_441_16469">
<rect width="24" height="21.4688" fill="white" transform="translate(0 0.265625)"/>
</clipPath>
</defs>
</svg>
