<svg width="16" height="16" viewBox="0 0 16 16" fill="none" xmlns="http://www.w3.org/2000/svg">
<path d="M11 13C11.5523 13 12 12.5523 12 12C12 11.4477 11.5523 11 11 11C10.4477 11 10 11.4477 10 12C10 12.5523 10.4477 13 11 13Z" fill="white"/>
<path d="M14.8885 11.7395C14.5796 10.9524 14.0464 10.2733 13.3552 9.78638C12.664 9.29942 11.8451 9.02599 11 9C10.1549 9.02599 9.33597 9.29942 8.64476 9.78638C7.95355 10.2733 7.42044 10.9524 7.1115 11.7395L7 12L7.1115 12.2605C7.42044 13.0476 7.95355 13.7267 8.64476 14.2136C9.33597 14.7006 10.1549 14.974 11 15C11.8451 14.974 12.664 14.7006 13.3552 14.2136C14.0464 13.7267 14.5796 13.0476 14.8885 12.2605L15 12L14.8885 11.7395ZM11 14C10.6044 14 10.2178 13.8827 9.88886 13.6629C9.55996 13.4432 9.30362 13.1308 9.15224 12.7654C9.00087 12.3999 8.96126 11.9978 9.03843 11.6098C9.1156 11.2219 9.30608 10.8655 9.58579 10.5858C9.86549 10.3061 10.2219 10.1156 10.6098 10.0384C10.9978 9.96126 11.3999 10.0009 11.7654 10.1522C12.1308 10.3036 12.4432 10.56 12.6629 10.8889C12.8827 11.2178 13 11.6044 13 12C12.9993 12.5302 12.7884 13.0386 12.4135 13.4135C12.0386 13.7884 11.5302 13.9993 11 14ZM3.5 8.5H6V9.5H3.5V8.5ZM3.5 6H9.5V7H3.5V6ZM3.5 3.5H9.5V4.5H3.5V3.5Z" fill="white"/>
<path d="M11 1H2C1.73503 1.00079 1.48113 1.1064 1.29377 1.29377C1.1064 1.48113 1.00079 1.73503 1 2V14C1.00079 14.265 1.1064 14.5189 1.29377 14.7062C1.48113 14.8936 1.73503 14.9992 2 15H6V14H2V2H11V7.5H12V2C11.9992 1.73503 11.8936 1.48113 11.7062 1.29377C11.5189 1.1064 11.265 1.00079 11 1Z" fill="white"/>
</svg>
