<svg width="199" height="15" viewBox="0 0 199 15" fill="none" xmlns="http://www.w3.org/2000/svg">
<rect x="42" y="3" width="111" height="10" fill="url(#paint0_linear_1_11)"/>
<rect width="34" height="15" rx="5" fill="#E6E6E6"/>
<path d="M5.128 12H11.08V10.68H6.688V3.6H5.128V12ZM14.989 12.084C16.981 12.084 18.409 10.716 18.409 8.796C18.409 6.876 16.981 5.52 14.989 5.52C13.021 5.52 11.581 6.876 11.581 8.796C11.581 10.716 13.021 12.084 14.989 12.084ZM14.989 10.8C13.909 10.8 13.093 10.02 13.093 8.796C13.093 7.572 13.909 6.792 14.989 6.792C16.081 6.792 16.897 7.572 16.897 8.796C16.897 10.02 16.081 10.8 14.989 10.8ZM28.3316 5.592L26.5916 10.344L24.8636 5.592H23.6036L21.8396 10.32L20.1476 5.592H18.7316L21.0836 12H22.5236L24.2036 7.584L25.8596 12H27.2996L29.6636 5.592H28.3316Z" fill="black"/>
<rect x="161" width="38" height="15" rx="5" fill="#D9D9D9"/>
<path d="M172.032 3.6V7.068H167.688V3.6H166.128V12H167.688V8.4H172.032V12H173.592V3.6H172.032ZM176.455 4.536C177.019 4.536 177.415 4.128 177.415 3.6C177.415 3.108 177.007 2.736 176.455 2.736C175.903 2.736 175.495 3.132 175.495 3.636C175.495 4.14 175.903 4.536 176.455 4.536ZM175.699 12H177.199V5.592H175.699V12ZM184.1 5.592V6.444C183.572 5.808 182.78 5.52 181.88 5.52C180.044 5.52 178.64 6.744 178.64 8.604C178.64 10.464 180.044 11.712 181.88 11.712C182.744 11.712 183.5 11.436 184.028 10.86V11.196C184.028 12.492 183.404 13.14 181.988 13.14C181.1 13.14 180.188 12.84 179.624 12.372L178.952 13.5C179.684 14.1 180.872 14.412 182.072 14.412C184.316 14.412 185.528 13.356 185.528 11.028V5.592H184.1ZM182.108 10.44C180.968 10.44 180.152 9.696 180.152 8.604C180.152 7.524 180.968 6.792 182.108 6.792C183.236 6.792 184.052 7.524 184.052 8.604C184.052 9.696 183.236 10.44 182.108 10.44ZM191.136 5.52C190.248 5.52 189.492 5.808 189 6.336V3.096H187.5V12H189V8.76C189 7.476 189.72 6.828 190.788 6.828C191.748 6.828 192.312 7.38 192.312 8.52V12H193.812V8.328C193.812 6.396 192.672 5.52 191.136 5.52Z" fill="black"/>
<defs>
<linearGradient id="paint0_linear_1_11" x1="153" y1="3" x2="42" y2="3" gradientUnits="userSpaceOnUse">
<stop stop-color="#FF0300"/>
<stop offset="0.255208" stop-color="#FFD900"/>
<stop offset="0.614583" stop-color="#1D8D2C"/>
<stop offset="1" stop-color="#00CEFF"/>
</linearGradient>
</defs>
</svg>
