<svg id="Layer_1" data-name="Layer 1" xmlns="http://www.w3.org/2000/svg" xmlns:xlink="http://www.w3.org/1999/xlink" viewBox="0 0 296.35 237.65"><defs><style>.cls-1,.cls-4{fill:none;}.cls-2{clip-path:url(#clip-path);}.cls-3{fill:#3bb4e7;}.cls-4{stroke:#010101;stroke-linecap:round;stroke-linejoin:round;stroke-width:5px;}.cls-5{fill:#1d1d1b;}</style><clipPath id="clip-path" transform="translate(-42.75 -34.51)"><rect class="cls-1" width="377.74" height="310.12"/></clipPath></defs><title>incivus_svg</title><g class="cls-2"><path class="cls-3" d="M211.23,80.34c-2.72,5.13-7.35,8.08-12.7,8.08-4.25,0-7.49-1.28-9.63-3.81-3.64-4.3-2.64-10.58-2.6-10.84a1.12,1.12,0,0,1,1.28-.92,1.13,1.13,0,0,1,.92,1.28c0,.06-.87,5.55,2.11,9.05,1.69,2,4.36,3,7.92,3,4.5,0,8.41-2.51,10.74-6.89a27.6,27.6,0,0,0,1.48-3.3c-8-3.36-16.35-6-22.63-6.12A49.42,49.42,0,0,0,175,71.46c-2.66,5.25-2.56,11.34.57,17.23,3.3,6.24,9.74,13.42,17,13.18a36.73,36.73,0,0,0,19.77-7.28c4.27-3.42,6.79-8.47,7.37-14.54-2.21-1.06-4.53-2.14-6.91-3.17a28.74,28.74,0,0,1-1.57,3.46" transform="translate(-42.75 -34.51)"/><path class="cls-4" d="M187.4,74S185.17,87.3,198.53,87.3c5.17,0,9.35-3,11.72-7.48,1.77-3.34,3.92-8.91,1.64-12.47-1.43-2.22-4.28-4.21-6.46-5.61-8.05-5.19-17.17-4.13-24.72,1.51-8.63,6.45-11.17,16.39-6.09,26,3.38,6.37,10.11,14.05,18,13.77A37.79,37.79,0,0,0,213,95.46c6.56-5.27,8.55-13.39,7.74-21.51-1-10.3-7.87-19.31-15.62-25.73S186.54,35.66,176,37.28c-7.05,1.07-14.76,5.71-20.31,10.06a32,32,0,0,0-12,18.57c-1.48,7.1-.48,14.49,1.49,21.39,8.91,31.16,35.61,51.19,49,44.51s42.29-33.38,44.52-40.06,2.22-37.83-44.52-44.51c-15.09-2.15-30.79,1.43-38,16a43.38,43.38,0,0,0-3.82,12.8c-1.88,12.69,5,21.23,14.23,28.85a38.28,38.28,0,0,0,17.58,8.59c7,1.23,13.9-.42,20.6-2.33,7.67-2.18,15.45-5.32,22-10,3.8-2.71,9.48-6.06,11.57-10.22a2.15,2.15,0,0,0,.32-1.54,3.17,3.17,0,0,0-.87-1S205.53,69,188.13,68.76c-17.79-.21-33.55,8.9-45.13,21.92a18.37,18.37,0,0,0-4.38,15.08,32.23,32.23,0,0,0,22.57,27c12.18,3.93,25.36,3,37.77.71,8.91-1.66,18.19-4.38,25.58-9.95,8.73-6.56,12.86-21.08,14.05-31.72" transform="translate(-42.75 -34.51)"/><path class="cls-5" d="M42.75,244h6c4.71,0,7.9,1.59,7.9,6.19,0,4.43-3.17,6.5-7.77,6.5H45.42V265H42.75Zm5.79,10.52c3.68,0,5.44-1.33,5.44-4.33s-1.87-4-5.56-4h-3v8.35Z" transform="translate(-42.75 -34.51)"/><path class="cls-5" d="M58.39,257.23c0-5.07,3.41-8.2,7-8.2,4,0,6.22,2.86,6.22,7.31a8,8,0,0,1-.13,1.5H61c.19,3.3,2.21,5.44,5.18,5.44A6.74,6.74,0,0,0,70,262l.95,1.73a9.13,9.13,0,0,1-5.14,1.62c-4.16,0-7.46-3-7.46-8.15M69.28,256c0-3.12-1.41-4.82-3.84-4.82-2.19,0-4.15,1.76-4.47,4.82Z" transform="translate(-42.75 -34.51)"/><path class="cls-5" d="M75.12,249.42h2.17l.23,2.83h.08c1.09-2,2.68-3.22,4.43-3.22a3.62,3.62,0,0,1,1.66.32l-.49,2.31a4.51,4.51,0,0,0-1.51-.25c-1.31,0-2.89,1-3.94,3.58v10H75.12Z" transform="translate(-42.75 -34.51)"/><path class="cls-5" d="M84.44,257.23c0-5.2,3.51-8.2,7.49-8.2a6.59,6.59,0,0,1,4.56,1.83l-1.35,1.74a4.51,4.51,0,0,0-3.09-1.37c-2.82,0-4.89,2.43-4.89,6s2,5.95,4.82,5.95a5.6,5.6,0,0,0,3.65-1.55l1.15,1.77a7.57,7.57,0,0,1-5,2c-4.14,0-7.3-3-7.3-8.15" transform="translate(-42.75 -34.51)"/><path class="cls-5" d="M98.05,257.23c0-5.07,3.42-8.2,7-8.2,4,0,6.22,2.86,6.22,7.31a9,9,0,0,1-.12,1.5H100.66c.19,3.3,2.2,5.44,5.17,5.44a6.77,6.77,0,0,0,3.88-1.25l.94,1.73a9.08,9.08,0,0,1-5.14,1.62c-4.15,0-7.46-3-7.46-8.15M108.94,256c0-3.12-1.4-4.82-3.84-4.82-2.19,0-4.15,1.76-4.47,4.82Z" transform="translate(-42.75 -34.51)"/><path class="cls-5" d="M114.78,249.42H117l.22,1.8h.09a8.21,8.21,0,0,1,5-2.19c4,0,6.18,3.13,6.18,7.94,0,5.31-3.19,8.41-6.75,8.41a7.11,7.11,0,0,1-4.32-1.81l.08,2.72v5.27h-2.64ZM125.69,257c0-3.44-1.18-5.74-4.11-5.74-1.32,0-2.65.73-4.16,2.13v8.16a6.1,6.1,0,0,0,3.79,1.62c2.58,0,4.48-2.32,4.48-6.17" transform="translate(-42.75 -34.51)"/><path class="cls-5" d="M132.16,260.18v-8.62h-2.32v-2l2.44-.15.31-4.37h2.2v4.37H139v2.14h-4.22v8.66c0,1.91.62,3,2.41,3a5.21,5.21,0,0,0,1.78-.42l.51,2a9.35,9.35,0,0,1-2.89.58c-3.32,0-4.44-2.1-4.44-5.2" transform="translate(-42.75 -34.51)"/><path class="cls-5" d="M141.72,244.51a1.82,1.82,0,1,1,1.82,1.7,1.72,1.72,0,0,1-1.82-1.7m.48,4.91h2.64V265H142.2Z" transform="translate(-42.75 -34.51)"/><path class="cls-5" d="M148.61,257.23c0-5.2,3.4-8.2,7.22-8.2s7.21,3,7.21,8.2-3.4,8.15-7.21,8.15-7.22-3-7.22-8.15m11.71,0c0-3.57-1.81-6-4.49-6s-4.5,2.43-4.5,6,1.82,5.95,4.5,5.95,4.49-2.39,4.49-5.95" transform="translate(-42.75 -34.51)"/><path class="cls-5" d="M166.81,249.42H169l.22,2.24h.09c1.48-1.46,3.08-2.63,5.22-2.63,3.28,0,4.76,2.12,4.76,6.09V265h-2.64v-9.53c0-2.9-.87-4.14-2.94-4.14-1.59,0-2.69.81-4.25,2.39V265h-2.64Z" transform="translate(-42.75 -34.51)"/><polygon class="cls-5" points="151.98 211.71 145.62 211.71 145.62 209.45 161.02 209.45 161.02 211.71 154.66 211.71 154.66 230.48 151.98 230.48 151.98 211.71"/><path class="cls-5" d="M203.68,257.23c0-5.07,3.42-8.2,7-8.2,4,0,6.22,2.86,6.22,7.31a9,9,0,0,1-.12,1.5H206.29c.19,3.3,2.2,5.44,5.17,5.44a6.77,6.77,0,0,0,3.88-1.25l.94,1.73a9.08,9.08,0,0,1-5.14,1.62c-4.15,0-7.46-3-7.46-8.15M214.57,256c0-3.12-1.4-4.82-3.84-4.82-2.19,0-4.15,1.76-4.47,4.82Z" transform="translate(-42.75 -34.51)"/><path class="cls-5" d="M219.25,257.23c0-5.2,3.51-8.2,7.5-8.2a6.54,6.54,0,0,1,4.55,1.83L230,252.6a4.51,4.51,0,0,0-3.09-1.37c-2.82,0-4.89,2.43-4.89,6s2,5.95,4.81,5.95a5.6,5.6,0,0,0,3.66-1.55l1.14,1.77a7.54,7.54,0,0,1-5,2c-4.15,0-7.31-3-7.31-8.15" transform="translate(-42.75 -34.51)"/><path class="cls-5" d="M234.7,242.16h2.64v6.25l-.1,3.2c1.45-1.41,3-2.58,5.17-2.58,3.28,0,4.76,2.12,4.76,6.09V265h-2.64v-9.53c0-2.9-.88-4.14-2.94-4.14-1.59,0-2.69.81-4.25,2.39V265H234.7Z" transform="translate(-42.75 -34.51)"/><path class="cls-5" d="M251.81,249.42H254l.22,2.24h.09c1.48-1.46,3.08-2.63,5.22-2.63,3.28,0,4.76,2.12,4.76,6.09V265h-2.64v-9.53c0-2.9-.88-4.14-2.94-4.14-1.59,0-2.69.81-4.26,2.39V265h-2.63Z" transform="translate(-42.75 -34.51)"/><path class="cls-5" d="M267.86,257.23c0-5.2,3.4-8.2,7.21-8.2s7.22,3,7.22,8.2-3.4,8.15-7.22,8.15-7.21-3-7.21-8.15m11.71,0c0-3.57-1.82-6-4.5-6s-4.49,2.43-4.49,6,1.81,5.95,4.49,5.95,4.5-2.39,4.5-5.95" transform="translate(-42.75 -34.51)"/><path class="cls-5" d="M285.93,261.86v-19.7h2.64v19.9c0,.8.35,1.12.73,1.12a2.47,2.47,0,0,0,.58-.06l.36,2a4.15,4.15,0,0,1-1.52.25c-2,0-2.79-1.26-2.79-3.52" transform="translate(-42.75 -34.51)"/><path class="cls-5" d="M292.62,257.23c0-5.2,3.4-8.2,7.22-8.2s7.22,3,7.22,8.2-3.4,8.15-7.22,8.15-7.22-3-7.22-8.15m11.71,0c0-3.57-1.81-6-4.49-6s-4.49,2.43-4.49,6,1.81,5.95,4.49,5.95,4.49-2.39,4.49-5.95" transform="translate(-42.75 -34.51)"/><path class="cls-5" d="M309.64,268a4.37,4.37,0,0,1,2.29-3.52v-.13a2.86,2.86,0,0,1-1.4-2.55,3.74,3.74,0,0,1,1.72-2.89v-.13a5.39,5.39,0,0,1-2-4.18,5.53,5.53,0,0,1,5.84-5.55,6.19,6.19,0,0,1,2.2.39h5.44v2h-3.2a4.49,4.49,0,0,1,1.27,3.2c0,3.34-2.52,5.4-5.71,5.4a5.46,5.46,0,0,1-2.32-.53,2.29,2.29,0,0,0-1,1.84c0,1,.64,1.69,2.73,1.69h3c3.62,0,5.44,1.14,5.44,3.72,0,2.9-3.06,5.39-7.87,5.39-3.82,0-6.45-1.49-6.45-4.18m11.74-.81c0-1.44-1.09-1.94-3.14-1.94h-2.69a8.76,8.76,0,0,1-2-.23,3.26,3.26,0,0,0-1.59,2.61c0,1.68,1.69,2.73,4.52,2.73s4.92-1.55,4.92-3.17m-2-12.59a3.32,3.32,0,1,0-6.62,0,3.33,3.33,0,1,0,6.62,0" transform="translate(-42.75 -34.51)"/><path class="cls-5" d="M325.57,271.39l.51-2.11a3.93,3.93,0,0,0,1.19.24c1.76,0,2.87-1.41,3.51-3.35l.36-1.15-6.25-15.6h2.71l3.18,8.62c.49,1.35,1,2.95,1.52,4.39h.13c.44-1.42.88-3,1.31-4.39l2.77-8.62h2.59l-5.87,16.86c-1.1,3.09-2.71,5.43-5.83,5.43a5.08,5.08,0,0,1-1.83-.32" transform="translate(-42.75 -34.51)"/><rect class="cls-5" x="0.37" y="131.75" width="10.11" height="60.27"/><path class="cls-5" d="M67.69,166.27H78.07l17.71,33.87L101.67,213H102c-.49-6.23-1.29-13.86-1.29-20.57V166.27h9.62v60.27H100l-17.7-33.93-5.89-12.82H76c.49,6.38,1.29,13.65,1.29,20.35v26.4H67.69Z" transform="translate(-42.75 -34.51)"/><path class="cls-5" d="M121.85,196.61c0-19.73,11.67-31.45,26.1-31.45a22.12,22.12,0,0,1,16.42,7.63L159,179.68c-2.92-3.09-6.34-5.23-10.8-5.23-9.27,0-15.93,8.29-15.93,21.82,0,13.75,6.14,22.09,15.69,22.09,5.05,0,9-2.47,12.16-6.2l5.4,6.71c-4.62,5.68-10.56,8.78-17.95,8.78-14.32,0-25.68-11.1-25.68-31" transform="translate(-42.75 -34.51)"/><rect class="cls-5" x="132.28" y="131.75" width="10.11" height="60.27"/><path class="cls-5" d="M192,166.27h10.7l8,30.3c1.85,6.84,3.11,12.75,5,19.61h.35c1.92-6.86,3.23-12.77,5-19.61l7.91-30.3h10.32l-17.64,60.27h-12Z" transform="translate(-42.75 -34.51)"/><path class="cls-5" d="M245.15,200.11V166.27h10.11v34.65c0,13.12,4.63,17.44,11.54,17.44s11.78-4.32,11.78-17.44V166.27h9.72v33.84c0,19.79-8.3,27.54-21.5,27.54s-21.65-7.75-21.65-27.54" transform="translate(-42.75 -34.51)"/><path class="cls-5" d="M297.73,218.82l5.89-7.34c4.08,4.11,9.55,6.88,14.84,6.88,6.42,0,9.94-3.08,9.94-7.78,0-5-3.68-6.55-8.86-8.87l-7.78-3.57c-5.62-2.47-11.52-7.18-11.52-16,0-9.6,8-17,19.13-17a24.31,24.31,0,0,1,17.57,7.69l-5.2,6.78c-3.62-3.26-7.49-5.18-12.37-5.18-5.4,0-8.92,2.67-8.92,7.08,0,4.73,4.34,6.49,9.06,8.53l7.69,3.41c6.77,3,11.51,7.52,11.51,16.26,0,9.77-7.66,17.92-20.45,17.92a28.54,28.54,0,0,1-20.53-8.83" transform="translate(-42.75 -34.51)"/></g></svg>